<?xml version="1.0" encoding="ASCII"?>
<svg xmlns="http://www.w3.org/2000/svg" xmlns:xlink="http://www.w3.org/1999/xlink" width="288px" height="288px" viewBox="0 0 288 288" version="1.1">
  <metadata xmlns:gridsvg="http://www.stat.auckland.ac.nz/~paul/R/gridSVG/">
    <gridsvg:generator name="gridSVG" version="1.7-1" time="2019-11-06 01:33:18"/>
    <gridsvg:argument name="name" value="p1-gridSVG.svg"/>
    <gridsvg:argument name="exportCoords" value="none"/>
    <gridsvg:argument name="exportMappings" value="none"/>
    <gridsvg:argument name="exportJS" value="none"/>
    <gridsvg:argument name="res" value="96"/>
    <gridsvg:argument name="prefix" value=""/>
    <gridsvg:argument name="addClasses" value="FALSE"/>
    <gridsvg:argument name="indent" value="TRUE"/>
    <gridsvg:argument name="htmlWrapper" value="FALSE"/>
    <gridsvg:argument name="usePaths" value="vpPaths"/>
    <gridsvg:argument name="uniqueNames" value="TRUE"/>
    <gridsvg:separator name="id.sep" value="."/>
    <gridsvg:separator name="gPath.sep" value="::"/>
    <gridsvg:separator name="vpPath.sep" value="::"/>
  </metadata>
  <g transform="translate(0, 288) scale(1, -1)">
    <g id="gridSVG" fill="none" stroke="rgb(0,0,0)" stroke-dasharray="none" stroke-width="1" font-size="16" font-family="Helvetica, Arial, FreeSans, Liberation Sans, Nimbus Sans L, sans-serif" opacity="1" stroke-linecap="round" stroke-linejoin="round" stroke-miterlimit="10" stroke-opacity="1" fill-opacity="0" font-weight="normal" font-style="normal">
      <defs>
        <linearGradient id="import.6.linear0.1" x1="13.42" x2="274.19" y1="244.35" y2="69.71" gradientUnits="userSpaceOnUse" spreadMethod="pad">
          <stop offset="0" stop-color="rgb(203,206,208)" stop-opacity="1"/>
          <stop offset="1" stop-color="rgb(132,131,139)" stop-opacity="1"/>
        </linearGradient>
        <linearGradient id="import.6.linear1.1" x1="120.86" x2="264.78" y1="190.13" y2="43.26" gradientUnits="userSpaceOnUse" spreadMethod="pad">
          <stop offset="0" stop-color="rgb(39,109,195)" stop-opacity="1"/>
          <stop offset="1" stop-color="rgb(22,92,170)" stop-opacity="1"/>
        </linearGradient>
        <linearGradient id="import.7.linear0.1" x1="13.42" x2="274.19" y1="244.35" y2="69.71" gradientUnits="userSpaceOnUse" spreadMethod="pad">
          <stop offset="0" stop-color="rgb(203,206,208)" stop-opacity="1"/>
          <stop offset="1" stop-color="rgb(132,131,139)" stop-opacity="1"/>
        </linearGradient>
        <linearGradient id="import.7.linear1.1" x1="120.86" x2="264.78" y1="190.13" y2="43.26" gradientUnits="userSpaceOnUse" spreadMethod="pad">
          <stop offset="0" stop-color="rgb(39,109,195)" stop-opacity="1"/>
          <stop offset="1" stop-color="rgb(22,92,170)" stop-opacity="1"/>
        </linearGradient>
        <linearGradient id="import.8.linear0.1" x1="369.25" x2="437.7" y1="430.37" y2="384.53" gradientUnits="userSpaceOnUse" spreadMethod="pad">
          <stop offset="0" stop-color="rgb(203,206,208)" stop-opacity="1"/>
          <stop offset="1" stop-color="rgb(132,131,139)" stop-opacity="1"/>
        </linearGradient>
        <linearGradient id="import.8.linear1.1" x1="397.45" x2="435.23" y1="416.14" y2="377.59" gradientUnits="userSpaceOnUse" spreadMethod="pad">
          <stop offset="0" stop-color="rgb(39,109,195)" stop-opacity="1"/>
          <stop offset="1" stop-color="rgb(22,92,170)" stop-opacity="1"/>
        </linearGradient>
        <linearGradient id="import.9.linear0.1" x1="369.25" x2="437.7" y1="430.37" y2="384.53" gradientUnits="userSpaceOnUse" spreadMethod="pad">
          <stop offset="0" stop-color="rgb(203,206,208)" stop-opacity="1"/>
          <stop offset="1" stop-color="rgb(132,131,139)" stop-opacity="1"/>
        </linearGradient>
        <linearGradient id="import.9.linear1.1" x1="397.45" x2="435.23" y1="416.14" y2="377.59" gradientUnits="userSpaceOnUse" spreadMethod="pad">
          <stop offset="0" stop-color="rgb(39,109,195)" stop-opacity="1"/>
          <stop offset="1" stop-color="rgb(22,92,170)" stop-opacity="1"/>
        </linearGradient>
        <mask id="image-slice.1" x="0" y="0" width="288" height="288" maskUnits="userSpaceOnUse">
          <g id="image-slice::GRID.rect.332.1">
            <rect id="image-slice::GRID.rect.332.1.1" x="0" y="0" width="96" height="288" transform="" stroke="none" fill="rgb(0,0,0)" stroke-opacity="0" fill-opacity="1"/>
            <rect id="image-slice::GRID.rect.332.1.2" x="96" y="0" width="96" height="288" transform="" stroke="none" fill="rgb(190,190,190)" stroke-opacity="0" fill-opacity="1"/>
            <rect id="image-slice::GRID.rect.332.1.3" x="192" y="0" width="96" height="288" transform="" stroke="none" fill="rgb(255,255,255)" stroke-opacity="0" fill-opacity="1"/>
          </g>
        </mask>
        <mask id="vp-slice.1" x="144" y="0" width="144" height="288" maskUnits="userSpaceOnUse">
          <g id="vp-slice::GRID.rect.332.1">
            <rect id="vp-slice::GRID.rect.332.1.1" x="144" y="0" width="48" height="288" transform="" stroke="none" fill="rgb(0,0,0)" stroke-opacity="0" fill-opacity="1"/>
            <rect id="vp-slice::GRID.rect.332.1.2" x="192" y="0" width="48" height="288" transform="" stroke="none" fill="rgb(190,190,190)" stroke-opacity="0" fill-opacity="1"/>
            <rect id="vp-slice::GRID.rect.332.1.3" x="240" y="0" width="48" height="288" transform="" stroke="none" fill="rgb(255,255,255)" stroke-opacity="0" fill-opacity="1"/>
          </g>
        </mask>
        <clipPath id="import.11.clip1.1">
          <path id="import.11.clip1::GRID.gTree.382.1::GRID.picComplexPath.379.1::GRID.picPath.380.1.1" d="M 24.86 162.74 L 262.66 162.74 L 262.66 57.68 L 24.86 57.68 Z" fill-rule="nonzero" stroke="rgb(255,255,255)" stroke-opacity="0"/>
          <polyline id="import.11.clip1::GRID.gTree.382.1::GRID.picComplexPath.379.1::GRID.picPolyline.381.1.1" points="24.86,162.74 262.66,162.74 262.66,57.68 24.86,57.68 24.86,162.74" fill="none" fill-opacity="0"/>
        </clipPath>
        <clipPath id="import.11.clip3.1">
          <path id="import.11.clip3::GRID.gTree.386.1::GRID.picComplexPath.383.1::GRID.picPath.384.1.1" d="M 13.81 234.55 L 251.62 234.55 L 251.62 129.49 L 13.81 129.49 Z" fill-rule="nonzero" stroke="rgb(255,255,255)" stroke-opacity="0"/>
          <polyline id="import.11.clip3::GRID.gTree.386.1::GRID.picComplexPath.383.1::GRID.picPolyline.385.1.1" points="13.81,234.55 251.62,234.55 251.62,129.49 13.81,129.49 13.81,234.55" fill="none" fill-opacity="0"/>
        </clipPath>
        <clipPath id="import.11.clip5.1">
          <path id="import.11.clip5::GRID.gTree.390.1::GRID.picComplexPath.387.1::GRID.picPath.388.1.1" d="M 13.81 234.55 L 251.62 234.55 L 251.62 129.49 L 13.81 129.49 Z" fill-rule="nonzero" stroke="rgb(255,255,255)" stroke-opacity="0"/>
          <polyline id="import.11.clip5::GRID.gTree.390.1::GRID.picComplexPath.387.1::GRID.picPolyline.389.1.1" points="13.81,234.55 251.62,234.55 251.62,129.49 13.81,129.49 13.81,234.55" fill="none" fill-opacity="0"/>
        </clipPath>
        <clipPath id="import.11.clip7.1">
          <path id="import.11.clip7::GRID.gTree.394.1::GRID.picComplexPath.391.1::GRID.picPath.392.1.1" d="M 13.81 234.55 L 251.62 234.55 L 251.62 129.49 L 13.81 129.49 Z" fill-rule="nonzero" stroke="rgb(255,255,255)" stroke-opacity="0"/>
          <polyline id="import.11.clip7::GRID.gTree.394.1::GRID.picComplexPath.391.1::GRID.picPolyline.393.1.1" points="13.81,234.55 251.62,234.55 251.62,129.49 13.81,129.49 13.81,234.55" fill="none" fill-opacity="0"/>
        </clipPath>
        <clipPath id="import.11.clip9.1">
          <path id="import.11.clip9::GRID.gTree.398.1::GRID.picComplexPath.395.1::GRID.picPath.396.1.1" d="M 15.19 233.17 L 250.7 233.17 L 250.7 130.87 L 15.19 130.87 Z" fill-rule="nonzero" stroke="rgb(255,255,255)" stroke-opacity="0"/>
          <polyline id="import.11.clip9::GRID.gTree.398.1::GRID.picComplexPath.395.1::GRID.picPolyline.397.1.1" points="15.19,233.17 250.7,233.17 250.7,130.87 15.19,130.87 15.19,233.17" fill="none" fill-opacity="0"/>
        </clipPath>
        <clipPath id="import.11.clip11.1">
          <path id="import.11.clip11::GRID.gTree.402.1::GRID.picComplexPath.399.1::GRID.picPath.400.1.1" d="M 15.19 233.17 L 250.7 233.17 L 250.7 130.87 L 15.19 130.87 Z" fill-rule="nonzero" stroke="rgb(255,255,255)" stroke-opacity="0"/>
          <polyline id="import.11.clip11::GRID.gTree.402.1::GRID.picComplexPath.399.1::GRID.picPolyline.401.1.1" points="15.19,233.17 250.7,233.17 250.7,130.87 15.19,130.87 15.19,233.17" fill="none" fill-opacity="0"/>
        </clipPath>
        <clipPath id="import.11.clip13.1">
          <path id="import.11.clip13::GRID.gTree.406.1::GRID.picComplexPath.403.1::GRID.picPath.404.1.1" d="M 15.19 233.17 L 250.7 233.17 L 250.7 130.87 L 15.19 130.87 Z" fill-rule="nonzero" stroke="rgb(255,255,255)" stroke-opacity="0"/>
          <polyline id="import.11.clip13::GRID.gTree.406.1::GRID.picComplexPath.403.1::GRID.picPolyline.405.1.1" points="15.19,233.17 250.7,233.17 250.7,130.87 15.19,130.87 15.19,233.17" fill="none" fill-opacity="0"/>
        </clipPath>
        <clipPath id="import.11.clip15.1">
          <path id="import.11.clip15::GRID.gTree.410.1::GRID.picComplexPath.407.1::GRID.picPath.408.1.1" d="M 15.19 233.17 L 250.7 233.17 L 250.7 130.87 L 15.19 130.87 Z" fill-rule="nonzero" stroke="rgb(255,255,255)" stroke-opacity="0"/>
          <polyline id="import.11.clip15::GRID.gTree.410.1::GRID.picComplexPath.407.1::GRID.picPolyline.409.1.1" points="15.19,233.17 250.7,233.17 250.7,130.87 15.19,130.87 15.19,233.17" fill="none" fill-opacity="0"/>
        </clipPath>
        <filter id="import.11.alpha.1" x="0" y="0" width="1" height="1" filterUnits="objectBoundingBox" primitiveUnits="userSpaceOnUse">
          <feColorMatrix x="0" y="43.43" width="288" height="201.15" type="matrix" values="0 0 0 0 1 0 0 0 0 1 0 0 0 0 1 0 0 0 1 0" in="SourceGraphic"/>
        </filter>
        <mask id="import.11.mask0.1" x="0" y="43.43" width="288" height="201.15" maskUnits="userSpaceOnUse">
          <g id="import.11.mask0::GRID.gTree.413.1">
            <g id="import.11.mask0::GRID.gTree.413.1::GRID.gTree.412.1" filter="url(#import.11.alpha.1)">
              <g id="import.11.mask0::GRID.gTree.413.1::GRID.gTree.412.1::GRID.picRect.411.1">
                <rect id="import.11.mask0::GRID.gTree.413.1::GRID.gTree.412.1::GRID.picRect.411.1.1" x="13.09" y="130.49" width="240.26" height="104.94" transform="" fill="rgb(0,0,0)" stroke="rgb(255,255,255)" stroke-opacity="0" fill-opacity="0.3"/>
              </g>
            </g>
          </g>
        </mask>
        <clipPath id="import.11.clip17.1">
          <path id="import.11.clip17::GRID.gTree.417.1::GRID.picComplexPath.414.1::GRID.picPath.415.1.1" d="M 15.19 233.17 L 250.7 233.17 L 250.7 130.87 L 15.19 130.87 Z" fill-rule="nonzero" stroke="rgb(255,255,255)" stroke-opacity="0"/>
          <polyline id="import.11.clip17::GRID.gTree.417.1::GRID.picComplexPath.414.1::GRID.picPolyline.416.1.1" points="15.19,233.17 250.7,233.17 250.7,130.87 15.19,130.87 15.19,233.17" fill="none" fill-opacity="0"/>
        </clipPath>
        <clipPath id="import.11.clip16.1">
          <rect id="import.11.clip16::GRID.gTree.419.1::GRID.picRect.418.1.1" x="13.09" y="130.49" width="240.26" height="104.94" transform=""/>
        </clipPath>
        <clipPath id="import.11.clip14.1">
          <rect id="import.11.clip14::GRID.gTree.421.1::GRID.picRect.420.1.1" x="13.09" y="130.49" width="240.26" height="104.94" transform=""/>
        </clipPath>
        <clipPath id="import.11.clip12.1">
          <rect id="import.11.clip12::GRID.gTree.423.1::GRID.picRect.422.1.1" x="13.09" y="130.49" width="240.26" height="104.94" transform=""/>
        </clipPath>
        <clipPath id="import.11.clip10.1">
          <rect id="import.11.clip10::GRID.gTree.425.1::GRID.picRect.424.1.1" x="13.09" y="130.49" width="240.26" height="104.94" transform=""/>
        </clipPath>
        <clipPath id="import.11.clip18.1">
          <path id="import.11.clip18::GRID.gTree.429.1::GRID.picComplexPath.426.1::GRID.picPath.427.1.1" d="M 196.87 154.86 L 244.25 154.86 L 244.25 130.87 L 196.87 130.87 Z" fill-rule="nonzero" stroke="rgb(255,255,255)" stroke-opacity="0"/>
          <polyline id="import.11.clip18::GRID.gTree.429.1::GRID.picComplexPath.426.1::GRID.picPolyline.428.1.1" points="196.87,154.86 244.25,154.86 244.25,130.87 196.87,130.87 196.87,154.86" fill="none" fill-opacity="0"/>
        </clipPath>
        <clipPath id="import.11.clip19.1">
          <path id="import.11.clip19::GRID.gTree.433.1::GRID.picComplexPath.430.1::GRID.picPath.431.1.1" d="M 13.81 234.55 L 251.62 234.55 L 251.62 129.49 L 13.81 129.49 Z" fill-rule="nonzero" stroke="rgb(255,255,255)" stroke-opacity="0"/>
          <polyline id="import.11.clip19::GRID.gTree.433.1::GRID.picComplexPath.430.1::GRID.picPolyline.432.1.1" points="13.81,234.55 251.62,234.55 251.62,129.49 13.81,129.49 13.81,234.55" fill="none" fill-opacity="0"/>
        </clipPath>
        <clipPath id="import.11.clip8.1">
          <rect id="import.11.clip8::GRID.gTree.435.1::GRID.picRect.434.1.1" x="13.09" y="127.73" width="240.26" height="107.7" transform=""/>
        </clipPath>
        <clipPath id="import.11.clip6.1">
          <rect id="import.11.clip6::GRID.gTree.437.1::GRID.picRect.436.1.1" x="13.09" y="127.73" width="240.26" height="107.7" transform=""/>
        </clipPath>
        <clipPath id="import.11.clip4.1">
          <rect id="import.11.clip4::GRID.gTree.439.1::GRID.picRect.438.1.1" x="13.09" y="127.73" width="240.26" height="107.7" transform=""/>
        </clipPath>
        <clipPath id="import.11.clip2.1">
          <rect id="import.11.clip2::GRID.gTree.441.1::GRID.picRect.440.1.1" x="13.09" y="127.73" width="240.26" height="107.7" transform=""/>
        </clipPath>
        <clipPath id="import.11.clip20.1">
          <path id="import.11.clip20::GRID.gTree.445.1::GRID.picComplexPath.442.1::GRID.picPath.443.1.1" d="M 203.64 171.91 L 211.93 171.91 L 211.93 52.57 L 203.64 52.57 Z" fill-rule="nonzero" stroke="rgb(255,255,255)" stroke-opacity="0"/>
          <polyline id="import.11.clip20::GRID.gTree.445.1::GRID.picComplexPath.442.1::GRID.picPolyline.444.1.1" points="203.64,171.91 211.93,171.91 211.93,52.57 203.64,52.57 203.64,171.91" fill="none" fill-opacity="0"/>
        </clipPath>
        <clipPath id="import.11.clip21.1">
          <path id="import.11.clip21::GRID.gTree.449.1::GRID.picComplexPath.446.1::GRID.picPath.447.1.1" d="M 13.09 169.15 L 274.91 169.15 L 274.91 52.57 L 13.09 52.57 Z" fill-rule="nonzero" stroke="rgb(255,255,255)" stroke-opacity="0"/>
          <polyline id="import.11.clip21::GRID.gTree.449.1::GRID.picComplexPath.446.1::GRID.picPolyline.448.1.1" points="13.09,169.15 274.91,169.15 274.91,52.57 13.09,52.57 13.09,169.15" fill="none" fill-opacity="0"/>
        </clipPath>
        <clipPath id="import.11.clip17-update-2.1">
          <path id="import.11.clip17-update-2::GRID.gTree.453.1::GRID.picComplexPath.450.1::GRID.picPath.451.1.1" d="M 26.24 161.36 L 261.75 161.36 L 261.75 59.06 L 26.24 59.06 Z" fill-rule="nonzero" stroke="rgb(255,255,255)" stroke-opacity="0"/>
          <polyline id="import.11.clip17-update-2::GRID.gTree.453.1::GRID.picComplexPath.450.1::GRID.picPolyline.452.1.1" points="26.24,161.36 261.75,161.36 261.75,59.06 26.24,59.06 26.24,161.36" fill="none" fill-opacity="0"/>
        </clipPath>
        <mask id="import.11.mask0-update-3.1" x="0" y="43.43" width="288" height="201.15" maskUnits="userSpaceOnUse">
          <g id="import.11.mask0-update-3::GRID.gTree.456.1">
            <g id="import.11.mask0-update-3::GRID.gTree.456.1::GRID.gTree.455.1" filter="url(#import.11.alpha.1)">
              <g id="import.11.mask0-update-3::GRID.gTree.456.1::GRID.gTree.455.1::GRID.picRect.454.1">
                <rect id="import.11.mask0-update-3::GRID.gTree.456.1::GRID.gTree.455.1::GRID.picRect.454.1.1" x="24.14" y="58.69" width="240.26" height="104.94" transform="" fill="rgb(0,0,0)" stroke="rgb(255,255,255)" stroke-opacity="0" fill-opacity="0.3"/>
              </g>
            </g>
          </g>
        </mask>
        <clipPath id="import.11.clip15-update-4.1">
          <path id="import.11.clip15-update-4::GRID.gTree.460.1::GRID.picComplexPath.457.1::GRID.picPath.458.1.1" d="M 26.24 161.36 L 261.75 161.36 L 261.75 59.06 L 26.24 59.06 Z" fill-rule="nonzero" stroke="rgb(255,255,255)" stroke-opacity="0"/>
          <polyline id="import.11.clip15-update-4::GRID.gTree.460.1::GRID.picComplexPath.457.1::GRID.picPolyline.459.1.1" points="26.24,161.36 261.75,161.36 261.75,59.06 26.24,59.06 26.24,161.36" fill="none" fill-opacity="0"/>
        </clipPath>
        <clipPath id="import.11.clip13-update-5.1">
          <path id="import.11.clip13-update-5::GRID.gTree.464.1::GRID.picComplexPath.461.1::GRID.picPath.462.1.1" d="M 26.24 161.36 L 261.75 161.36 L 261.75 59.06 L 26.24 59.06 Z" fill-rule="nonzero" stroke="rgb(255,255,255)" stroke-opacity="0"/>
          <polyline id="import.11.clip13-update-5::GRID.gTree.464.1::GRID.picComplexPath.461.1::GRID.picPolyline.463.1.1" points="26.24,161.36 261.75,161.36 261.75,59.06 26.24,59.06 26.24,161.36" fill="none" fill-opacity="0"/>
        </clipPath>
        <clipPath id="import.11.clip11-update-6.1">
          <path id="import.11.clip11-update-6::GRID.gTree.468.1::GRID.picComplexPath.465.1::GRID.picPath.466.1.1" d="M 26.24 161.36 L 261.75 161.36 L 261.75 59.06 L 26.24 59.06 Z" fill-rule="nonzero" stroke="rgb(255,255,255)" stroke-opacity="0"/>
          <polyline id="import.11.clip11-update-6::GRID.gTree.468.1::GRID.picComplexPath.465.1::GRID.picPolyline.467.1.1" points="26.24,161.36 261.75,161.36 261.75,59.06 26.24,59.06 26.24,161.36" fill="none" fill-opacity="0"/>
        </clipPath>
        <clipPath id="import.11.clip9-update-7.1">
          <path id="import.11.clip9-update-7::GRID.gTree.472.1::GRID.picComplexPath.469.1::GRID.picPath.470.1.1" d="M 26.24 161.36 L 261.75 161.36 L 261.75 59.06 L 26.24 59.06 Z" fill-rule="nonzero" stroke="rgb(255,255,255)" stroke-opacity="0"/>
          <polyline id="import.11.clip9-update-7::GRID.gTree.472.1::GRID.picComplexPath.469.1::GRID.picPolyline.471.1.1" points="26.24,161.36 261.75,161.36 261.75,59.06 26.24,59.06 26.24,161.36" fill="none" fill-opacity="0"/>
        </clipPath>
        <clipPath id="import.11.clip18-update-8.1">
          <path id="import.11.clip18-update-8::GRID.gTree.476.1::GRID.picComplexPath.473.1::GRID.picPath.474.1.1" d="M 207.92 83.06 L 255.3 83.06 L 255.3 59.06 L 207.92 59.06 Z" fill-rule="nonzero" stroke="rgb(255,255,255)" stroke-opacity="0"/>
          <polyline id="import.11.clip18-update-8::GRID.gTree.476.1::GRID.picComplexPath.473.1::GRID.picPolyline.475.1.1" points="207.92,83.06 255.3,83.06 255.3,59.06 207.92,59.06 207.92,83.06" fill="none" fill-opacity="0"/>
        </clipPath>
        <clipPath id="import.11.clip19-update-9.1">
          <path id="import.11.clip19-update-9::GRID.gTree.480.1::GRID.picComplexPath.477.1::GRID.picPath.478.1.1" d="M 24.86 162.74 L 262.66 162.74 L 262.66 57.68 L 24.86 57.68 Z" fill-rule="nonzero" stroke="rgb(255,255,255)" stroke-opacity="0"/>
          <polyline id="import.11.clip19-update-9::GRID.gTree.480.1::GRID.picComplexPath.477.1::GRID.picPolyline.479.1.1" points="24.86,162.74 262.66,162.74 262.66,57.68 24.86,57.68 24.86,162.74" fill="none" fill-opacity="0"/>
        </clipPath>
        <clipPath id="import.11.clip7-update-10.1">
          <path id="import.11.clip7-update-10::GRID.gTree.484.1::GRID.picComplexPath.481.1::GRID.picPath.482.1.1" d="M 24.86 162.74 L 262.66 162.74 L 262.66 57.68 L 24.86 57.68 Z" fill-rule="nonzero" stroke="rgb(255,255,255)" stroke-opacity="0"/>
          <polyline id="import.11.clip7-update-10::GRID.gTree.484.1::GRID.picComplexPath.481.1::GRID.picPolyline.483.1.1" points="24.86,162.74 262.66,162.74 262.66,57.68 24.86,57.68 24.86,162.74" fill="none" fill-opacity="0"/>
        </clipPath>
        <clipPath id="import.11.clip5-update-11.1">
          <path id="import.11.clip5-update-11::GRID.gTree.488.1::GRID.picComplexPath.485.1::GRID.picPath.486.1.1" d="M 24.86 162.74 L 262.66 162.74 L 262.66 57.68 L 24.86 57.68 Z" fill-rule="nonzero" stroke="rgb(255,255,255)" stroke-opacity="0"/>
          <polyline id="import.11.clip5-update-11::GRID.gTree.488.1::GRID.picComplexPath.485.1::GRID.picPolyline.487.1.1" points="24.86,162.74 262.66,162.74 262.66,57.68 24.86,57.68 24.86,162.74" fill="none" fill-opacity="0"/>
        </clipPath>
        <clipPath id="import.11.clip3-update-12.1">
          <path id="import.11.clip3-update-12::GRID.gTree.492.1::GRID.picComplexPath.489.1::GRID.picPath.490.1.1" d="M 24.86 162.74 L 262.66 162.74 L 262.66 57.68 L 24.86 57.68 Z" fill-rule="nonzero" stroke="rgb(255,255,255)" stroke-opacity="0"/>
          <polyline id="import.11.clip3-update-12::GRID.gTree.492.1::GRID.picComplexPath.489.1::GRID.picPolyline.491.1.1" points="24.86,162.74 262.66,162.74 262.66,57.68 24.86,57.68 24.86,162.74" fill="none" fill-opacity="0"/>
        </clipPath>
      </defs>
      <g id="picture.shape.1">
        <defs>
          <clipPath id="picture.shape::picture.scale.1.clipPath">
            <rect x="0" y="43.43" width="288" height="201.15" fill="none" stroke="none"/>
          </clipPath>
        </defs>
        <g id="picture.shape::picture.scale.1" clip-path="url(#picture.shape::picture.scale.1.clipPath)">
          <g id="import.11.GRID.gTree.533.1">
            <g id="GRID.gTree.532.1">
              <g id="GRID.picComplexPath.493.1" fill="rgb(255,255,255)" stroke-width="2.76" stroke-linecap="butt" stroke-linejoin="miter" stroke="rgb(35,31,32)" stroke-miterlimit="10" stroke-opacity="1" fill-opacity="1">
                <g id="GRID.picPath.494.1">
                  <path id="GRID.picPath.494.1.1" d="M 241.06 234.05 L 252 234.05 L 252 176.9 L 241.06 176.9 Z" fill-rule="nonzero" stroke="rgb(255,255,255)" stroke-opacity="0"/>
                </g>
                <g id="GRID.picPolyline.495.1">
                  <polyline id="GRID.picPolyline.495.1.1" points="241.06,234.05 252,234.05 252,176.9 241.06,176.9 241.06,234.05" fill="none" fill-opacity="0"/>
                </g>
              </g>
              <g id="GRID.gTree.523.1" clip-path="url(#import.11.clip1.1)">
                <g id="GRID.gTree.522.1">
                  <g id="GRID.gTree.521.1" clip-path="url(#import.11.clip3-update-12.1)">
                    <g id="GRID.gTree.520.1">
                      <g id="GRID.gTree.519.1" clip-path="url(#import.11.clip5-update-11.1)">
                        <g id="GRID.gTree.518.1">
                          <g id="GRID.gTree.517.1" clip-path="url(#import.11.clip7-update-10.1)">
                            <g id="GRID.gTree.516.1">
                              <g id="GRID.gTree.507.1" clip-path="url(#import.11.clip9-update-7.1)">
                                <g id="GRID.gTree.506.1">
                                  <g id="GRID.gTree.505.1" clip-path="url(#import.11.clip11-update-6.1)">
                                    <g id="GRID.gTree.504.1">
                                      <g id="GRID.gTree.503.1" clip-path="url(#import.11.clip13-update-5.1)">
                                        <g id="GRID.gTree.502.1">
                                          <g id="GRID.gTree.501.1" clip-path="url(#import.11.clip15-update-4.1)">
                                            <g id="GRID.gTree.500.1" mask="url(#import.11.mask0-update-3.1)">
                                              <g id="GRID.gTree.499.1" clip-path="url(#import.11.clip17-update-2.1)">
                                                <g id="GRID.picComplexPath.496.1" stroke="rgb(255,255,255)" fill="rgb(77,128,187)" stroke-opacity="0" fill-opacity="1">
                                                  <g id="GRID.picPath.497.1">
                                                    <path id="GRID.picPath.497.1.1" d="M 26.24 59.11 L 26.7 59.12 L 27.16 59.12 L 28.09 59.14 L 28.55 59.14 L 29.01 59.15 L 29.47 59.16 L 29.93 59.17 L 30.38 59.19 L 30.85 59.2 L 31.32 59.21 L 31.78 59.24 L 32.7 59.28 L 33.16 59.3 L 33.62 59.32 L 34.07 59.34 L 34.54 59.38 L 35 59.4 L 35.46 59.44 L 35.93 59.47 L 36.38 59.52 L 37.31 59.6 L 37.76 59.66 L 38.23 59.7 L 39.15 59.81 L 39.62 59.87 L 40.07 59.94 L 40.53 60 L 40.99 60.08 L 41.45 60.16 L 41.92 60.24 L 42.37 60.33 L 42.83 60.4 L 43.3 60.51 L 44.22 60.7 L 44.68 60.8 L 45.14 60.92 L 45.61 61.03 L 46.06 61.15 L 46.99 61.38 L 47.45 61.51 L 47.91 61.65 L 48.37 61.78 L 48.83 61.92 L 49.28 62.06 L 50.21 62.34 L 50.66 62.49 L 52.52 63.1 L 52.97 63.25 L 53.44 63.41 L 53.9 63.56 L 54.35 63.71 L 54.82 63.87 L 56.21 64.33 L 56.66 64.48 L 57.13 64.63 L 57.58 64.77 L 58.04 64.92 L 58.97 65.2 L 59.42 65.34 L 59.89 65.48 L 60.82 65.74 L 61.27 65.88 L 61.73 66 L 62.19 66.12 L 62.65 66.25 L 64.51 66.72 L 64.96 66.83 L 65.42 66.95 L 65.88 67.06 L 66.34 67.16 L 66.8 67.28 L 67.27 67.39 L 67.73 67.51 L 68.18 67.62 L 68.65 67.73 L 69.11 67.84 L 69.56 67.95 L 70.03 68.07 L 70.48 68.19 L 70.95 68.31 L 71.87 68.57 L 72.33 68.7 L 72.79 68.83 L 73.25 68.98 L 73.72 69.12 L 74.17 69.27 L 74.63 69.41 L 75.1 69.57 L 75.55 69.73 L 76.02 69.9 L 77.41 70.46 L 77.86 70.66 L 78.32 70.85 L 78.78 71.07 L 79.24 71.29 L 79.7 71.51 L 80.16 71.75 L 81.09 72.25 L 81.55 72.5 L 82.01 72.79 L 82.47 73.05 L 82.93 73.35 L 83.38 73.65 L 84.31 74.27 L 84.78 74.61 L 85.24 74.95 L 85.7 75.31 L 86.16 75.68 L 86.62 76.05 L 87.07 76.45 L 87.54 76.85 L 88 77.27 L 88.46 77.72 L 88.93 78.15 L 89.38 78.61 L 89.85 79.09 L 90.31 79.58 L 90.76 80.08 L 91.23 80.61 L 91.68 81.13 L 92.14 81.69 L 92.61 82.26 L 93.07 82.84 L 93.53 83.44 L 93.99 84.06 L 94.45 84.68 L 94.92 85.34 L 95.37 86.01 L 95.83 86.69 L 96.3 87.38 L 96.76 88.09 L 97.22 88.82 L 97.68 89.56 L 98.14 90.32 L 98.6 91.08 L 99.06 91.87 L 99.52 92.67 L 99.97 93.48 L 100.44 94.3 L 101.37 95.96 L 101.83 96.81 L 102.28 97.67 L 102.75 98.52 L 103.21 99.39 L 103.66 100.26 L 105.52 103.76 L 105.97 104.62 L 106.44 105.49 L 106.9 106.36 L 107.35 107.21 L 107.82 108.06 L 108.27 108.9 L 108.73 109.73 L 109.2 110.55 L 109.66 111.35 L 110.13 112.14 L 110.58 112.93 L 111.51 114.44 L 111.96 115.17 L 112.89 116.57 L 113.35 117.24 L 113.82 117.9 L 114.27 118.55 L 114.73 119.17 L 115.19 119.78 L 115.65 120.36 L 116.11 120.93 L 116.57 121.48 L 117.03 122.03 L 117.49 122.56 L 117.96 123.07 L 118.42 123.56 L 118.88 124.05 L 119.34 124.53 L 119.8 125.01 L 120.26 125.47 L 120.73 125.94 L 121.65 126.85 L 122.11 127.31 L 123.03 128.22 L 123.48 128.7 L 123.95 129.17 L 124.87 130.14 L 125.34 130.66 L 125.79 131.18 L 126.25 131.72 L 126.72 132.27 L 127.17 132.84 L 127.63 133.42 L 128.1 134.03 L 128.56 134.65 L 129.03 135.3 L 129.48 135.96 L 129.94 136.64 L 130.41 137.33 L 130.86 138.05 L 131.32 138.78 L 132.25 140.29 L 132.7 141.08 L 133.17 141.88 L 133.63 142.69 L 134.09 143.5 L 134.55 144.32 L 135.01 145.16 L 135.47 145.99 L 137.32 149.31 L 137.78 150.12 L 138.24 150.93 L 138.69 151.72 L 139.16 152.5 L 139.62 153.25 L 140.08 153.98 L 140.55 154.7 L 141.01 155.38 L 141.46 156.03 L 141.93 156.66 L 142.38 157.26 L 142.85 157.81 L 143.31 158.33 L 143.76 158.82 L 144.23 159.27 L 144.69 159.68 L 145.15 160.04 L 145.62 160.36 L 146.07 160.64 L 146.53 160.87 L 146.99 161.06 L 147.45 161.21 L 147.92 161.31 L 148.38 161.35 L 148.84 161.36 L 149.3 161.33 L 149.76 161.23 L 150.22 161.11 L 150.68 160.94 L 151.14 160.73 L 151.6 160.47 L 152.06 160.17 L 152.52 159.83 L 152.99 159.43 L 153.45 159.01 L 153.91 158.55 L 154.37 158.05 L 154.83 157.51 L 155.28 156.94 L 155.75 156.34 L 156.21 155.69 L 156.68 155.01 L 157.14 154.31 L 157.59 153.57 L 158.06 152.8 L 158.52 152 L 158.97 151.18 L 159.44 150.34 L 159.89 149.45 L 160.35 148.56 L 160.82 147.64 L 161.28 146.7 L 161.75 145.74 L 162.21 144.76 L 162.66 143.78 L 163.13 142.78 L 163.58 141.75 L 164.04 140.73 L 164.51 139.69 L 164.96 138.64 L 165.42 137.59 L 165.89 136.52 L 166.35 135.46 L 166.82 134.39 L 167.27 133.34 L 167.73 132.28 L 168.19 131.21 L 168.65 130.15 L 169.11 129.11 L 169.58 128.07 L 170.04 127.05 L 170.49 126.02 L 171.42 124.04 L 171.87 123.07 L 172.34 122.11 L 172.8 121.17 L 173.26 120.24 L 173.72 119.34 L 174.18 118.46 L 174.65 117.61 L 175.11 116.78 L 175.56 115.96 L 176.03 115.17 L 176.48 114.39 L 176.95 113.65 L 177.41 112.93 L 177.87 112.23 L 178.34 111.56 L 178.79 110.9 L 179.25 110.26 L 179.72 109.65 L 180.17 109.06 L 180.63 108.5 L 181.09 107.95 L 181.55 107.42 L 182.02 106.92 L 182.48 106.42 L 182.94 105.94 L 183.41 105.48 L 183.86 105.04 L 184.32 104.61 L 184.78 104.19 L 185.7 103.39 L 186.17 103 L 186.63 102.62 L 187.09 102.26 L 188.01 101.55 L 188.47 101.19 L 188.93 100.84 L 189.38 100.5 L 189.85 100.16 L 190.31 99.82 L 190.78 99.48 L 191.24 99.14 L 191.69 98.81 L 192.16 98.46 L 192.62 98.13 L 193.07 97.77 L 193.54 97.42 L 194.93 96.36 L 195.38 95.98 L 196.31 95.22 L 196.76 94.84 L 197.23 94.44 L 197.69 94.03 L 198.15 93.63 L 198.62 93.21 L 199.07 92.77 L 199.53 92.34 L 199.99 91.9 L 200.45 91.45 L 200.92 90.98 L 201.37 90.52 L 201.83 90.05 L 202.76 89.05 L 203.22 88.57 L 203.68 88.05 L 204.14 87.53 L 204.6 87 L 205.06 86.47 L 205.99 85.4 L 206.91 84.3 L 207.37 83.73 L 207.83 83.17 L 208.28 82.6 L 209.21 81.46 L 209.66 80.88 L 210.14 80.3 L 210.59 79.73 L 211.06 79.15 L 211.52 78.58 L 211.97 78 L 213.83 75.71 L 214.28 75.15 L 214.75 74.59 L 215.2 74.05 L 215.66 73.5 L 216.13 72.96 L 216.58 72.42 L 217.51 71.38 L 217.97 70.88 L 218.43 70.38 L 218.89 69.89 L 219.35 69.41 L 219.82 68.94 L 220.27 68.48 L 220.73 68.05 L 221.2 67.61 L 222.12 66.77 L 222.58 66.38 L 223.04 66 L 223.49 65.62 L 223.96 65.26 L 224.42 64.91 L 224.87 64.58 L 225.34 64.25 L 225.8 63.94 L 226.27 63.65 L 226.73 63.37 L 227.18 63.1 L 227.65 62.83 L 228.11 62.58 L 228.56 62.35 L 229.03 62.13 L 229.96 61.72 L 230.42 61.52 L 230.87 61.34 L 231.34 61.17 L 231.79 61.02 L 232.25 60.86 L 232.72 60.72 L 233.17 60.6 L 233.63 60.47 L 234.1 60.35 L 234.56 60.24 L 235.03 60.14 L 235.48 60.04 L 235.94 59.97 L 236.4 59.88 L 236.86 59.81 L 237.79 59.68 L 238.72 59.57 L 239.17 59.52 L 239.63 59.47 L 240.09 59.43 L 240.55 59.4 L 241.01 59.35 L 241.94 59.31 L 242.39 59.28 L 243.32 59.24 L 243.77 59.21 L 244.24 59.2 L 244.69 59.19 L 245.16 59.17 L 246.55 59.14 L 247 59.13 L 247.46 59.12 L 247.93 59.12 L 248.38 59.11 L 248.85 59.11 L 249.31 59.1 L 250.69 59.1 L 251.15 59.08 L 252.07 59.08 L 252.53 59.07 L 254.83 59.07 L 255.3 59.06 L 261.75 59.06 L 26.24 59.06 Z" fill-rule="nonzero" stroke="rgb(255,255,255)" stroke-opacity="0"/>
                                                  </g>
                                                  <g id="GRID.picPolyline.498.1">
                                                    <polyline id="GRID.picPolyline.498.1.1" points="26.24,59.11 26.7,59.12 27.16,59.12 28.09,59.14 28.55,59.14 29.01,59.15 29.47,59.16 29.93,59.17 30.38,59.19 30.85,59.2 31.32,59.21 31.78,59.24 32.7,59.28 33.16,59.3 33.62,59.32 34.07,59.34 34.54,59.38 35,59.4 35.46,59.44 35.93,59.47 36.38,59.52 37.31,59.6 37.76,59.66 38.23,59.7 39.15,59.81 39.62,59.87 40.07,59.94 40.53,60 40.99,60.08 41.45,60.16 41.92,60.24 42.37,60.33 42.83,60.4 43.3,60.51 44.22,60.7 44.68,60.8 45.14,60.92 45.61,61.03 46.06,61.15 46.99,61.38 47.45,61.51 47.91,61.65 48.37,61.78 48.83,61.92 49.28,62.06 50.21,62.34 50.66,62.49 52.52,63.1 52.97,63.25 53.44,63.41 53.9,63.56 54.35,63.71 54.82,63.87 56.21,64.33 56.66,64.48 57.13,64.63 57.58,64.77 58.04,64.92 58.97,65.2 59.42,65.34 59.89,65.48 60.82,65.74 61.27,65.88 61.73,66 62.19,66.12 62.65,66.25 64.51,66.72 64.96,66.83 65.42,66.95 65.88,67.06 66.34,67.16 66.8,67.28 67.27,67.39 67.73,67.51 68.18,67.62 68.65,67.73 69.11,67.84 69.56,67.95 70.03,68.07 70.48,68.19 70.95,68.31 71.87,68.57 72.33,68.7 72.79,68.83 73.25,68.98 73.72,69.12 74.17,69.27 74.63,69.41 75.1,69.57 75.55,69.73 76.02,69.9 77.41,70.46 77.86,70.66 78.32,70.85 78.78,71.07 79.24,71.29 79.7,71.51 80.16,71.75 81.09,72.25 81.55,72.5 82.01,72.79 82.47,73.05 82.93,73.35 83.38,73.65 84.31,74.27 84.78,74.61 85.24,74.95 85.7,75.31 86.16,75.68 86.62,76.05 87.07,76.45 87.54,76.85 88,77.27 88.46,77.72 88.93,78.15 89.38,78.61 89.85,79.09 90.31,79.58 90.76,80.08 91.23,80.61 91.68,81.13 92.14,81.69 92.61,82.26 93.07,82.84 93.53,83.44 93.99,84.06 94.45,84.68 94.92,85.34 95.37,86.01 95.83,86.69 96.3,87.38 96.76,88.09 97.22,88.82 97.68,89.56 98.14,90.32 98.6,91.08 99.06,91.87 99.52,92.67 99.97,93.48 100.44,94.3 101.37,95.96 101.83,96.81 102.28,97.67 102.75,98.52 103.21,99.39 103.66,100.26 105.52,103.76 105.97,104.62 106.44,105.49 106.9,106.36 107.35,107.21 107.82,108.06 108.27,108.9 108.73,109.73 109.2,110.55 109.66,111.35 110.13,112.14 110.58,112.93 111.51,114.44 111.96,115.17 112.89,116.57 113.35,117.24 113.82,117.9 114.27,118.55 114.73,119.17 115.19,119.78 115.65,120.36 116.11,120.93 116.57,121.48 117.03,122.03 117.49,122.56 117.96,123.07 118.42,123.56 118.88,124.05 119.34,124.53 119.8,125.01 120.26,125.47 120.73,125.94 121.65,126.85 122.11,127.31 123.03,128.22 123.48,128.7 123.95,129.17 124.87,130.14 125.34,130.66 125.79,131.18 126.25,131.72 126.72,132.27 127.17,132.84 127.63,133.42 128.1,134.03 128.56,134.65 129.03,135.3 129.48,135.96 129.94,136.64 130.41,137.33 130.86,138.05 131.32,138.78 132.25,140.29 132.7,141.08 133.17,141.88 133.63,142.69 134.09,143.5 134.55,144.32 135.01,145.16 135.47,145.99 137.32,149.31 137.78,150.12 138.24,150.93 138.69,151.72 139.16,152.5 139.62,153.25 140.08,153.98 140.55,154.7 141.01,155.38 141.46,156.03 141.93,156.66 142.38,157.26 142.85,157.81 143.31,158.33 143.76,158.82 144.23,159.27 144.69,159.68 145.15,160.04 145.62,160.36 146.07,160.64 146.53,160.87 146.99,161.06 147.45,161.21 147.92,161.31 148.38,161.35 148.84,161.36 149.3,161.33 149.76,161.23 150.22,161.11 150.68,160.94 151.14,160.73 151.6,160.47 152.06,160.17 152.52,159.83 152.99,159.43 153.45,159.01 153.91,158.55 154.37,158.05 154.83,157.51 155.28,156.94 155.75,156.34 156.21,155.69 156.68,155.01 157.14,154.31 157.59,153.57 158.06,152.8 158.52,152 158.97,151.18 159.44,150.34 159.89,149.45 160.35,148.56 160.82,147.64 161.28,146.7 161.75,145.74 162.21,144.76 162.66,143.78 163.13,142.78 163.58,141.75 164.04,140.73 164.51,139.69 164.96,138.64 165.42,137.59 165.89,136.52 166.35,135.46 166.82,134.39 167.27,133.34 167.73,132.28 168.19,131.21 168.65,130.15 169.11,129.11 169.58,128.07 170.04,127.05 170.49,126.02 171.42,124.04 171.87,123.07 172.34,122.11 172.8,121.17 173.26,120.24 173.72,119.34 174.18,118.46 174.65,117.61 175.11,116.78 175.56,115.96 176.03,115.17 176.48,114.39 176.95,113.65 177.41,112.93 177.87,112.23 178.34,111.56 178.79,110.9 179.25,110.26 179.72,109.65 180.17,109.06 180.63,108.5 181.09,107.95 181.55,107.42 182.02,106.92 182.48,106.42 182.94,105.94 183.41,105.48 183.86,105.04 184.32,104.61 184.78,104.19 185.7,103.39 186.17,103 186.63,102.62 187.09,102.26 188.01,101.55 188.47,101.19 188.93,100.84 189.38,100.5 189.85,100.16 190.31,99.82 190.78,99.48 191.24,99.14 191.69,98.81 192.16,98.46 192.62,98.13 193.07,97.77 193.54,97.42 194.93,96.36 195.38,95.98 196.31,95.22 196.76,94.84 197.23,94.44 197.69,94.03 198.15,93.63 198.62,93.21 199.07,92.77 199.53,92.34 199.99,91.9 200.45,91.45 200.92,90.98 201.37,90.52 201.83,90.05 202.76,89.05 203.22,88.57 203.68,88.05 204.14,87.53 204.6,87 205.06,86.47 205.99,85.4 206.91,84.3 207.37,83.73 207.83,83.17 208.28,82.6 209.21,81.46 209.66,80.88 210.14,80.3 210.59,79.73 211.06,79.15 211.52,78.58 211.97,78 213.83,75.71 214.28,75.15 214.75,74.59 215.2,74.05 215.66,73.5 216.13,72.96 216.58,72.42 217.51,71.38 217.97,70.88 218.43,70.38 218.89,69.89 219.35,69.41 219.82,68.94 220.27,68.48 220.73,68.05 221.2,67.61 222.12,66.77 222.58,66.38 223.04,66 223.49,65.62 223.96,65.26 224.42,64.91 224.87,64.58 225.34,64.25 225.8,63.94 226.27,63.65 226.73,63.37 227.18,63.1 227.65,62.83 228.11,62.58 228.56,62.35 229.03,62.13 229.96,61.72 230.42,61.52 230.87,61.34 231.34,61.17 231.79,61.02 232.25,60.86 232.72,60.72 233.17,60.6 233.63,60.47 234.1,60.35 234.56,60.24 235.03,60.14 235.48,60.04 235.94,59.97 236.4,59.88 236.86,59.81 237.79,59.68 238.72,59.57 239.17,59.52 239.63,59.47 240.09,59.43 240.55,59.4 241.01,59.35 241.94,59.31 242.39,59.28 243.32,59.24 243.77,59.21 244.24,59.2 244.69,59.19 245.16,59.17 246.55,59.14 247,59.13 247.46,59.12 247.93,59.12 248.38,59.11 248.85,59.11 249.31,59.1 250.69,59.1 251.15,59.08 252.07,59.08 252.53,59.07 254.83,59.07 255.3,59.06 261.75,59.06 26.24,59.06 26.24,59.11" fill="none" fill-opacity="0"/>
                                                  </g>
                                                </g>
                                              </g>
                                            </g>
                                          </g>
                                        </g>
                                      </g>
                                    </g>
                                  </g>
                                </g>
                              </g>
                              <g id="GRID.gTree.511.1" clip-path="url(#import.11.clip18-update-8.1)">
                                <g id="GRID.picComplexPath.508.1" stroke="rgb(255,255,255)" fill="rgb(218,18,89)" stroke-opacity="0" fill-opacity="1">
                                  <g id="GRID.picPath.509.1">
                                    <path id="GRID.picPath.509.1.1" d="M 209.66 59.06 L 255.3 59.06 L 254.83 59.07 L 252.53 59.07 L 252.07 59.08 L 250.24 59.08 L 249.77 59.1 L 249.31 59.1 L 248.85 59.11 L 248.38 59.11 L 247.93 59.12 L 247.46 59.12 L 247 59.13 L 246.55 59.13 L 246.08 59.15 L 244.69 59.18 L 244.24 59.2 L 243.77 59.21 L 243.32 59.24 L 242.39 59.28 L 241.93 59.31 L 241.48 59.33 L 241.01 59.35 L 240.55 59.4 L 240.09 59.43 L 239.63 59.47 L 239.17 59.52 L 238.72 59.57 L 237.79 59.68 L 236.86 59.81 L 236.4 59.88 L 235.94 59.97 L 235.48 60.04 L 235.03 60.14 L 234.56 60.24 L 234.1 60.35 L 233.63 60.47 L 233.17 60.6 L 232.72 60.72 L 232.25 60.86 L 231.79 61.02 L 231.34 61.17 L 230.87 61.34 L 230.42 61.52 L 229.96 61.72 L 229.03 62.13 L 228.56 62.35 L 228.11 62.58 L 227.65 62.83 L 227.18 63.1 L 226.73 63.36 L 225.8 63.94 L 225.34 64.25 L 224.87 64.58 L 224.42 64.91 L 223.96 65.26 L 223.49 65.62 L 223.04 65.99 L 222.58 66.38 L 222.12 66.78 L 221.66 67.19 L 221.2 67.61 L 220.73 68.04 L 220.27 68.49 L 219.82 68.94 L 218.89 69.89 L 218.43 70.38 L 217.97 70.88 L 217.51 71.38 L 216.58 72.42 L 216.13 72.96 L 215.66 73.5 L 215.2 74.05 L 214.75 74.59 L 214.28 75.15 L 213.83 75.71 L 211.97 78 L 211.52 78.58 L 211.06 79.15 L 210.59 79.73 L 210.14 80.3 L 209.66 80.88 L 209.21 81.46 L 208.28 82.6 L 207.92 83.06 L 207.92 59.06 Z" fill-rule="nonzero" stroke="rgb(255,255,255)" stroke-opacity="0"/>
                                  </g>
                                  <g id="GRID.picPolyline.510.1">
                                    <polyline id="GRID.picPolyline.510.1.1" points="209.66,59.06 255.3,59.06 254.83,59.07 252.53,59.07 252.07,59.08 250.24,59.08 249.77,59.1 249.31,59.1 248.85,59.11 248.38,59.11 247.93,59.12 247.46,59.12 247,59.13 246.55,59.13 246.08,59.15 244.69,59.18 244.24,59.2 243.77,59.21 243.32,59.24 242.39,59.28 241.93,59.31 241.48,59.33 241.01,59.35 240.55,59.4 240.09,59.43 239.63,59.47 239.17,59.52 238.72,59.57 237.79,59.68 236.86,59.81 236.4,59.88 235.94,59.97 235.48,60.04 235.03,60.14 234.56,60.24 234.1,60.35 233.63,60.47 233.17,60.6 232.72,60.72 232.25,60.86 231.79,61.02 231.34,61.17 230.87,61.34 230.42,61.52 229.96,61.72 229.03,62.13 228.56,62.35 228.11,62.58 227.65,62.83 227.18,63.1 226.73,63.36 225.8,63.94 225.34,64.25 224.87,64.58 224.42,64.91 223.96,65.26 223.49,65.62 223.04,65.99 222.58,66.38 222.12,66.78 221.66,67.19 221.2,67.61 220.73,68.04 220.27,68.49 219.82,68.94 218.89,69.89 218.43,70.38 217.97,70.88 217.51,71.38 216.58,72.42 216.13,72.96 215.66,73.5 215.2,74.05 214.75,74.59 214.28,75.15 213.83,75.71 211.97,78 211.52,78.58 211.06,79.15 210.59,79.73 210.14,80.3 209.66,80.88 209.21,81.46 208.28,82.6 207.92,83.06 207.92,59.06 209.66,59.06" fill="none" fill-opacity="0"/>
                                  </g>
                                </g>
                              </g>
                              <g id="GRID.gTree.515.1" clip-path="url(#import.11.clip19-update-9.1)">
                                <g id="GRID.picComplexPath.512.1" fill="rgb(255,255,255)" stroke-width="2.76" stroke-linecap="round" stroke-linejoin="miter" stroke="rgb(17,15,13)" stroke-miterlimit="10" stroke-opacity="1" fill-opacity="0">
                                  <g id="GRID.picPath.513.1">
                                    <path id="GRID.picPath.513.1.1" d="M 26.24 59.11 L 26.7 59.12 L 27.16 59.12 L 28.09 59.14 L 28.55 59.14 L 29.01 59.15 L 29.47 59.16 L 29.93 59.17 L 30.38 59.19 L 30.85 59.2 L 31.32 59.21 L 31.78 59.24 L 32.7 59.28 L 33.16 59.3 L 33.62 59.32 L 34.07 59.34 L 34.54 59.38 L 35 59.4 L 35.46 59.44 L 35.93 59.47 L 36.38 59.52 L 37.31 59.6 L 37.76 59.66 L 38.23 59.7 L 39.15 59.81 L 39.62 59.87 L 40.07 59.94 L 40.53 60 L 40.99 60.08 L 41.45 60.16 L 41.92 60.24 L 42.37 60.33 L 42.83 60.4 L 43.3 60.51 L 44.22 60.7 L 44.68 60.8 L 45.14 60.92 L 45.61 61.03 L 46.06 61.15 L 46.99 61.38 L 47.45 61.51 L 47.91 61.65 L 48.37 61.78 L 48.83 61.92 L 49.28 62.06 L 50.21 62.34 L 50.66 62.49 L 52.52 63.1 L 52.97 63.25 L 53.44 63.41 L 53.9 63.56 L 54.35 63.71 L 54.82 63.87 L 56.21 64.33 L 56.66 64.48 L 57.13 64.63 L 57.58 64.77 L 58.04 64.92 L 58.97 65.2 L 59.42 65.34 L 59.89 65.48 L 60.82 65.74 L 61.27 65.88 L 61.73 66 L 62.19 66.12 L 62.65 66.25 L 64.51 66.72 L 64.96 66.83 L 65.42 66.95 L 65.88 67.06 L 66.34 67.16 L 66.8 67.28 L 67.27 67.39 L 67.73 67.51 L 68.18 67.62 L 68.65 67.73 L 69.11 67.84 L 69.56 67.95 L 70.03 68.07 L 70.48 68.19 L 70.95 68.31 L 71.87 68.57 L 72.33 68.7 L 72.79 68.83 L 73.25 68.98 L 73.72 69.12 L 74.17 69.27 L 74.63 69.41 L 75.1 69.57 L 75.55 69.73 L 76.02 69.9 L 77.41 70.46 L 77.86 70.66 L 78.32 70.85 L 78.78 71.07 L 79.24 71.29 L 79.7 71.51 L 80.16 71.75 L 81.09 72.25 L 81.55 72.5 L 82.01 72.79 L 82.47 73.05 L 82.93 73.35 L 83.38 73.65 L 84.31 74.27 L 84.78 74.61 L 85.24 74.95 L 85.7 75.31 L 86.16 75.68 L 86.62 76.05 L 87.07 76.45 L 87.54 76.85 L 88 77.27 L 88.46 77.72 L 88.93 78.15 L 89.38 78.61 L 89.85 79.09 L 90.31 79.58 L 90.76 80.08 L 91.23 80.61 L 91.68 81.13 L 92.14 81.69 L 92.61 82.26 L 93.07 82.84 L 93.53 83.44 L 93.99 84.06 L 94.45 84.68 L 94.92 85.34 L 95.37 86.01 L 95.83 86.69 L 96.3 87.38 L 96.76 88.09 L 97.22 88.82 L 97.68 89.56 L 98.14 90.32 L 98.6 91.08 L 99.06 91.87 L 99.52 92.67 L 99.97 93.48 L 100.44 94.3 L 101.37 95.96 L 101.83 96.81 L 102.28 97.67 L 102.75 98.52 L 103.21 99.39 L 103.66 100.26 L 105.52 103.76 L 105.97 104.62 L 106.44 105.49 L 106.9 106.36 L 107.35 107.21 L 107.82 108.06 L 108.27 108.9 L 108.73 109.73 L 109.2 110.55 L 109.66 111.35 L 110.13 112.14 L 110.58 112.93 L 111.51 114.44 L 111.96 115.17 L 112.89 116.57 L 113.35 117.24 L 113.82 117.9 L 114.27 118.55 L 114.73 119.17 L 115.19 119.78 L 115.65 120.36 L 116.11 120.93 L 116.57 121.48 L 117.03 122.03 L 117.49 122.56 L 117.96 123.07 L 118.42 123.56 L 118.88 124.05 L 119.34 124.53 L 119.8 125.01 L 120.26 125.47 L 120.73 125.94 L 121.65 126.85 L 122.11 127.31 L 123.03 128.22 L 123.48 128.7 L 123.95 129.17 L 124.87 130.14 L 125.34 130.66 L 125.79 131.18 L 126.25 131.72 L 126.72 132.27 L 127.17 132.84 L 127.63 133.42 L 128.1 134.03 L 128.56 134.65 L 129.03 135.3 L 129.48 135.96 L 129.94 136.64 L 130.41 137.33 L 130.86 138.05 L 131.32 138.78 L 132.25 140.29 L 132.7 141.08 L 133.17 141.88 L 133.63 142.69 L 134.09 143.5 L 134.55 144.32 L 135.01 145.16 L 135.47 145.99 L 137.32 149.31 L 137.78 150.12 L 138.24 150.93 L 138.69 151.72 L 139.16 152.5 L 139.62 153.25 L 140.08 153.98 L 140.55 154.7 L 141.01 155.38 L 141.46 156.03 L 141.93 156.66 L 142.38 157.26 L 142.85 157.81 L 143.31 158.33 L 143.76 158.82 L 144.23 159.27 L 144.69 159.68 L 145.15 160.04 L 145.62 160.36 L 146.07 160.64 L 146.53 160.87 L 146.99 161.06 L 147.45 161.21 L 147.92 161.31 L 148.38 161.35 L 148.84 161.36 L 149.3 161.33 L 149.76 161.23 L 150.22 161.11 L 150.68 160.94 L 151.14 160.73 L 151.6 160.47 L 152.06 160.17 L 152.52 159.83 L 152.99 159.43 L 153.45 159.01 L 153.91 158.55 L 154.37 158.05 L 154.83 157.51 L 155.28 156.94 L 155.75 156.34 L 156.21 155.69 L 156.68 155.01 L 157.14 154.31 L 157.59 153.57 L 158.06 152.8 L 158.52 152 L 158.97 151.18 L 159.44 150.34 L 159.89 149.45 L 160.35 148.56 L 160.82 147.64 L 161.28 146.7 L 161.75 145.74 L 162.21 144.76 L 162.66 143.78 L 163.13 142.78 L 163.58 141.75 L 164.04 140.73 L 164.51 139.69 L 164.96 138.64 L 165.42 137.59 L 165.89 136.52 L 166.35 135.46 L 166.82 134.39 L 167.27 133.34 L 167.73 132.28 L 168.19 131.21 L 168.65 130.15 L 169.11 129.11 L 169.58 128.07 L 170.04 127.05 L 170.49 126.02 L 171.42 124.04 L 171.87 123.07 L 172.34 122.11 L 172.8 121.17 L 173.26 120.24 L 173.72 119.34 L 174.18 118.46 L 174.65 117.61 L 175.11 116.78 L 175.56 115.96 L 176.03 115.17 L 176.48 114.39 L 176.95 113.65 L 177.41 112.93 L 177.87 112.23 L 178.34 111.56 L 178.79 110.9 L 179.25 110.26 L 179.72 109.65 L 180.17 109.06 L 180.63 108.5 L 181.09 107.95 L 181.55 107.42 L 182.02 106.92 L 182.48 106.42 L 182.94 105.94 L 183.41 105.48 L 183.86 105.04 L 184.32 104.61 L 184.78 104.19 L 185.7 103.39 L 186.17 103 L 186.63 102.62 L 187.09 102.26 L 188.01 101.55 L 188.47 101.19 L 188.93 100.84 L 189.38 100.5 L 189.85 100.16 L 190.31 99.82 L 190.78 99.48 L 191.24 99.14 L 191.69 98.81 L 192.16 98.46 L 192.62 98.13 L 193.07 97.77 L 193.54 97.42 L 194.93 96.36 L 195.38 95.98 L 196.31 95.22 L 196.76 94.84 L 197.23 94.44 L 197.69 94.03 L 198.15 93.63 L 198.62 93.21 L 199.07 92.77 L 199.53 92.34 L 199.99 91.9 L 200.45 91.45 L 200.92 90.98 L 201.37 90.52 L 201.83 90.05 L 202.76 89.05 L 203.22 88.57 L 203.68 88.05 L 204.14 87.53 L 204.6 87 L 205.06 86.47 L 205.99 85.4 L 206.91 84.3 L 207.37 83.73 L 207.83 83.17 L 208.28 82.6 L 209.21 81.46 L 209.66 80.88 L 210.14 80.3 L 210.59 79.73 L 211.06 79.15 L 211.52 78.58 L 211.97 78 L 213.83 75.71 L 214.28 75.15 L 214.75 74.59 L 215.2 74.05 L 215.66 73.5 L 216.13 72.96 L 216.58 72.42 L 217.51 71.38 L 217.97 70.88 L 218.43 70.38 L 218.89 69.89 L 219.35 69.41 L 219.82 68.94 L 220.27 68.48 L 220.73 68.05 L 221.2 67.61 L 222.12 66.77 L 222.58 66.38 L 223.04 66 L 223.49 65.62 L 223.96 65.26 L 224.42 64.91 L 224.87 64.58 L 225.34 64.25 L 225.8 63.94 L 226.27 63.65 L 226.73 63.37 L 227.18 63.1 L 227.65 62.83 L 228.11 62.58 L 228.56 62.35 L 229.03 62.13 L 229.96 61.72 L 230.42 61.52 L 230.87 61.34 L 231.34 61.17 L 231.79 61.02 L 232.25 60.86 L 232.72 60.72 L 233.17 60.6 L 233.63 60.47 L 234.1 60.35 L 234.56 60.24 L 235.03 60.14 L 235.48 60.04 L 235.94 59.97 L 236.4 59.88 L 236.86 59.81 L 237.79 59.68 L 238.72 59.57 L 239.17 59.52 L 239.63 59.47 L 240.09 59.43 L 240.55 59.4 L 241.01 59.35 L 241.94 59.31 L 242.39 59.28 L 243.32 59.24 L 243.77 59.21 L 244.24 59.2 L 244.69 59.19 L 245.16 59.17 L 246.55 59.14 L 247 59.13 L 247.46 59.12 L 247.93 59.12 L 248.38 59.11 L 248.85 59.11 L 249.31 59.1 L 250.69 59.1 L 251.15 59.08 L 252.07 59.08 L 252.53 59.07 L 254.83 59.07 L 255.3 59.06 L 261.75 59.06 L 26.24 59.06 Z" fill-rule="nonzero" stroke="rgb(255,255,255)" stroke-opacity="0"/>
                                  </g>
                                  <g id="GRID.picPolyline.514.1">
                                    <polyline id="GRID.picPolyline.514.1.1" points="26.24,59.11 26.7,59.12 27.16,59.12 28.09,59.14 28.55,59.14 29.01,59.15 29.47,59.16 29.93,59.17 30.38,59.19 30.85,59.2 31.32,59.21 31.78,59.24 32.7,59.28 33.16,59.3 33.62,59.32 34.07,59.34 34.54,59.38 35,59.4 35.46,59.44 35.93,59.47 36.38,59.52 37.31,59.6 37.76,59.66 38.23,59.7 39.15,59.81 39.62,59.87 40.07,59.94 40.53,60 40.99,60.08 41.45,60.16 41.92,60.24 42.37,60.33 42.83,60.4 43.3,60.51 44.22,60.7 44.68,60.8 45.14,60.92 45.61,61.03 46.06,61.15 46.99,61.38 47.45,61.51 47.91,61.65 48.37,61.78 48.83,61.92 49.28,62.06 50.21,62.34 50.66,62.49 52.52,63.1 52.97,63.25 53.44,63.41 53.9,63.56 54.35,63.71 54.82,63.87 56.21,64.33 56.66,64.48 57.13,64.63 57.58,64.77 58.04,64.92 58.97,65.2 59.42,65.34 59.89,65.48 60.82,65.74 61.27,65.88 61.73,66 62.19,66.12 62.65,66.25 64.51,66.72 64.96,66.83 65.42,66.95 65.88,67.06 66.34,67.16 66.8,67.28 67.27,67.39 67.73,67.51 68.18,67.62 68.65,67.73 69.11,67.84 69.56,67.95 70.03,68.07 70.48,68.19 70.95,68.31 71.87,68.57 72.33,68.7 72.79,68.83 73.25,68.98 73.72,69.12 74.17,69.27 74.63,69.41 75.1,69.57 75.55,69.73 76.02,69.9 77.41,70.46 77.86,70.66 78.32,70.85 78.78,71.07 79.24,71.29 79.7,71.51 80.16,71.75 81.09,72.25 81.55,72.5 82.01,72.79 82.47,73.05 82.93,73.35 83.38,73.65 84.31,74.27 84.78,74.61 85.24,74.95 85.7,75.31 86.16,75.68 86.62,76.05 87.07,76.45 87.54,76.85 88,77.27 88.46,77.72 88.93,78.15 89.38,78.61 89.85,79.09 90.31,79.58 90.76,80.08 91.23,80.61 91.68,81.13 92.14,81.69 92.61,82.26 93.07,82.84 93.53,83.44 93.99,84.06 94.45,84.68 94.92,85.34 95.37,86.01 95.83,86.69 96.3,87.38 96.76,88.09 97.22,88.82 97.68,89.56 98.14,90.32 98.6,91.08 99.06,91.87 99.52,92.67 99.97,93.48 100.44,94.3 101.37,95.96 101.83,96.81 102.28,97.67 102.75,98.52 103.21,99.39 103.66,100.26 105.52,103.76 105.97,104.62 106.44,105.49 106.9,106.36 107.35,107.21 107.82,108.06 108.27,108.9 108.73,109.73 109.2,110.55 109.66,111.35 110.13,112.14 110.58,112.93 111.51,114.44 111.96,115.17 112.89,116.57 113.35,117.24 113.82,117.9 114.27,118.55 114.73,119.17 115.19,119.78 115.65,120.36 116.11,120.93 116.57,121.48 117.03,122.03 117.49,122.56 117.96,123.07 118.42,123.56 118.88,124.05 119.34,124.53 119.8,125.01 120.26,125.47 120.73,125.94 121.65,126.85 122.11,127.31 123.03,128.22 123.48,128.7 123.95,129.17 124.87,130.14 125.34,130.66 125.79,131.18 126.25,131.72 126.72,132.27 127.17,132.84 127.63,133.42 128.1,134.03 128.56,134.65 129.03,135.3 129.48,135.96 129.94,136.64 130.41,137.33 130.86,138.05 131.32,138.78 132.25,140.29 132.7,141.08 133.17,141.88 133.63,142.69 134.09,143.5 134.55,144.32 135.01,145.16 135.47,145.99 137.32,149.31 137.78,150.12 138.24,150.93 138.69,151.72 139.16,152.5 139.62,153.25 140.08,153.98 140.55,154.7 141.01,155.38 141.46,156.03 141.93,156.66 142.38,157.26 142.85,157.81 143.31,158.33 143.76,158.82 144.23,159.27 144.69,159.68 145.15,160.04 145.62,160.36 146.07,160.64 146.53,160.87 146.99,161.06 147.45,161.21 147.92,161.31 148.38,161.35 148.84,161.36 149.3,161.33 149.76,161.23 150.22,161.11 150.68,160.94 151.14,160.73 151.6,160.47 152.06,160.17 152.52,159.83 152.99,159.43 153.45,159.01 153.91,158.55 154.37,158.05 154.83,157.51 155.28,156.94 155.75,156.34 156.21,155.69 156.68,155.01 157.14,154.31 157.59,153.57 158.06,152.8 158.52,152 158.97,151.18 159.44,150.34 159.89,149.45 160.35,148.56 160.82,147.64 161.28,146.7 161.75,145.74 162.21,144.76 162.66,143.78 163.13,142.78 163.58,141.75 164.04,140.73 164.51,139.69 164.96,138.64 165.42,137.59 165.89,136.52 166.35,135.46 166.82,134.39 167.27,133.34 167.73,132.28 168.19,131.21 168.65,130.15 169.11,129.11 169.58,128.07 170.04,127.05 170.49,126.02 171.42,124.04 171.87,123.07 172.34,122.11 172.8,121.17 173.26,120.24 173.72,119.34 174.18,118.46 174.65,117.61 175.11,116.78 175.56,115.96 176.03,115.17 176.48,114.39 176.95,113.65 177.41,112.93 177.87,112.23 178.34,111.56 178.79,110.9 179.25,110.26 179.72,109.65 180.17,109.06 180.63,108.5 181.09,107.95 181.55,107.42 182.02,106.92 182.48,106.42 182.94,105.94 183.41,105.48 183.86,105.04 184.32,104.61 184.78,104.19 185.7,103.39 186.17,103 186.63,102.62 187.09,102.26 188.01,101.55 188.47,101.19 188.93,100.84 189.38,100.5 189.85,100.16 190.31,99.82 190.78,99.48 191.24,99.14 191.69,98.81 192.16,98.46 192.62,98.13 193.07,97.77 193.54,97.42 194.93,96.36 195.38,95.98 196.31,95.22 196.76,94.84 197.23,94.44 197.69,94.03 198.15,93.63 198.62,93.21 199.07,92.77 199.53,92.34 199.99,91.9 200.45,91.45 200.92,90.98 201.37,90.52 201.83,90.05 202.76,89.05 203.22,88.57 203.68,88.05 204.14,87.53 204.6,87 205.06,86.47 205.99,85.4 206.91,84.3 207.37,83.73 207.83,83.17 208.28,82.6 209.21,81.46 209.66,80.88 210.14,80.3 210.59,79.73 211.06,79.15 211.52,78.58 211.97,78 213.83,75.71 214.28,75.15 214.75,74.59 215.2,74.05 215.66,73.5 216.13,72.96 216.58,72.42 217.51,71.38 217.97,70.88 218.43,70.38 218.89,69.89 219.35,69.41 219.82,68.94 220.27,68.48 220.73,68.05 221.2,67.61 222.12,66.77 222.58,66.38 223.04,66 223.49,65.62 223.96,65.26 224.42,64.91 224.87,64.58 225.34,64.25 225.8,63.94 226.27,63.65 226.73,63.37 227.18,63.1 227.65,62.83 228.11,62.58 228.56,62.35 229.03,62.13 229.96,61.72 230.42,61.52 230.87,61.34 231.34,61.17 231.79,61.02 232.25,60.86 232.72,60.72 233.17,60.6 233.63,60.47 234.1,60.35 234.56,60.24 235.03,60.14 235.48,60.04 235.94,59.97 236.4,59.88 236.86,59.81 237.79,59.68 238.72,59.57 239.17,59.52 239.63,59.47 240.09,59.43 240.55,59.4 241.01,59.35 241.94,59.31 242.39,59.28 243.32,59.24 243.77,59.21 244.24,59.2 244.69,59.19 245.16,59.17 246.55,59.14 247,59.13 247.46,59.12 247.93,59.12 248.38,59.11 248.85,59.11 249.31,59.1 250.69,59.1 251.15,59.08 252.07,59.08 252.53,59.07 254.83,59.07 255.3,59.06 261.75,59.06 26.24,59.06 26.24,59.11" fill="none" fill-opacity="0"/>
                                  </g>
                                </g>
                              </g>
                            </g>
                          </g>
                        </g>
                      </g>
                    </g>
                  </g>
                </g>
              </g>
              <g id="GRID.gTree.527.1" clip-path="url(#import.11.clip20.1)">
                <g id="GRID.picComplexPath.524.1" fill="rgb(255,255,255)" stroke-width="5.52" stroke-linecap="butt" stroke-linejoin="miter" stroke="rgb(241,75,65)" stroke-miterlimit="10" stroke-opacity="1" fill-opacity="0">
                  <g id="GRID.picPath.525.1">
                    <path id="GRID.picPath.525.1.1" d="M 207.92 53.95 L 207.92 166.49 Z" fill-rule="nonzero" stroke="rgb(255,255,255)" stroke-opacity="0"/>
                  </g>
                  <g id="GRID.picPolyline.526.1">
                    <polyline id="GRID.picPolyline.526.1.1" points="207.92,53.95 207.92,166.49" fill="none" fill-opacity="0"/>
                  </g>
                </g>
              </g>
              <g id="GRID.gTree.531.1" clip-path="url(#import.11.clip21.1)">
                <g id="GRID.picComplexPath.528.1" fill="rgb(255,255,255)" stroke-width="2.76" stroke-linecap="round" stroke-linejoin="miter" stroke="rgb(17,15,13)" stroke-miterlimit="10" stroke-opacity="1" fill-opacity="0">
                  <g id="GRID.picPath.529.1">
                    <path id="GRID.picPath.529.1.1" d="M 14.47 166.49 L 273.53 166.49 L 273.53 53.95 L 14.47 53.95 Z" fill-rule="nonzero" stroke="rgb(255,255,255)" stroke-opacity="0"/>
                  </g>
                  <g id="GRID.picPolyline.530.1">
                    <polyline id="GRID.picPolyline.530.1.1" points="14.47,166.49 273.53,166.49 273.53,53.95 14.47,53.95 14.47,166.49" fill="none" fill-opacity="0"/>
                  </g>
                </g>
              </g>
            </g>
          </g>
        </g>
      </g>
    </g>
  </g>
</svg>