<?xml version="1.0" encoding="UTF-8"?>
<svg xmlns="http://www.w3.org/2000/svg" xmlns:xlink="http://www.w3.org/1999/xlink" width="94.805pt" height="66.214996pt" viewBox="0 0 94.805 66.214996" version="1.1">
<defs>
<clipPath id="clip1">
  <path d="M 4.261719 26.320312 L 90.371094 26.320312 L 90.371094 64.363281 L 4.261719 64.363281 Z M 4.261719 26.320312 "/>
</clipPath>
<clipPath id="clip3">
  <path d="M 0.261719 0.320312 L 86.371094 0.320312 L 86.371094 38.363281 L 0.261719 38.363281 Z M 0.261719 0.320312 "/>
</clipPath>
<clipPath id="clip5">
  <path d="M 0.261719 0.320312 L 86.371094 0.320312 L 86.371094 38.363281 L 0.261719 38.363281 Z M 0.261719 0.320312 "/>
</clipPath>
<clipPath id="clip7">
  <path d="M 0.261719 0.320312 L 86.371094 0.320312 L 86.371094 38.363281 L 0.261719 38.363281 Z M 0.261719 0.320312 "/>
</clipPath>
<clipPath id="clip9">
  <path d="M 0.761719 0.820312 L 86.039062 0.820312 L 86.039062 37.863281 L 0.761719 37.863281 Z M 0.761719 0.820312 "/>
</clipPath>
<clipPath id="clip11">
  <path d="M 0.761719 0.820312 L 86.039062 0.820312 L 86.039062 37.863281 L 0.761719 37.863281 Z M 0.761719 0.820312 "/>
</clipPath>
<clipPath id="clip13">
  <path d="M 0.761719 0.820312 L 86.039062 0.820312 L 86.039062 37.863281 L 0.761719 37.863281 Z M 0.761719 0.820312 "/>
</clipPath>
<clipPath id="clip15">
  <path d="M 0.761719 0.820312 L 86.039062 0.820312 L 86.039062 37.863281 L 0.761719 37.863281 Z M 0.761719 0.820312 "/>
</clipPath>
<filter id="alpha" filterUnits="objectBoundingBox" x="0%" y="0%" width="100%" height="100%">
  <feColorMatrix type="matrix" in="SourceGraphic" values="0 0 0 0 1 0 0 0 0 1 0 0 0 0 1 0 0 0 1 0"/>
</filter>
<mask id="mask0">
  <g filter="url(#alpha)">
<rect x="0" y="0" width="87" height="38" style="fill:rgb(0%,0%,0%);fill-opacity:0.302002;stroke:none;"/>
  </g>
</mask>
<clipPath id="clip17">
  <path d="M 0.761719 0.820312 L 86.039062 0.820312 L 86.039062 37.863281 L 0.761719 37.863281 Z M 0.761719 0.820312 "/>
</clipPath>
<clipPath id="clip16">
  <rect width="87" height="38"/>
</clipPath>
<g id="surface13" clip-path="url(#clip16)">
<g clip-path="url(#clip17)" clip-rule="nonzero">
<path style=" stroke:none;fill-rule:nonzero;fill:rgb(30.195618%,50.195312%,73.332214%);fill-opacity:1;" d="M 0.761719 37.847656 L 0.929688 37.84375 L 1.09375 37.84375 L 1.429688 37.835938 L 1.597656 37.835938 L 1.765625 37.832031 L 1.929688 37.828125 L 2.097656 37.824219 L 2.261719 37.816406 L 2.429688 37.8125 L 2.601562 37.808594 L 2.765625 37.800781 L 3.101562 37.785156 L 3.265625 37.777344 L 3.433594 37.769531 L 3.597656 37.761719 L 3.765625 37.75 L 3.933594 37.742188 L 4.101562 37.726562 L 4.269531 37.714844 L 4.433594 37.699219 L 4.769531 37.667969 L 4.933594 37.648438 L 5.101562 37.632812 L 5.4375 37.59375 L 5.605469 37.570312 L 5.769531 37.546875 L 5.9375 37.523438 L 6.101562 37.496094 L 6.269531 37.464844 L 6.4375 37.4375 L 6.601562 37.40625 L 6.769531 37.378906 L 6.9375 37.339844 L 7.273438 37.269531 L 7.4375 37.234375 L 7.605469 37.191406 L 7.773438 37.152344 L 7.9375 37.109375 L 8.273438 37.023438 L 8.441406 36.976562 L 8.609375 36.925781 L 8.773438 36.878906 L 8.941406 36.828125 L 9.105469 36.777344 L 9.441406 36.675781 L 9.605469 36.621094 L 10.277344 36.402344 L 10.441406 36.347656 L 10.609375 36.289062 L 10.777344 36.234375 L 10.941406 36.179688 L 11.109375 36.121094 L 11.613281 35.957031 L 11.777344 35.902344 L 11.945312 35.847656 L 12.109375 35.796875 L 12.277344 35.742188 L 12.613281 35.640625 L 12.777344 35.589844 L 12.945312 35.539062 L 13.28125 35.445312 L 13.445312 35.394531 L 13.613281 35.351562 L 13.777344 35.308594 L 13.945312 35.261719 L 14.617188 35.089844 L 14.78125 35.050781 L 14.949219 35.007812 L 15.113281 34.96875 L 15.28125 34.929688 L 15.449219 34.886719 L 15.617188 34.847656 L 15.785156 34.804688 L 15.949219 34.765625 L 16.117188 34.726562 L 16.285156 34.683594 L 16.449219 34.644531 L 16.617188 34.601562 L 16.78125 34.558594 L 16.949219 34.515625 L 17.285156 34.421875 L 17.449219 34.375 L 17.617188 34.328125 L 17.785156 34.273438 L 17.953125 34.222656 L 18.117188 34.167969 L 18.285156 34.117188 L 18.453125 34.058594 L 18.617188 34 L 18.785156 33.9375 L 19.289062 33.738281 L 19.453125 33.664062 L 19.621094 33.59375 L 19.785156 33.515625 L 19.953125 33.4375 L 20.121094 33.355469 L 20.285156 33.269531 L 20.621094 33.089844 L 20.789062 32.996094 L 20.957031 32.894531 L 21.121094 32.796875 L 21.289062 32.691406 L 21.453125 32.582031 L 21.789062 32.355469 L 21.957031 32.234375 L 22.125 32.109375 L 22.292969 31.980469 L 22.457031 31.847656 L 22.625 31.710938 L 22.789062 31.566406 L 22.957031 31.421875 L 23.125 31.269531 L 23.292969 31.109375 L 23.460938 30.953125 L 23.625 30.785156 L 23.792969 30.613281 L 23.960938 30.433594 L 24.125 30.253906 L 24.292969 30.0625 L 24.457031 29.871094 L 24.625 29.671875 L 24.792969 29.464844 L 24.960938 29.253906 L 25.128906 29.035156 L 25.292969 28.8125 L 25.460938 28.585938 L 25.628906 28.347656 L 25.792969 28.105469 L 25.960938 27.859375 L 26.128906 27.609375 L 26.296875 27.351562 L 26.464844 27.089844 L 26.628906 26.820312 L 26.796875 26.546875 L 26.964844 26.269531 L 27.128906 25.984375 L 27.296875 25.695312 L 27.460938 25.402344 L 27.628906 25.105469 L 27.964844 24.503906 L 28.132812 24.195312 L 28.296875 23.882812 L 28.464844 23.574219 L 28.632812 23.261719 L 28.796875 22.945312 L 29.46875 21.679688 L 29.632812 21.367188 L 29.800781 21.050781 L 29.96875 20.738281 L 30.132812 20.429688 L 30.300781 20.121094 L 30.464844 19.816406 L 30.632812 19.515625 L 30.800781 19.21875 L 30.96875 18.929688 L 31.136719 18.644531 L 31.300781 18.359375 L 31.636719 17.8125 L 31.800781 17.546875 L 32.136719 17.039062 L 32.304688 16.796875 L 32.472656 16.558594 L 32.636719 16.324219 L 32.804688 16.097656 L 32.96875 15.878906 L 33.136719 15.667969 L 33.304688 15.460938 L 33.46875 15.261719 L 33.636719 15.0625 L 33.804688 14.871094 L 33.972656 14.6875 L 34.140625 14.507812 L 34.304688 14.332031 L 34.472656 14.15625 L 34.640625 13.984375 L 34.804688 13.816406 L 34.976562 13.648438 L 35.308594 13.316406 L 35.476562 13.152344 L 35.808594 12.820312 L 35.972656 12.648438 L 36.140625 12.476562 L 36.476562 12.125 L 36.644531 11.9375 L 36.808594 11.75 L 36.976562 11.554688 L 37.144531 11.355469 L 37.308594 11.148438 L 37.476562 10.9375 L 37.644531 10.71875 L 37.8125 10.492188 L 37.980469 10.257812 L 38.144531 10.019531 L 38.3125 9.773438 L 38.480469 9.523438 L 38.644531 9.261719 L 38.8125 8.996094 L 39.148438 8.449219 L 39.3125 8.164062 L 39.480469 7.875 L 39.648438 7.582031 L 39.8125 7.289062 L 39.980469 6.992188 L 40.148438 6.6875 L 40.3125 6.386719 L 40.984375 5.183594 L 41.148438 4.890625 L 41.316406 4.597656 L 41.480469 4.3125 L 41.648438 4.03125 L 41.816406 3.757812 L 41.984375 3.492188 L 42.152344 3.234375 L 42.320312 2.988281 L 42.484375 2.75 L 42.652344 2.523438 L 42.816406 2.304688 L 42.984375 2.105469 L 43.152344 1.917969 L 43.316406 1.742188 L 43.484375 1.578125 L 43.652344 1.429688 L 43.820312 1.300781 L 43.988281 1.183594 L 44.152344 1.082031 L 44.320312 1 L 44.484375 0.929688 L 44.652344 0.875 L 44.820312 0.839844 L 44.988281 0.824219 L 45.15625 0.820312 L 45.320312 0.832031 L 45.488281 0.867188 L 45.65625 0.910156 L 45.820312 0.972656 L 45.988281 1.050781 L 46.15625 1.144531 L 46.320312 1.253906 L 46.488281 1.375 L 46.65625 1.519531 L 46.824219 1.671875 L 46.992188 1.839844 L 47.15625 2.019531 L 47.324219 2.214844 L 47.488281 2.421875 L 47.65625 2.640625 L 47.824219 2.875 L 47.992188 3.121094 L 48.160156 3.375 L 48.324219 3.640625 L 48.492188 3.921875 L 48.660156 4.210938 L 48.824219 4.507812 L 48.992188 4.8125 L 49.15625 5.132812 L 49.324219 5.457031 L 49.492188 5.789062 L 49.660156 6.128906 L 49.828125 6.476562 L 49.996094 6.832031 L 50.160156 7.1875 L 50.328125 7.550781 L 50.492188 7.921875 L 50.660156 8.292969 L 50.828125 8.667969 L 50.992188 9.046875 L 51.160156 9.429688 L 51.328125 9.816406 L 51.496094 10.199219 L 51.664062 10.585938 L 51.828125 10.96875 L 51.996094 11.351562 L 52.160156 11.738281 L 52.328125 12.121094 L 52.496094 12.5 L 52.664062 12.875 L 52.832031 13.246094 L 52.996094 13.617188 L 53.332031 14.335938 L 53.496094 14.6875 L 53.664062 15.035156 L 53.832031 15.375 L 53.996094 15.710938 L 54.164062 16.035156 L 54.332031 16.355469 L 54.5 16.664062 L 54.667969 16.964844 L 54.832031 17.261719 L 55 17.546875 L 55.164062 17.828125 L 55.332031 18.097656 L 55.5 18.359375 L 55.667969 18.613281 L 55.835938 18.855469 L 56 19.09375 L 56.167969 19.324219 L 56.335938 19.546875 L 56.5 19.757812 L 56.667969 19.960938 L 56.832031 20.160156 L 57 20.351562 L 57.167969 20.535156 L 57.335938 20.714844 L 57.503906 20.890625 L 57.671875 21.054688 L 57.835938 21.214844 L 58.003906 21.371094 L 58.167969 21.523438 L 58.503906 21.8125 L 58.671875 21.953125 L 58.839844 22.089844 L 59.003906 22.222656 L 59.339844 22.480469 L 59.503906 22.609375 L 59.671875 22.734375 L 59.835938 22.859375 L 60.003906 22.980469 L 60.171875 23.105469 L 60.339844 23.226562 L 60.507812 23.351562 L 60.671875 23.472656 L 60.839844 23.597656 L 61.007812 23.71875 L 61.171875 23.847656 L 61.339844 23.972656 L 61.84375 24.359375 L 62.007812 24.496094 L 62.34375 24.769531 L 62.507812 24.910156 L 62.675781 25.054688 L 62.84375 25.203125 L 63.011719 25.347656 L 63.179688 25.5 L 63.34375 25.65625 L 63.511719 25.8125 L 63.675781 25.972656 L 63.84375 26.136719 L 64.011719 26.304688 L 64.175781 26.472656 L 64.34375 26.644531 L 64.679688 27.003906 L 64.847656 27.179688 L 65.011719 27.367188 L 65.179688 27.554688 L 65.347656 27.746094 L 65.511719 27.9375 L 65.847656 28.328125 L 66.183594 28.726562 L 66.347656 28.929688 L 66.515625 29.132812 L 66.679688 29.339844 L 67.015625 29.753906 L 67.179688 29.964844 L 67.351562 30.171875 L 67.515625 30.378906 L 67.683594 30.589844 L 67.851562 30.796875 L 68.015625 31.007812 L 68.6875 31.835938 L 68.851562 32.039062 L 69.019531 32.242188 L 69.183594 32.4375 L 69.351562 32.636719 L 69.519531 32.832031 L 69.683594 33.027344 L 70.019531 33.402344 L 70.1875 33.585938 L 70.355469 33.765625 L 70.519531 33.941406 L 70.6875 34.117188 L 70.855469 34.285156 L 71.019531 34.453125 L 71.1875 34.609375 L 71.355469 34.769531 L 71.691406 35.074219 L 71.855469 35.214844 L 72.023438 35.351562 L 72.1875 35.488281 L 72.355469 35.621094 L 72.523438 35.746094 L 72.6875 35.867188 L 72.855469 35.984375 L 73.023438 36.097656 L 73.191406 36.203125 L 73.359375 36.304688 L 73.523438 36.402344 L 73.691406 36.5 L 73.859375 36.589844 L 74.023438 36.671875 L 74.191406 36.753906 L 74.527344 36.902344 L 74.695312 36.972656 L 74.859375 37.039062 L 75.027344 37.101562 L 75.191406 37.15625 L 75.359375 37.210938 L 75.527344 37.261719 L 75.691406 37.308594 L 75.859375 37.355469 L 76.027344 37.398438 L 76.195312 37.4375 L 76.363281 37.472656 L 76.527344 37.507812 L 76.695312 37.535156 L 76.859375 37.566406 L 77.027344 37.59375 L 77.363281 37.640625 L 77.699219 37.679688 L 77.863281 37.699219 L 78.03125 37.714844 L 78.195312 37.730469 L 78.363281 37.742188 L 78.53125 37.757812 L 78.867188 37.773438 L 79.03125 37.785156 L 79.367188 37.800781 L 79.53125 37.808594 L 79.699219 37.8125 L 79.863281 37.816406 L 80.03125 37.824219 L 80.535156 37.835938 L 80.699219 37.839844 L 80.867188 37.84375 L 81.035156 37.84375 L 81.199219 37.847656 L 81.367188 37.847656 L 81.535156 37.851562 L 82.035156 37.851562 L 82.203125 37.855469 L 82.535156 37.855469 L 82.703125 37.859375 L 83.535156 37.859375 L 83.703125 37.863281 L 86.039062 37.863281 L 0.761719 37.863281 Z M 0.761719 37.847656 "/>
</g>
</g>
<clipPath id="clip14">
  <rect width="87" height="38"/>
</clipPath>
<g id="surface15" clip-path="url(#clip14)">
<g clip-path="url(#clip15)" clip-rule="nonzero">
<use xlink:href="#surface13" mask="url(#mask0)"/>
</g>
</g>
<clipPath id="clip12">
  <rect width="87" height="38"/>
</clipPath>
<g id="surface17" clip-path="url(#clip12)">
<g clip-path="url(#clip13)" clip-rule="nonzero">
<use xlink:href="#surface15"/>
</g>
</g>
<clipPath id="clip10">
  <rect width="87" height="38"/>
</clipPath>
<g id="surface19" clip-path="url(#clip10)">
<g clip-path="url(#clip11)" clip-rule="nonzero">
<use xlink:href="#surface17"/>
</g>
</g>
<clipPath id="clip18">
  <path d="M 66.546875 29.175781 L 83.703125 29.175781 L 83.703125 37.863281 L 66.546875 37.863281 Z M 66.546875 29.175781 "/>
</clipPath>
<clipPath id="clip19">
  <path d="M 0.261719 0.320312 L 86.371094 0.320312 L 86.371094 38.363281 L 0.261719 38.363281 Z M 0.261719 0.320312 "/>
</clipPath>
<clipPath id="clip8">
  <rect width="87" height="39"/>
</clipPath>
<g id="surface21" clip-path="url(#clip8)">
<g clip-path="url(#clip9)" clip-rule="nonzero">
<use xlink:href="#surface19"/>
</g>
<g clip-path="url(#clip18)" clip-rule="nonzero">
<path style=" stroke:none;fill-rule:nonzero;fill:rgb(85.488892%,7.058716%,34.901428%);fill-opacity:1;" d="M 67.179688 37.863281 L 83.703125 37.863281 L 83.535156 37.859375 L 82.703125 37.859375 L 82.535156 37.855469 L 81.871094 37.855469 L 81.703125 37.851562 L 81.535156 37.851562 L 81.367188 37.847656 L 81.199219 37.847656 L 81.035156 37.84375 L 80.867188 37.84375 L 80.699219 37.839844 L 80.535156 37.839844 L 80.367188 37.832031 L 79.863281 37.820312 L 79.699219 37.8125 L 79.53125 37.808594 L 79.367188 37.800781 L 79.03125 37.785156 L 78.863281 37.773438 L 78.699219 37.765625 L 78.53125 37.757812 L 78.363281 37.742188 L 78.195312 37.730469 L 78.03125 37.714844 L 77.863281 37.699219 L 77.699219 37.679688 L 77.363281 37.640625 L 77.027344 37.59375 L 76.859375 37.566406 L 76.695312 37.535156 L 76.527344 37.507812 L 76.363281 37.472656 L 76.195312 37.4375 L 76.027344 37.398438 L 75.859375 37.355469 L 75.691406 37.308594 L 75.527344 37.261719 L 75.359375 37.210938 L 75.191406 37.15625 L 75.027344 37.101562 L 74.859375 37.039062 L 74.695312 36.972656 L 74.527344 36.902344 L 74.191406 36.753906 L 74.023438 36.671875 L 73.859375 36.589844 L 73.691406 36.5 L 73.523438 36.402344 L 73.359375 36.308594 L 73.023438 36.097656 L 72.855469 35.984375 L 72.6875 35.867188 L 72.523438 35.746094 L 72.355469 35.621094 L 72.1875 35.488281 L 72.023438 35.355469 L 71.855469 35.214844 L 71.691406 35.070312 L 71.523438 34.921875 L 71.355469 34.769531 L 71.1875 34.613281 L 71.019531 34.449219 L 70.855469 34.285156 L 70.519531 33.941406 L 70.355469 33.765625 L 70.1875 33.585938 L 70.019531 33.402344 L 69.683594 33.027344 L 69.519531 32.832031 L 69.351562 32.636719 L 69.183594 32.4375 L 69.019531 32.242188 L 68.851562 32.039062 L 68.6875 31.835938 L 68.015625 31.007812 L 67.851562 30.796875 L 67.683594 30.589844 L 67.515625 30.378906 L 67.351562 30.171875 L 67.179688 29.964844 L 67.015625 29.753906 L 66.679688 29.339844 L 66.546875 29.175781 L 66.546875 37.863281 Z M 67.179688 37.863281 "/>
</g>
<g clip-path="url(#clip19)" clip-rule="nonzero">
<path style="fill:none;stroke-width:1;stroke-linecap:round;stroke-linejoin:miter;stroke:rgb(6.666565%,5.882263%,5.097961%);stroke-opacity:1;stroke-miterlimit:10;" d="M 4.761719 -63.847656 L 4.929688 -63.84375 L 5.09375 -63.84375 L 5.429688 -63.835938 L 5.597656 -63.835938 L 5.765625 -63.832031 L 5.929688 -63.828125 L 6.097656 -63.824219 L 6.261719 -63.816406 L 6.429688 -63.8125 L 6.601562 -63.808594 L 6.765625 -63.800781 L 7.101562 -63.785156 L 7.265625 -63.777344 L 7.433594 -63.769531 L 7.597656 -63.761719 L 7.765625 -63.75 L 7.933594 -63.742188 L 8.101562 -63.726562 L 8.269531 -63.714844 L 8.433594 -63.699219 L 8.769531 -63.667969 L 8.933594 -63.648438 L 9.101562 -63.632812 L 9.4375 -63.59375 L 9.605469 -63.570312 L 9.769531 -63.546875 L 9.9375 -63.523438 L 10.101562 -63.496094 L 10.269531 -63.464844 L 10.4375 -63.4375 L 10.601562 -63.40625 L 10.769531 -63.378906 L 10.9375 -63.339844 L 11.273438 -63.269531 L 11.4375 -63.234375 L 11.605469 -63.191406 L 11.773438 -63.152344 L 11.9375 -63.109375 L 12.273438 -63.023438 L 12.441406 -62.976562 L 12.609375 -62.925781 L 12.773438 -62.878906 L 12.941406 -62.828125 L 13.105469 -62.777344 L 13.441406 -62.675781 L 13.605469 -62.621094 L 14.277344 -62.402344 L 14.441406 -62.347656 L 14.609375 -62.289062 L 14.777344 -62.234375 L 14.941406 -62.179688 L 15.109375 -62.121094 L 15.613281 -61.957031 L 15.777344 -61.902344 L 15.945312 -61.847656 L 16.109375 -61.796875 L 16.277344 -61.742188 L 16.613281 -61.640625 L 16.777344 -61.589844 L 16.945312 -61.539062 L 17.28125 -61.445312 L 17.445312 -61.394531 L 17.613281 -61.351562 L 17.777344 -61.308594 L 17.945312 -61.261719 L 18.617188 -61.089844 L 18.78125 -61.050781 L 18.949219 -61.007812 L 19.113281 -60.96875 L 19.28125 -60.929688 L 19.449219 -60.886719 L 19.617188 -60.847656 L 19.785156 -60.804688 L 19.949219 -60.765625 L 20.117188 -60.726562 L 20.285156 -60.683594 L 20.449219 -60.644531 L 20.617188 -60.601562 L 20.78125 -60.558594 L 20.949219 -60.515625 L 21.285156 -60.421875 L 21.449219 -60.375 L 21.617188 -60.328125 L 21.785156 -60.273438 L 21.953125 -60.222656 L 22.117188 -60.167969 L 22.285156 -60.117188 L 22.453125 -60.058594 L 22.617188 -60 L 22.785156 -59.9375 L 23.289062 -59.738281 L 23.453125 -59.664062 L 23.621094 -59.59375 L 23.785156 -59.515625 L 23.953125 -59.4375 L 24.121094 -59.355469 L 24.285156 -59.269531 L 24.621094 -59.089844 L 24.789062 -58.996094 L 24.957031 -58.894531 L 25.121094 -58.796875 L 25.289062 -58.691406 L 25.453125 -58.582031 L 25.789062 -58.355469 L 25.957031 -58.234375 L 26.125 -58.109375 L 26.292969 -57.980469 L 26.457031 -57.847656 L 26.625 -57.710938 L 26.789062 -57.566406 L 26.957031 -57.421875 L 27.125 -57.269531 L 27.292969 -57.109375 L 27.460938 -56.953125 L 27.625 -56.785156 L 27.792969 -56.613281 L 27.960938 -56.433594 L 28.125 -56.253906 L 28.292969 -56.0625 L 28.457031 -55.871094 L 28.625 -55.671875 L 28.792969 -55.464844 L 28.960938 -55.253906 L 29.128906 -55.035156 L 29.292969 -54.8125 L 29.460938 -54.585938 L 29.628906 -54.347656 L 29.792969 -54.105469 L 29.960938 -53.859375 L 30.128906 -53.609375 L 30.296875 -53.351562 L 30.464844 -53.089844 L 30.628906 -52.820312 L 30.796875 -52.546875 L 30.964844 -52.269531 L 31.128906 -51.984375 L 31.296875 -51.695312 L 31.460938 -51.402344 L 31.628906 -51.105469 L 31.964844 -50.503906 L 32.132812 -50.195312 L 32.296875 -49.882812 L 32.464844 -49.574219 L 32.632812 -49.261719 L 32.796875 -48.945312 L 33.46875 -47.679688 L 33.632812 -47.367188 L 33.800781 -47.050781 L 33.96875 -46.738281 L 34.132812 -46.429688 L 34.300781 -46.121094 L 34.464844 -45.816406 L 34.632812 -45.515625 L 34.800781 -45.21875 L 34.96875 -44.929688 L 35.136719 -44.644531 L 35.300781 -44.359375 L 35.636719 -43.8125 L 35.800781 -43.546875 L 36.136719 -43.039062 L 36.304688 -42.796875 L 36.472656 -42.558594 L 36.636719 -42.324219 L 36.804688 -42.097656 L 36.96875 -41.878906 L 37.136719 -41.667969 L 37.304688 -41.460938 L 37.46875 -41.261719 L 37.636719 -41.0625 L 37.804688 -40.871094 L 37.972656 -40.6875 L 38.140625 -40.507812 L 38.304688 -40.332031 L 38.472656 -40.15625 L 38.640625 -39.984375 L 38.804688 -39.816406 L 38.976562 -39.648438 L 39.308594 -39.316406 L 39.476562 -39.152344 L 39.808594 -38.820312 L 39.972656 -38.648438 L 40.140625 -38.476562 L 40.476562 -38.125 L 40.644531 -37.9375 L 40.808594 -37.75 L 40.976562 -37.554688 L 41.144531 -37.355469 L 41.308594 -37.148438 L 41.476562 -36.9375 L 41.644531 -36.71875 L 41.8125 -36.492188 L 41.980469 -36.257812 L 42.144531 -36.019531 L 42.3125 -35.773438 L 42.480469 -35.523438 L 42.644531 -35.261719 L 42.8125 -34.996094 L 43.148438 -34.449219 L 43.3125 -34.164062 L 43.480469 -33.875 L 43.648438 -33.582031 L 43.8125 -33.289062 L 43.980469 -32.992188 L 44.148438 -32.6875 L 44.3125 -32.386719 L 44.984375 -31.183594 L 45.148438 -30.890625 L 45.316406 -30.597656 L 45.480469 -30.3125 L 45.648438 -30.03125 L 45.816406 -29.757812 L 45.984375 -29.492188 L 46.152344 -29.234375 L 46.320312 -28.988281 L 46.484375 -28.75 L 46.652344 -28.523438 L 46.816406 -28.304688 L 46.984375 -28.105469 L 47.152344 -27.917969 L 47.316406 -27.742188 L 47.484375 -27.578125 L 47.652344 -27.429688 L 47.820312 -27.300781 L 47.988281 -27.183594 L 48.152344 -27.082031 L 48.320312 -27 L 48.484375 -26.929688 L 48.652344 -26.875 L 48.820312 -26.839844 L 48.988281 -26.824219 L 49.15625 -26.820312 L 49.320312 -26.832031 L 49.488281 -26.867188 L 49.65625 -26.910156 L 49.820312 -26.972656 L 49.988281 -27.050781 L 50.15625 -27.144531 L 50.320312 -27.253906 L 50.488281 -27.375 L 50.65625 -27.519531 L 50.824219 -27.671875 L 50.992188 -27.839844 L 51.15625 -28.019531 L 51.324219 -28.214844 L 51.488281 -28.421875 L 51.65625 -28.640625 L 51.824219 -28.875 L 51.992188 -29.121094 L 52.160156 -29.375 L 52.324219 -29.640625 L 52.492188 -29.921875 L 52.660156 -30.210938 L 52.824219 -30.507812 L 52.992188 -30.8125 L 53.15625 -31.132812 L 53.324219 -31.457031 L 53.492188 -31.789062 L 53.660156 -32.128906 L 53.828125 -32.476562 L 53.996094 -32.832031 L 54.160156 -33.1875 L 54.328125 -33.550781 L 54.492188 -33.921875 L 54.660156 -34.292969 L 54.828125 -34.667969 L 54.992188 -35.046875 L 55.160156 -35.429688 L 55.328125 -35.816406 L 55.496094 -36.199219 L 55.664062 -36.585938 L 55.828125 -36.96875 L 55.996094 -37.351562 L 56.160156 -37.738281 L 56.328125 -38.121094 L 56.496094 -38.5 L 56.664062 -38.875 L 56.832031 -39.246094 L 56.996094 -39.617188 L 57.332031 -40.335938 L 57.496094 -40.6875 L 57.664062 -41.035156 L 57.832031 -41.375 L 57.996094 -41.710938 L 58.164062 -42.035156 L 58.332031 -42.355469 L 58.5 -42.664062 L 58.667969 -42.964844 L 58.832031 -43.261719 L 59 -43.546875 L 59.164062 -43.828125 L 59.332031 -44.097656 L 59.5 -44.359375 L 59.667969 -44.613281 L 59.835938 -44.855469 L 60 -45.09375 L 60.167969 -45.324219 L 60.335938 -45.546875 L 60.5 -45.757812 L 60.667969 -45.960938 L 60.832031 -46.160156 L 61 -46.351562 L 61.167969 -46.535156 L 61.335938 -46.714844 L 61.503906 -46.890625 L 61.671875 -47.054688 L 61.835938 -47.214844 L 62.003906 -47.371094 L 62.167969 -47.523438 L 62.503906 -47.8125 L 62.671875 -47.953125 L 62.839844 -48.089844 L 63.003906 -48.222656 L 63.339844 -48.480469 L 63.503906 -48.609375 L 63.671875 -48.734375 L 63.835938 -48.859375 L 64.003906 -48.980469 L 64.171875 -49.105469 L 64.339844 -49.226562 L 64.507812 -49.351562 L 64.671875 -49.472656 L 64.839844 -49.597656 L 65.007812 -49.71875 L 65.171875 -49.847656 L 65.339844 -49.972656 L 65.84375 -50.359375 L 66.007812 -50.496094 L 66.34375 -50.769531 L 66.507812 -50.910156 L 66.675781 -51.054688 L 66.84375 -51.203125 L 67.011719 -51.347656 L 67.179688 -51.5 L 67.34375 -51.65625 L 67.511719 -51.8125 L 67.675781 -51.972656 L 67.84375 -52.136719 L 68.011719 -52.304688 L 68.175781 -52.472656 L 68.34375 -52.644531 L 68.679688 -53.003906 L 68.847656 -53.179688 L 69.011719 -53.367188 L 69.179688 -53.554688 L 69.347656 -53.746094 L 69.511719 -53.9375 L 69.847656 -54.328125 L 70.183594 -54.726562 L 70.347656 -54.929688 L 70.515625 -55.132812 L 70.679688 -55.339844 L 71.015625 -55.753906 L 71.179688 -55.964844 L 71.351562 -56.171875 L 71.515625 -56.378906 L 71.683594 -56.589844 L 71.851562 -56.796875 L 72.015625 -57.007812 L 72.6875 -57.835938 L 72.851562 -58.039062 L 73.019531 -58.242188 L 73.183594 -58.4375 L 73.351562 -58.636719 L 73.519531 -58.832031 L 73.683594 -59.027344 L 74.019531 -59.402344 L 74.1875 -59.585938 L 74.355469 -59.765625 L 74.519531 -59.941406 L 74.6875 -60.117188 L 74.855469 -60.285156 L 75.019531 -60.453125 L 75.1875 -60.609375 L 75.355469 -60.769531 L 75.691406 -61.074219 L 75.855469 -61.214844 L 76.023438 -61.351562 L 76.1875 -61.488281 L 76.355469 -61.621094 L 76.523438 -61.746094 L 76.6875 -61.867188 L 76.855469 -61.984375 L 77.023438 -62.097656 L 77.191406 -62.203125 L 77.359375 -62.304688 L 77.523438 -62.402344 L 77.691406 -62.5 L 77.859375 -62.589844 L 78.023438 -62.671875 L 78.191406 -62.753906 L 78.527344 -62.902344 L 78.695312 -62.972656 L 78.859375 -63.039062 L 79.027344 -63.101562 L 79.191406 -63.15625 L 79.359375 -63.210938 L 79.527344 -63.261719 L 79.691406 -63.308594 L 79.859375 -63.355469 L 80.027344 -63.398438 L 80.195312 -63.4375 L 80.363281 -63.472656 L 80.527344 -63.507812 L 80.695312 -63.535156 L 80.859375 -63.566406 L 81.027344 -63.59375 L 81.363281 -63.640625 L 81.699219 -63.679688 L 81.863281 -63.699219 L 82.03125 -63.714844 L 82.195312 -63.730469 L 82.363281 -63.742188 L 82.53125 -63.757812 L 82.867188 -63.773438 L 83.03125 -63.785156 L 83.367188 -63.800781 L 83.53125 -63.808594 L 83.699219 -63.8125 L 83.863281 -63.816406 L 84.03125 -63.824219 L 84.535156 -63.835938 L 84.699219 -63.839844 L 84.867188 -63.84375 L 85.035156 -63.84375 L 85.199219 -63.847656 L 85.367188 -63.847656 L 85.535156 -63.851562 L 86.035156 -63.851562 L 86.203125 -63.855469 L 86.535156 -63.855469 L 86.703125 -63.859375 L 87.535156 -63.859375 L 87.703125 -63.863281 L 90.039062 -63.863281 L 4.761719 -63.863281 Z M 4.761719 -63.847656 " transform="matrix(1,0,0,-1,-4,-26)"/>
</g>
</g>
<clipPath id="clip6">
  <rect width="87" height="39"/>
</clipPath>
<g id="surface23" clip-path="url(#clip6)">
<g clip-path="url(#clip7)" clip-rule="nonzero">
<use xlink:href="#surface21"/>
</g>
</g>
<clipPath id="clip4">
  <rect width="87" height="39"/>
</clipPath>
<g id="surface25" clip-path="url(#clip4)">
<g clip-path="url(#clip5)" clip-rule="nonzero">
<use xlink:href="#surface23"/>
</g>
</g>
<clipPath id="clip2">
  <rect width="87" height="39"/>
</clipPath>
<g id="surface4" clip-path="url(#clip2)">
<g clip-path="url(#clip3)" clip-rule="nonzero">
<use xlink:href="#surface25"/>
</g>
</g>
<clipPath id="clip20">
  <path d="M 69 23 L 72 23 L 72 66.214844 L 69 66.214844 Z M 69 23 "/>
</clipPath>
<clipPath id="clip21">
  <path d="M 0 24 L 94.804688 24 L 94.804688 66.214844 L 0 66.214844 Z M 0 24 "/>
</clipPath>
</defs>
<g id="surface1">
<path style="fill-rule:nonzero;fill:rgb(100%,100%,100%);fill-opacity:1;stroke-width:1;stroke-linecap:butt;stroke-linejoin:miter;stroke:rgb(13.725281%,12.156677%,12.548828%);stroke-opacity:1;stroke-miterlimit:10;" d="M 82.546875 -0.5 L 86.507812 -0.5 L 86.507812 -21.195312 L 82.546875 -21.195312 Z M 82.546875 -0.5 " transform="matrix(1,0,0,-1,0,0)"/>
<g clip-path="url(#clip1)" clip-rule="nonzero">
<use xlink:href="#surface4" transform="matrix(1,0,0,1,4,26)"/>
</g>
<g clip-path="url(#clip20)" clip-rule="nonzero">
<path style="fill:none;stroke-width:2;stroke-linecap:butt;stroke-linejoin:miter;stroke:rgb(94.508362%,29.411316%,25.489807%);stroke-opacity:1;stroke-miterlimit:10;" d="M 70.546875 -65.714844 L 70.546875 -24.964844 " transform="matrix(1,0,0,-1,0,0)"/>
</g>
<g clip-path="url(#clip21)" clip-rule="nonzero">
<path style="fill:none;stroke-width:1;stroke-linecap:round;stroke-linejoin:miter;stroke:rgb(6.666565%,5.882263%,5.097961%);stroke-opacity:1;stroke-miterlimit:10;" d="M 0.5 -24.964844 L 94.304688 -24.964844 L 94.304688 -65.714844 L 0.5 -65.714844 Z M 0.5 -24.964844 " transform="matrix(1,0,0,-1,0,0)"/>
</g>
</g>
</svg>
