<?xml version="1.0" encoding="ASCII"?>
<svg xmlns="http://www.w3.org/2000/svg" xmlns:xlink="http://www.w3.org/1999/xlink" width="288px" height="288px" viewBox="0 0 288 288" version="1.1">
  <metadata xmlns:gridsvg="http://www.stat.auckland.ac.nz/~paul/R/gridSVG/">
    <gridsvg:generator name="gridSVG" version="1.7-1" time="2020-04-14 21:13:58"/>
    <gridsvg:argument name="name" value="Rlogo-gridSVG.svg"/>
    <gridsvg:argument name="exportCoords" value="none"/>
    <gridsvg:argument name="exportMappings" value="none"/>
    <gridsvg:argument name="exportJS" value="none"/>
    <gridsvg:argument name="res" value="96"/>
    <gridsvg:argument name="prefix" value=""/>
    <gridsvg:argument name="addClasses" value="FALSE"/>
    <gridsvg:argument name="indent" value="TRUE"/>
    <gridsvg:argument name="htmlWrapper" value="FALSE"/>
    <gridsvg:argument name="usePaths" value="vpPaths"/>
    <gridsvg:argument name="uniqueNames" value="TRUE"/>
    <gridsvg:separator name="id.sep" value="."/>
    <gridsvg:separator name="gPath.sep" value="::"/>
    <gridsvg:separator name="vpPath.sep" value="::"/>
  </metadata>
  <g transform="translate(0, 288) scale(1, -1)">
    <g id="gridSVG" fill="none" stroke="rgb(0,0,0)" stroke-dasharray="none" stroke-width="1" font-size="16" font-family="Helvetica, Arial, FreeSans, Liberation Sans, Nimbus Sans L, sans-serif" opacity="1" stroke-linecap="round" stroke-linejoin="round" stroke-miterlimit="10" stroke-opacity="1" fill-opacity="0" font-weight="normal" font-style="normal">
      <defs>
        <linearGradient id="import.7.linear0.1" x1="13.42" x2="274.19" y1="244.35" y2="69.71" gradientUnits="userSpaceOnUse" spreadMethod="pad">
          <stop offset="0" stop-color="rgb(203,206,208)" stop-opacity="1"/>
          <stop offset="1" stop-color="rgb(132,131,139)" stop-opacity="1"/>
        </linearGradient>
        <linearGradient id="import.7.linear1.1" x1="120.86" x2="264.78" y1="190.13" y2="43.26" gradientUnits="userSpaceOnUse" spreadMethod="pad">
          <stop offset="0" stop-color="rgb(39,109,195)" stop-opacity="1"/>
          <stop offset="1" stop-color="rgb(22,92,170)" stop-opacity="1"/>
        </linearGradient>
      </defs>
      <g id="GRID.PictureGrob.256.1">
        <g id="picture.shape.1">
          <defs>
            <clipPath id="picture.shape::picture.scale.1.clipPath">
              <rect x="0" y="32.42" width="288" height="223.16" fill="none" stroke="none"/>
            </clipPath>
          </defs>
          <g id="picture.shape::picture.scale.1" clip-path="url(#picture.shape::picture.scale.1.clipPath)">
            <g id="import.7.GRID.gTree.272.1">
              <g id="GRID.gTree.271.1">
                <g id="GRID.picComplexPath.265.1" stroke="rgb(255,255,255)" stroke-opacity="0" fill="url(#import.7.linear0.1)" fill-opacity="1">
                  <g id="GRID.picPath.266.1">
                    <path id="GRID.picPath.266.1.1" d="M 143.8 69.71 L 143.8 69.71 L 139.37 69.76 L 134.97 69.92 L 130.59 70.18 L 126.24 70.55 L 121.9 71.03 L 117.58 71.61 L 113.28 72.3 L 108.99 73.1 L 104.73 74.01 L 100.48 75.02 L 96.27 76.15 L 92.08 77.38 L 87.94 78.72 L 83.83 80.17 L 79.78 81.73 L 75.79 83.39 L 71.86 85.15 L 68 87 L 64.23 88.96 L 60.54 91 L 56.96 93.13 L 53.47 95.35 L 50.11 97.64 L 46.86 100.01 L 43.74 102.44 L 40.75 104.94 L 37.9 107.49 L 35.19 110.1 L 32.64 112.75 L 30.24 115.45 L 27.99 118.18 L 25.9 120.94 L 23.97 123.73 L 22.21 126.54 L 20.61 129.38 L 19.17 132.22 L 17.89 135.09 L 16.77 137.96 L 15.82 140.85 L 15.03 143.75 L 14.39 146.66 L 13.92 149.59 L 13.6 152.52 L 13.44 155.48 L 13.42 157.03 L 13.42 157.03 L 13.5 160 L 13.73 162.94 L 14.13 165.88 L 14.68 168.79 L 15.39 171.7 L 16.26 174.59 L 17.29 177.47 L 18.48 180.34 L 19.83 183.2 L 21.35 186.04 L 23.03 188.87 L 24.88 191.67 L 26.88 194.44 L 29.04 197.19 L 31.37 199.91 L 33.84 202.58 L 36.47 205.21 L 39.24 207.79 L 42.16 210.32 L 45.21 212.79 L 48.4 215.19 L 51.7 217.52 L 55.13 219.78 L 58.66 221.96 L 62.3 224.05 L 66.03 226.05 L 69.84 227.96 L 73.73 229.77 L 77.69 231.48 L 81.72 233.09 L 85.79 234.59 L 89.92 235.99 L 94.08 237.28 L 98.28 238.46 L 102.51 239.54 L 106.76 240.5 L 111.04 241.36 L 115.33 242.1 L 119.65 242.74 L 123.97 243.27 L 128.32 243.7 L 132.69 244.02 L 137.07 244.23 L 141.49 244.34 L 143.8 244.35 L 143.8 244.35 L 148.23 244.3 L 152.63 244.14 L 157.01 243.88 L 161.37 243.51 L 165.7 243.03 L 170.02 242.45 L 174.33 241.76 L 178.61 240.96 L 182.88 240.05 L 187.12 239.04 L 191.34 237.91 L 195.52 236.68 L 199.67 235.34 L 203.77 233.89 L 207.82 232.33 L 211.82 230.67 L 215.74 228.91 L 219.6 227.06 L 223.37 225.1 L 227.06 223.06 L 230.65 220.93 L 234.13 218.71 L 237.5 216.42 L 240.75 214.05 L 243.87 211.62 L 246.86 209.12 L 249.71 206.56 L 252.41 203.96 L 254.97 201.31 L 257.37 198.61 L 259.62 195.88 L 261.7 193.12 L 263.63 190.33 L 265.4 187.52 L 267 184.68 L 268.44 181.84 L 269.72 178.97 L 270.83 176.1 L 271.78 173.21 L 272.58 170.31 L 273.21 167.4 L 273.69 164.47 L 274 161.54 L 274.16 158.58 L 274.19 157.03 L 274.19 157.03 L 274.11 154.06 L 273.87 151.12 L 273.48 148.18 L 272.93 145.27 L 272.22 142.36 L 271.35 139.47 L 270.32 136.59 L 269.13 133.72 L 267.77 130.86 L 266.25 128.02 L 264.57 125.19 L 262.73 122.39 L 260.72 119.62 L 258.56 116.87 L 256.24 114.15 L 253.76 111.48 L 251.13 108.85 L 248.36 106.27 L 245.44 103.74 L 242.39 101.27 L 239.21 98.87 L 235.9 96.54 L 232.48 94.28 L 228.94 92.1 L 225.31 90.01 L 221.58 88.01 L 217.76 86.1 L 213.87 84.29 L 209.91 82.58 L 205.89 80.97 L 201.81 79.47 L 197.69 78.07 L 193.52 76.78 L 189.32 75.6 L 185.09 74.52 L 180.84 73.56 L 176.56 72.7 L 172.27 71.95 L 167.96 71.32 L 163.63 70.79 L 159.28 70.36 L 154.92 70.04 L 150.53 69.83 L 146.12 69.72 L 143.8 69.71 Z M 163.76 210.21 L 163.76 210.21 L 159.87 210.16 L 156.01 210.02 L 152.17 209.78 L 148.35 209.44 L 144.55 209.01 L 140.77 208.47 L 137 207.84 L 133.25 207.11 L 129.53 206.28 L 125.84 205.35 L 122.19 204.32 L 118.57 203.19 L 115.01 201.96 L 111.51 200.64 L 108.07 199.23 L 104.71 197.73 L 101.44 196.15 L 98.26 194.48 L 95.19 192.74 L 92.24 190.92 L 89.4 189.04 L 86.7 187.1 L 84.14 185.1 L 81.72 183.05 L 79.45 180.96 L 77.34 178.83 L 75.38 176.67 L 73.59 174.48 L 71.96 172.27 L 70.49 170.04 L 69.19 167.79 L 68.06 165.53 L 67.09 163.25 L 66.28 160.97 L 65.64 158.67 L 65.16 156.37 L 64.84 154.05 L 64.68 151.71 L 64.66 150.51 L 64.66 150.51 L 64.74 148.17 L 64.98 145.84 L 65.38 143.53 L 65.94 141.23 L 66.66 138.94 L 67.54 136.66 L 68.59 134.4 L 69.81 132.14 L 71.19 129.9 L 72.74 127.67 L 74.45 125.47 L 76.32 123.3 L 78.35 121.15 L 80.54 119.04 L 82.88 116.97 L 85.38 114.95 L 88.01 112.98 L 90.77 111.06 L 93.67 109.21 L 96.68 107.43 L 99.81 105.73 L 103.03 104.1 L 106.35 102.55 L 109.74 101.1 L 113.21 99.73 L 116.75 98.46 L 120.34 97.28 L 123.97 96.2 L 127.64 95.22 L 131.35 94.33 L 135.08 93.55 L 138.84 92.87 L 142.61 92.28 L 146.41 91.8 L 150.22 91.41 L 154.04 91.12 L 157.89 90.93 L 161.77 90.83 L 163.76 90.82 L 163.76 90.82 L 167.6 90.85 L 171.39 90.95 L 175.15 91.12 L 178.88 91.35 L 182.58 91.66 L 186.25 92.05 L 189.89 92.52 L 193.51 93.06 L 197.08 93.69 L 200.62 94.41 L 204.12 95.21 L 207.57 96.11 L 210.96 97.09 L 214.3 98.17 L 217.56 99.33 L 220.74 100.59 L 223.83 101.95 L 226.84 103.39 L 229.73 104.92 L 232.52 106.54 L 235.19 108.24 L 237.74 110.03 L 240.15 111.89 L 242.43 113.84 L 244.57 115.85 L 246.57 117.94 L 248.41 120.09 L 250.11 122.31 L 251.66 124.59 L 253.05 126.93 L 254.29 129.33 L 255.38 131.78 L 256.32 134.29 L 257.12 136.85 L 257.76 139.47 L 258.26 142.15 L 258.61 144.9 L 258.82 147.71 L 258.88 150.51 L 258.88 150.51 L 258.81 153.4 L 258.6 156.21 L 258.24 158.95 L 257.74 161.63 L 257.1 164.25 L 256.3 166.81 L 255.36 169.32 L 254.26 171.77 L 253.01 174.16 L 251.62 176.5 L 250.07 178.78 L 248.36 180.99 L 246.51 183.14 L 244.51 185.23 L 242.37 187.24 L 240.09 189.18 L 237.67 191.05 L 235.12 192.83 L 232.45 194.53 L 229.65 196.15 L 226.75 197.68 L 223.75 199.12 L 220.65 200.47 L 217.47 201.73 L 214.2 202.89 L 210.87 203.97 L 207.47 204.95 L 204.02 205.84 L 200.52 206.64 L 196.98 207.35 L 193.4 207.98 L 189.79 208.53 L 186.15 208.99 L 182.48 209.37 L 178.78 209.68 L 175.05 209.92 L 171.29 210.08 L 167.49 210.18 L 163.76 210.21 Z" fill-rule="evenodd" stroke="rgb(255,255,255)" stroke-opacity="0"/>
                  </g>
                  <g id="GRID.picPolyline.267.1">
                    <polyline id="GRID.picPolyline.267.1.1" points="143.8,69.71 143.8,69.71 139.37,69.76 134.97,69.92 130.59,70.18 126.24,70.55 121.9,71.03 117.58,71.61 113.28,72.3 108.99,73.1 104.73,74.01 100.48,75.02 96.27,76.15 92.08,77.38 87.94,78.72 83.83,80.17 79.78,81.73 75.79,83.39 71.86,85.15 68,87 64.23,88.96 60.54,91 56.96,93.13 53.47,95.35 50.11,97.64 46.86,100.01 43.74,102.44 40.75,104.94 37.9,107.49 35.19,110.1 32.64,112.75 30.24,115.45 27.99,118.18 25.9,120.94 23.97,123.73 22.21,126.54 20.61,129.38 19.17,132.22 17.89,135.09 16.77,137.96 15.82,140.85 15.03,143.75 14.39,146.66 13.92,149.59 13.6,152.52 13.44,155.48 13.42,157.03 13.42,157.03 13.5,160 13.73,162.94 14.13,165.88 14.68,168.79 15.39,171.7 16.26,174.59 17.29,177.47 18.48,180.34 19.83,183.2 21.35,186.04 23.03,188.87 24.88,191.67 26.88,194.44 29.04,197.19 31.37,199.91 33.84,202.58 36.47,205.21 39.24,207.79 42.16,210.32 45.21,212.79 48.4,215.19 51.7,217.52 55.13,219.78 58.66,221.96 62.3,224.05 66.03,226.05 69.84,227.96 73.73,229.77 77.69,231.48 81.72,233.09 85.79,234.59 89.92,235.99 94.08,237.28 98.28,238.46 102.51,239.54 106.76,240.5 111.04,241.36 115.33,242.1 119.65,242.74 123.97,243.27 128.32,243.7 132.69,244.02 137.07,244.23 141.49,244.34 143.8,244.35 143.8,244.35 148.23,244.3 152.63,244.14 157.01,243.88 161.37,243.51 165.7,243.03 170.02,242.45 174.33,241.76 178.61,240.96 182.88,240.05 187.12,239.04 191.34,237.91 195.52,236.68 199.67,235.34 203.77,233.89 207.82,232.33 211.82,230.67 215.74,228.91 219.6,227.06 223.37,225.1 227.06,223.06 230.65,220.93 234.13,218.71 237.5,216.42 240.75,214.05 243.87,211.62 246.86,209.12 249.71,206.56 252.41,203.96 254.97,201.31 257.37,198.61 259.62,195.88 261.7,193.12 263.63,190.33 265.4,187.52 267,184.68 268.44,181.84 269.72,178.97 270.83,176.1 271.78,173.21 272.58,170.31 273.21,167.4 273.69,164.47 274,161.54 274.16,158.58 274.19,157.03 274.19,157.03 274.11,154.06 273.87,151.12 273.48,148.18 272.93,145.27 272.22,142.36 271.35,139.47 270.32,136.59 269.13,133.72 267.77,130.86 266.25,128.02 264.57,125.19 262.73,122.39 260.72,119.62 258.56,116.87 256.24,114.15 253.76,111.48 251.13,108.85 248.36,106.27 245.44,103.74 242.39,101.27 239.21,98.87 235.9,96.54 232.48,94.28 228.94,92.1 225.31,90.01 221.58,88.01 217.76,86.1 213.87,84.29 209.91,82.58 205.89,80.97 201.81,79.47 197.69,78.07 193.52,76.78 189.32,75.6 185.09,74.52 180.84,73.56 176.56,72.7 172.27,71.95 167.96,71.32 163.63,70.79 159.28,70.36 154.92,70.04 150.53,69.83 146.12,69.72 143.8,69.71 143.8,69.71" fill="none" fill-opacity="0"/>
                    <polyline id="GRID.picPolyline.267.1.2" points="163.76,210.21 163.76,210.21 159.87,210.16 156.01,210.02 152.17,209.78 148.35,209.44 144.55,209.01 140.77,208.47 137,207.84 133.25,207.11 129.53,206.28 125.84,205.35 122.19,204.32 118.57,203.19 115.01,201.96 111.51,200.64 108.07,199.23 104.71,197.73 101.44,196.15 98.26,194.48 95.19,192.74 92.24,190.92 89.4,189.04 86.7,187.1 84.14,185.1 81.72,183.05 79.45,180.96 77.34,178.83 75.38,176.67 73.59,174.48 71.96,172.27 70.49,170.04 69.19,167.79 68.06,165.53 67.09,163.25 66.28,160.97 65.64,158.67 65.16,156.37 64.84,154.05 64.68,151.71 64.66,150.51 64.66,150.51 64.74,148.17 64.98,145.84 65.38,143.53 65.94,141.23 66.66,138.94 67.54,136.66 68.59,134.4 69.81,132.14 71.19,129.9 72.74,127.67 74.45,125.47 76.32,123.3 78.35,121.15 80.54,119.04 82.88,116.97 85.38,114.95 88.01,112.98 90.77,111.06 93.67,109.21 96.68,107.43 99.81,105.73 103.03,104.1 106.35,102.55 109.74,101.1 113.21,99.73 116.75,98.46 120.34,97.28 123.97,96.2 127.64,95.22 131.35,94.33 135.08,93.55 138.84,92.87 142.61,92.28 146.41,91.8 150.22,91.41 154.04,91.12 157.89,90.93 161.77,90.83 163.76,90.82 163.76,90.82 167.6,90.85 171.39,90.95 175.15,91.12 178.88,91.35 182.58,91.66 186.25,92.05 189.89,92.52 193.51,93.06 197.08,93.69 200.62,94.41 204.12,95.21 207.57,96.11 210.96,97.09 214.3,98.17 217.56,99.33 220.74,100.59 223.83,101.95 226.84,103.39 229.73,104.92 232.52,106.54 235.19,108.24 237.74,110.03 240.15,111.89 242.43,113.84 244.57,115.85 246.57,117.94 248.41,120.09 250.11,122.31 251.66,124.59 253.05,126.93 254.29,129.33 255.38,131.78 256.32,134.29 257.12,136.85 257.76,139.47 258.26,142.15 258.61,144.9 258.82,147.71 258.88,150.51 258.88,150.51 258.81,153.4 258.6,156.21 258.24,158.95 257.74,161.63 257.1,164.25 256.3,166.81 255.36,169.32 254.26,171.77 253.01,174.16 251.62,176.5 250.07,178.78 248.36,180.99 246.51,183.14 244.51,185.23 242.37,187.24 240.09,189.18 237.67,191.05 235.12,192.83 232.45,194.53 229.65,196.15 226.75,197.68 223.75,199.12 220.65,200.47 217.47,201.73 214.2,202.89 210.87,203.97 207.47,204.95 204.02,205.84 200.52,206.64 196.98,207.35 193.4,207.98 189.79,208.53 186.15,208.99 182.48,209.37 178.78,209.68 175.05,209.92 171.29,210.08 167.49,210.18 163.76,210.21 163.76,210.21" fill="none" fill-opacity="0"/>
                  </g>
                </g>
                <g id="GRID.picComplexPath.268.1" stroke="rgb(255,255,255)" stroke-opacity="0" fill="url(#import.7.linear1.1)" fill-opacity="1">
                  <g id="GRID.picPath.269.1">
                    <path id="GRID.picPath.269.1.1" d="M 211.99 109.1 L 211.99 109.1 L 212.12 109.06 L 212.51 108.94 L 213.15 108.74 L 214.02 108.45 L 215.09 108.1 L 216.31 107.68 L 217.64 107.21 L 219.02 106.71 L 220.39 106.18 L 221.7 105.65 L 222.93 105.12 L 224.05 104.6 L 224.46 104.4 L 224.46 104.4 L 224.96 104.14 L 225.54 103.82 L 226.2 103.43 L 226.93 102.98 L 227.69 102.47 L 228.46 101.92 L 229.2 101.35 L 229.89 100.76 L 230.52 100.16 L 230.79 99.88 L 230.79 99.88 L 231.45 99.13 L 232.05 98.37 L 232.57 97.62 L 233.01 96.94 L 233.34 96.38 L 233.56 95.98 L 233.67 95.76 L 233.68 95.72 L 264.78 43.29 L 214.52 43.26 L 191.01 87.41 L 191.01 87.41 L 190.93 87.55 L 190.69 87.95 L 190.29 88.61 L 189.75 89.47 L 189.09 90.51 L 188.33 91.67 L 187.5 92.89 L 186.64 94.11 L 185.78 95.26 L 184.95 96.3 L 184.18 97.18 L 183.46 97.88 L 183.24 98.07 L 183.24 98.07 L 182.49 98.67 L 181.8 99.19 L 181.13 99.65 L 180.47 100.04 L 179.81 100.34 L 179.15 100.56 L 178.48 100.7 L 177.78 100.77 L 177.27 100.79 L 177.27 100.79 L 176.71 100.79 L 175.85 100.79 L 174.74 100.79 L 173.42 100.79 L 171.97 100.79 L 170.48 100.79 L 169.04 100.79 L 167.75 100.79 L 166.68 100.79 L 165.89 100.79 L 165.43 100.79 L 165.33 100.79 L 165.34 43.3 L 120.86 43.28 L 120.86 190.13 L 210.18 190.13 L 210.18 190.13 L 210.32 190.13 L 210.73 190.11 L 211.4 190.06 L 212.31 189.97 L 213.46 189.83 L 214.82 189.62 L 216.38 189.34 L 218.13 188.96 L 220.03 188.48 L 222.06 187.89 L 224.21 187.16 L 226.44 186.3 L 228.73 185.29 L 231.04 184.12 L 233.34 182.79 L 235.6 181.3 L 237.8 179.63 L 239.9 177.78 L 241.88 175.76 L 243.72 173.56 L 245.38 171.18 L 246.85 168.61 L 248.12 165.85 L 249.16 162.9 L 249.97 159.75 L 250.53 156.38 L 250.82 152.78 L 250.86 150.69 L 250.86 150.69 L 250.73 146.96 L 250.34 143.45 L 249.7 140.15 L 248.83 137.04 L 247.74 134.13 L 246.44 131.39 L 244.95 128.82 L 243.3 126.43 L 241.49 124.21 L 239.55 122.16 L 237.5 120.28 L 235.37 118.57 L 233.2 117.03 L 230.99 115.65 L 228.8 114.43 L 226.64 113.37 L 224.54 112.45 L 222.53 111.67 L 220.64 111.02 L 218.89 110.49 L 217.29 110.06 L 215.88 109.74 L 214.66 109.49 L 213.65 109.32 L 212.87 109.2 L 212.33 109.14 L 212.04 109.11 L 211.99 109.1 Z M 192.64 158.28 L 165.71 158.29 L 165.7 133.32 L 192.64 133.33 L 192.64 133.33 L 192.76 133.33 L 193.11 133.36 L 193.67 133.42 L 194.42 133.54 L 195.33 133.73 L 196.37 134.03 L 197.5 134.45 L 198.68 135 L 199.88 135.7 L 201.03 136.56 L 202.1 137.58 L 203.06 138.78 L 203.86 140.14 L 204.48 141.68 L 204.9 143.42 L 205.1 145.36 L 205.12 146.03 L 205.12 146.03 L 205.01 147.98 L 204.69 149.72 L 204.18 151.27 L 203.5 152.63 L 202.67 153.83 L 201.71 154.87 L 200.66 155.74 L 199.55 156.46 L 198.42 157.04 L 197.3 157.48 L 196.23 157.81 L 195.26 158.03 L 194.4 158.17 L 193.69 158.25 L 193.15 158.28 L 192.79 158.28 L 192.64 158.28 L 192.64 158.28 Z" fill-rule="evenodd" stroke="rgb(255,255,255)" stroke-opacity="0"/>
                  </g>
                  <g id="GRID.picPolyline.270.1">
                    <polyline id="GRID.picPolyline.270.1.1" points="211.99,109.1 211.99,109.1 212.12,109.06 212.51,108.94 213.15,108.74 214.02,108.45 215.09,108.1 216.31,107.68 217.64,107.21 219.02,106.71 220.39,106.18 221.7,105.65 222.93,105.12 224.05,104.6 224.46,104.4 224.46,104.4 224.96,104.14 225.54,103.82 226.2,103.43 226.93,102.98 227.69,102.47 228.46,101.92 229.2,101.35 229.89,100.76 230.52,100.16 230.79,99.88 230.79,99.88 231.45,99.13 232.05,98.37 232.57,97.62 233.01,96.94 233.34,96.38 233.56,95.98 233.67,95.76 233.68,95.72 264.78,43.29 214.52,43.26 191.01,87.41 191.01,87.41 190.93,87.55 190.69,87.95 190.29,88.61 189.75,89.47 189.09,90.51 188.33,91.67 187.5,92.89 186.64,94.11 185.78,95.26 184.95,96.3 184.18,97.18 183.46,97.88 183.24,98.07 183.24,98.07 182.49,98.67 181.8,99.19 181.13,99.65 180.47,100.04 179.81,100.34 179.15,100.56 178.48,100.7 177.78,100.77 177.27,100.79 177.27,100.79 176.71,100.79 175.85,100.79 174.74,100.79 173.42,100.79 171.97,100.79 170.48,100.79 169.04,100.79 167.75,100.79 166.68,100.79 165.89,100.79 165.43,100.79 165.33,100.79 165.34,43.3 120.86,43.28 120.86,190.13 210.18,190.13 210.18,190.13 210.32,190.13 210.73,190.11 211.4,190.06 212.31,189.97 213.46,189.83 214.82,189.62 216.38,189.34 218.13,188.96 220.03,188.48 222.06,187.89 224.21,187.16 226.44,186.3 228.73,185.29 231.04,184.12 233.34,182.79 235.6,181.3 237.8,179.63 239.9,177.78 241.88,175.76 243.72,173.56 245.38,171.18 246.85,168.61 248.12,165.85 249.16,162.9 249.97,159.75 250.53,156.38 250.82,152.78 250.86,150.69 250.86,150.69 250.73,146.96 250.34,143.45 249.7,140.15 248.83,137.04 247.74,134.13 246.44,131.39 244.95,128.82 243.3,126.43 241.49,124.21 239.55,122.16 237.5,120.28 235.37,118.57 233.2,117.03 230.99,115.65 228.8,114.43 226.64,113.37 224.54,112.45 222.53,111.67 220.64,111.02 218.89,110.49 217.29,110.06 215.88,109.74 214.66,109.49 213.65,109.32 212.87,109.2 212.33,109.14 212.04,109.11 211.99,109.1 211.99,109.1" fill="none" fill-opacity="0"/>
                    <polyline id="GRID.picPolyline.270.1.2" points="192.64,158.28 165.71,158.29 165.7,133.32 192.64,133.33 192.64,133.33 192.76,133.33 193.11,133.36 193.67,133.42 194.42,133.54 195.33,133.73 196.37,134.03 197.5,134.45 198.68,135 199.88,135.7 201.03,136.56 202.1,137.58 203.06,138.78 203.86,140.14 204.48,141.68 204.9,143.42 205.1,145.36 205.12,146.03 205.12,146.03 205.01,147.98 204.69,149.72 204.18,151.27 203.5,152.63 202.67,153.83 201.71,154.87 200.66,155.74 199.55,156.46 198.42,157.04 197.3,157.48 196.23,157.81 195.26,158.03 194.4,158.17 193.69,158.25 193.15,158.28 192.79,158.28 192.64,158.28 192.64,158.28 192.64,158.28" fill="none" fill-opacity="0"/>
                  </g>
                </g>
              </g>
            </g>
          </g>
        </g>
      </g>
    </g>
  </g>
</svg>