<?xml version="1.0" encoding="ASCII"?>
<svg xmlns="http://www.w3.org/2000/svg" xmlns:xlink="http://www.w3.org/1999/xlink" width="480px" height="480px" viewBox="0 0 480 480" version="1.1">
  <metadata xmlns:gridsvg="http://www.stat.auckland.ac.nz/~paul/R/gridSVG/">
    <gridsvg:generator name="gridSVG" version="1.7-1" time="2019-11-06 00:48:52"/>
    <gridsvg:argument name="name" value="Rplot-gridSVG.svg"/>
    <gridsvg:argument name="exportCoords" value="none"/>
    <gridsvg:argument name="exportMappings" value="none"/>
    <gridsvg:argument name="exportJS" value="none"/>
    <gridsvg:argument name="res" value="96"/>
    <gridsvg:argument name="prefix" value=""/>
    <gridsvg:argument name="addClasses" value="FALSE"/>
    <gridsvg:argument name="indent" value="TRUE"/>
    <gridsvg:argument name="htmlWrapper" value="FALSE"/>
    <gridsvg:argument name="usePaths" value="vpPaths"/>
    <gridsvg:argument name="uniqueNames" value="TRUE"/>
    <gridsvg:separator name="id.sep" value="."/>
    <gridsvg:separator name="gPath.sep" value="::"/>
    <gridsvg:separator name="vpPath.sep" value="::"/>
  </metadata>
  <g transform="translate(0, 480) scale(1, -1)">
    <g id="gridSVG" fill="none" stroke="rgb(0,0,0)" stroke-dasharray="none" stroke-width="1" font-size="16" font-family="Helvetica, Arial, FreeSans, Liberation Sans, Nimbus Sans L, sans-serif" opacity="1" stroke-linecap="round" stroke-linejoin="round" stroke-miterlimit="10" stroke-opacity="1" fill-opacity="0" font-weight="normal" font-style="normal">
      <defs>
        <symbol id="gridSVG.pch1" viewBox="-5 -5 10 10" overflow="visible">
          <circle cx="0" cy="0" r="3.75"/>
        </symbol>
        <linearGradient id="import.9.linear0.1" x1="369.25" x2="437.7" y1="430.37" y2="384.53" gradientUnits="userSpaceOnUse" spreadMethod="pad">
          <stop offset="0" stop-color="rgb(203,206,208)" stop-opacity="1"/>
          <stop offset="1" stop-color="rgb(132,131,139)" stop-opacity="1"/>
        </linearGradient>
        <linearGradient id="import.9.linear1.1" x1="397.45" x2="435.23" y1="416.14" y2="377.59" gradientUnits="userSpaceOnUse" spreadMethod="pad">
          <stop offset="0" stop-color="rgb(39,109,195)" stop-opacity="1"/>
          <stop offset="1" stop-color="rgb(22,92,170)" stop-opacity="1"/>
        </linearGradient>
      </defs>
      <g id="plot_01.background.1">
        <rect id="plot_01.background.1.1" x="0" y="0" width="480" height="480" transform="" fill="none" stroke="none" stroke-opacity="0" fill-opacity="0"/>
      </g>
      <g id="plot_01.toplevel.vp.1" font-size="16">
        <g id="plot_01.toplevel.vp::plot_01.xlab.vp.1">
          <g id="plot_01.xlab.1">
            <g id="plot_01.xlab.1.1" transform="translate(253.16, 21.74)" stroke-width="0.1">
              <g id="plot_01.xlab.1.1.scale" transform="scale(1, -1)">
                <text x="0" y="0" id="plot_01.xlab.1.1.text" text-anchor="middle" opacity="1" stroke="rgb(0,0,0)" fill="rgb(0,0,0)" stroke-opacity="1" fill-opacity="1" font-size="16" font-weight="normal" font-style="normal">
                  <tspan id="plot_01.xlab.1.1.tspan.1" dy="5.74" x="0">disp</tspan>
                </text>
              </g>
            </g>
          </g>
        </g>
        <g id="plot_01.toplevel.vp::plot_01.ylab.vp.1">
          <g id="plot_01.ylab.1">
            <g id="plot_01.ylab.1.1" transform="translate(13.74, 250.53)" stroke-width="0.1">
              <g id="plot_01.ylab.1.1.scale" transform="scale(1, -1)">
                <text x="0" y="0" id="plot_01.ylab.1.1.text" transform="rotate(-90)" text-anchor="middle" opacity="1" stroke="rgb(0,0,0)" fill="rgb(0,0,0)" stroke-opacity="1" fill-opacity="1" font-size="16" font-weight="normal" font-style="normal">
                  <tspan id="plot_01.ylab.1.1.tspan.1" dy="5.74" x="0">mpg</tspan>
                </text>
              </g>
            </g>
          </g>
        </g>
        <g id="plot_01.toplevel.vp::plot_01.figure.vp.1"/>
        <defs>
          <clipPath id="plot_01.toplevel.vp::plot_01.panel.1.1.vp.1.clipPath">
            <rect x="64.99" y="67.74" width="376.33" height="365.58" fill="none" stroke="none"/>
          </clipPath>
        </defs>
        <g id="plot_01.toplevel.vp::plot_01.panel.1.1.vp.1" clip-path="url(#plot_01.toplevel.vp::plot_01.panel.1.1.vp.1.clipPath)"/>
        <g id="plot_01.toplevel.vp::plot_01.strip.1.1.off.vp.1">
          <g id="plot_01.ticks.top.panel.1.1.1">
            <polyline id="plot_01.ticks.top.panel.1.1.1.1" points="111.9,433.32 111.9,440.88" stroke="rgb(0,0,0)" opacity="1" stroke-dasharray="none" stroke-width="1" stroke-opacity="1" fill="none"/>
            <polyline id="plot_01.ticks.top.panel.1.1.1.2" points="194.24,433.32 194.24,440.88" stroke="rgb(0,0,0)" opacity="1" stroke-dasharray="none" stroke-width="1" stroke-opacity="1" fill="none"/>
            <polyline id="plot_01.ticks.top.panel.1.1.1.3" points="276.58,433.32 276.58,440.88" stroke="rgb(0,0,0)" opacity="1" stroke-dasharray="none" stroke-width="1" stroke-opacity="1" fill="none"/>
            <polyline id="plot_01.ticks.top.panel.1.1.1.4" points="358.93,433.32 358.93,440.88" stroke="rgb(0,0,0)" opacity="1" stroke-dasharray="none" stroke-width="1" stroke-opacity="1" fill="none"/>
            <polyline id="plot_01.ticks.top.panel.1.1.1.5" points="441.27,433.32 441.27,440.88" stroke="rgb(0,0,0)" opacity="1" stroke-dasharray="none" stroke-width="1" stroke-opacity="1" fill="none"/>
          </g>
        </g>
        <g id="plot_01.toplevel.vp::plot_01.strip.left.1.1.off.vp.1">
          <g id="plot_01.ticks.left.panel.1.1.1">
            <polyline id="plot_01.ticks.left.panel.1.1.1.1" points="64.99,84.73 57.43,84.73" stroke="rgb(0,0,0)" opacity="1" stroke-dasharray="none" stroke-width="1" stroke-opacity="1" fill="none"/>
            <polyline id="plot_01.ticks.left.panel.1.1.1.2" points="64.99,152.96 57.43,152.96" stroke="rgb(0,0,0)" opacity="1" stroke-dasharray="none" stroke-width="1" stroke-opacity="1" fill="none"/>
            <polyline id="plot_01.ticks.left.panel.1.1.1.3" points="64.99,221.19 57.43,221.19" stroke="rgb(0,0,0)" opacity="1" stroke-dasharray="none" stroke-width="1" stroke-opacity="1" fill="none"/>
            <polyline id="plot_01.ticks.left.panel.1.1.1.4" points="64.99,289.42 57.43,289.42" stroke="rgb(0,0,0)" opacity="1" stroke-dasharray="none" stroke-width="1" stroke-opacity="1" fill="none"/>
            <polyline id="plot_01.ticks.left.panel.1.1.1.5" points="64.99,357.65 57.43,357.65" stroke="rgb(0,0,0)" opacity="1" stroke-dasharray="none" stroke-width="1" stroke-opacity="1" fill="none"/>
            <polyline id="plot_01.ticks.left.panel.1.1.1.6" points="64.99,425.89 57.43,425.89" stroke="rgb(0,0,0)" opacity="1" stroke-dasharray="none" stroke-width="1" stroke-opacity="1" fill="none"/>
          </g>
          <g id="plot_01.ticklabels.left.panel.1.1.1">
            <g id="plot_01.ticklabels.left.panel.1.1.1.1" transform="translate(49.87, 84.73)" stroke-width="0.1">
              <g id="plot_01.ticklabels.left.panel.1.1.1.1.scale" transform="scale(1, -1)">
                <text x="0" y="0" id="plot_01.ticklabels.left.panel.1.1.1.1.text" text-anchor="end" stroke="rgb(0,0,0)" opacity="1" fill="rgb(0,0,0)" stroke-opacity="1" fill-opacity="1" font-size="12.8" font-weight="normal" font-style="normal">
                  <tspan id="plot_01.ticklabels.left.panel.1.1.1.1.tspan.1" dy="4.79" x="0">10</tspan>
                </text>
              </g>
            </g>
            <g id="plot_01.ticklabels.left.panel.1.1.1.2" transform="translate(49.87, 152.96)" stroke-width="0.1">
              <g id="plot_01.ticklabels.left.panel.1.1.1.2.scale" transform="scale(1, -1)">
                <text x="0" y="0" id="plot_01.ticklabels.left.panel.1.1.1.2.text" text-anchor="end" stroke="rgb(0,0,0)" opacity="1" fill="rgb(0,0,0)" stroke-opacity="1" fill-opacity="1" font-size="12.8" font-weight="normal" font-style="normal">
                  <tspan id="plot_01.ticklabels.left.panel.1.1.1.2.tspan.1" dy="4.79" x="0">15</tspan>
                </text>
              </g>
            </g>
            <g id="plot_01.ticklabels.left.panel.1.1.1.3" transform="translate(49.87, 221.19)" stroke-width="0.1">
              <g id="plot_01.ticklabels.left.panel.1.1.1.3.scale" transform="scale(1, -1)">
                <text x="0" y="0" id="plot_01.ticklabels.left.panel.1.1.1.3.text" text-anchor="end" stroke="rgb(0,0,0)" opacity="1" fill="rgb(0,0,0)" stroke-opacity="1" fill-opacity="1" font-size="12.8" font-weight="normal" font-style="normal">
                  <tspan id="plot_01.ticklabels.left.panel.1.1.1.3.tspan.1" dy="4.79" x="0">20</tspan>
                </text>
              </g>
            </g>
            <g id="plot_01.ticklabels.left.panel.1.1.1.4" transform="translate(49.87, 289.42)" stroke-width="0.1">
              <g id="plot_01.ticklabels.left.panel.1.1.1.4.scale" transform="scale(1, -1)">
                <text x="0" y="0" id="plot_01.ticklabels.left.panel.1.1.1.4.text" text-anchor="end" stroke="rgb(0,0,0)" opacity="1" fill="rgb(0,0,0)" stroke-opacity="1" fill-opacity="1" font-size="12.8" font-weight="normal" font-style="normal">
                  <tspan id="plot_01.ticklabels.left.panel.1.1.1.4.tspan.1" dy="4.79" x="0">25</tspan>
                </text>
              </g>
            </g>
            <g id="plot_01.ticklabels.left.panel.1.1.1.5" transform="translate(49.87, 357.65)" stroke-width="0.1">
              <g id="plot_01.ticklabels.left.panel.1.1.1.5.scale" transform="scale(1, -1)">
                <text x="0" y="0" id="plot_01.ticklabels.left.panel.1.1.1.5.text" text-anchor="end" stroke="rgb(0,0,0)" opacity="1" fill="rgb(0,0,0)" stroke-opacity="1" fill-opacity="1" font-size="12.8" font-weight="normal" font-style="normal">
                  <tspan id="plot_01.ticklabels.left.panel.1.1.1.5.tspan.1" dy="4.79" x="0">30</tspan>
                </text>
              </g>
            </g>
            <g id="plot_01.ticklabels.left.panel.1.1.1.6" transform="translate(49.87, 425.89)" stroke-width="0.1">
              <g id="plot_01.ticklabels.left.panel.1.1.1.6.scale" transform="scale(1, -1)">
                <text x="0" y="0" id="plot_01.ticklabels.left.panel.1.1.1.6.text" text-anchor="end" stroke="rgb(0,0,0)" opacity="1" fill="rgb(0,0,0)" stroke-opacity="1" fill-opacity="1" font-size="12.8" font-weight="normal" font-style="normal">
                  <tspan id="plot_01.ticklabels.left.panel.1.1.1.6.tspan.1" dy="4.79" x="0">35</tspan>
                </text>
              </g>
            </g>
          </g>
        </g>
        <g id="plot_01.toplevel.vp::plot_01.panel.1.1.off.vp.1">
          <g id="plot_01.ticks.bottom.panel.1.1.1">
            <polyline id="plot_01.ticks.bottom.panel.1.1.1.1" points="111.9,67.74 111.9,60.18" stroke="rgb(0,0,0)" opacity="1" stroke-dasharray="none" stroke-width="1" stroke-opacity="1" fill="none"/>
            <polyline id="plot_01.ticks.bottom.panel.1.1.1.2" points="194.24,67.74 194.24,60.18" stroke="rgb(0,0,0)" opacity="1" stroke-dasharray="none" stroke-width="1" stroke-opacity="1" fill="none"/>
            <polyline id="plot_01.ticks.bottom.panel.1.1.1.3" points="276.58,67.74 276.58,60.18" stroke="rgb(0,0,0)" opacity="1" stroke-dasharray="none" stroke-width="1" stroke-opacity="1" fill="none"/>
            <polyline id="plot_01.ticks.bottom.panel.1.1.1.4" points="358.93,67.74 358.93,60.18" stroke="rgb(0,0,0)" opacity="1" stroke-dasharray="none" stroke-width="1" stroke-opacity="1" fill="none"/>
            <polyline id="plot_01.ticks.bottom.panel.1.1.1.5" points="441.27,67.74 441.27,60.18" stroke="rgb(0,0,0)" opacity="1" stroke-dasharray="none" stroke-width="1" stroke-opacity="1" fill="none"/>
          </g>
          <g id="plot_01.ticklabels.bottom.panel.1.1.1">
            <g id="plot_01.ticklabels.bottom.panel.1.1.1.1" transform="translate(111.9, 52.62)" stroke-width="0.1">
              <g id="plot_01.ticklabels.bottom.panel.1.1.1.1.scale" transform="scale(1, -1)">
                <text x="0" y="0" id="plot_01.ticklabels.bottom.panel.1.1.1.1.text" text-anchor="middle" stroke="rgb(0,0,0)" opacity="1" fill="rgb(0,0,0)" stroke-opacity="1" fill-opacity="1" font-size="12.8" font-weight="normal" font-style="normal">
                  <tspan id="plot_01.ticklabels.bottom.panel.1.1.1.1.tspan.1" dy="9.57" x="0">100</tspan>
                </text>
              </g>
            </g>
            <g id="plot_01.ticklabels.bottom.panel.1.1.1.2" transform="translate(194.24, 52.62)" stroke-width="0.1">
              <g id="plot_01.ticklabels.bottom.panel.1.1.1.2.scale" transform="scale(1, -1)">
                <text x="0" y="0" id="plot_01.ticklabels.bottom.panel.1.1.1.2.text" text-anchor="middle" stroke="rgb(0,0,0)" opacity="1" fill="rgb(0,0,0)" stroke-opacity="1" fill-opacity="1" font-size="12.8" font-weight="normal" font-style="normal">
                  <tspan id="plot_01.ticklabels.bottom.panel.1.1.1.2.tspan.1" dy="9.57" x="0">200</tspan>
                </text>
              </g>
            </g>
            <g id="plot_01.ticklabels.bottom.panel.1.1.1.3" transform="translate(276.58, 52.62)" stroke-width="0.1">
              <g id="plot_01.ticklabels.bottom.panel.1.1.1.3.scale" transform="scale(1, -1)">
                <text x="0" y="0" id="plot_01.ticklabels.bottom.panel.1.1.1.3.text" text-anchor="middle" stroke="rgb(0,0,0)" opacity="1" fill="rgb(0,0,0)" stroke-opacity="1" fill-opacity="1" font-size="12.8" font-weight="normal" font-style="normal">
                  <tspan id="plot_01.ticklabels.bottom.panel.1.1.1.3.tspan.1" dy="9.57" x="0">300</tspan>
                </text>
              </g>
            </g>
            <g id="plot_01.ticklabels.bottom.panel.1.1.1.4" transform="translate(358.93, 52.62)" stroke-width="0.1">
              <g id="plot_01.ticklabels.bottom.panel.1.1.1.4.scale" transform="scale(1, -1)">
                <text x="0" y="0" id="plot_01.ticklabels.bottom.panel.1.1.1.4.text" text-anchor="middle" stroke="rgb(0,0,0)" opacity="1" fill="rgb(0,0,0)" stroke-opacity="1" fill-opacity="1" font-size="12.8" font-weight="normal" font-style="normal">
                  <tspan id="plot_01.ticklabels.bottom.panel.1.1.1.4.tspan.1" dy="9.57" x="0">400</tspan>
                </text>
              </g>
            </g>
          </g>
          <g id="plot_01.ticks.right.panel.1.1.1">
            <polyline id="plot_01.ticks.right.panel.1.1.1.1" points="441.32,84.73 448.88,84.73" stroke="rgb(0,0,0)" opacity="1" stroke-dasharray="none" stroke-width="1" stroke-opacity="1" fill="none"/>
            <polyline id="plot_01.ticks.right.panel.1.1.1.2" points="441.32,152.96 448.88,152.96" stroke="rgb(0,0,0)" opacity="1" stroke-dasharray="none" stroke-width="1" stroke-opacity="1" fill="none"/>
            <polyline id="plot_01.ticks.right.panel.1.1.1.3" points="441.32,221.19 448.88,221.19" stroke="rgb(0,0,0)" opacity="1" stroke-dasharray="none" stroke-width="1" stroke-opacity="1" fill="none"/>
            <polyline id="plot_01.ticks.right.panel.1.1.1.4" points="441.32,289.42 448.88,289.42" stroke="rgb(0,0,0)" opacity="1" stroke-dasharray="none" stroke-width="1" stroke-opacity="1" fill="none"/>
            <polyline id="plot_01.ticks.right.panel.1.1.1.5" points="441.32,357.65 448.88,357.65" stroke="rgb(0,0,0)" opacity="1" stroke-dasharray="none" stroke-width="1" stroke-opacity="1" fill="none"/>
            <polyline id="plot_01.ticks.right.panel.1.1.1.6" points="441.32,425.89 448.88,425.89" stroke="rgb(0,0,0)" opacity="1" stroke-dasharray="none" stroke-width="1" stroke-opacity="1" fill="none"/>
          </g>
        </g>
        <defs>
          <clipPath id="plot_01.toplevel.vp::plot_01.panel.1.1.vp.2.clipPath">
            <rect x="64.99" y="67.74" width="376.33" height="365.58" fill="none" stroke="none"/>
          </clipPath>
        </defs>
        <g id="plot_01.toplevel.vp::plot_01.panel.1.1.vp.2" clip-path="url(#plot_01.toplevel.vp::plot_01.panel.1.1.vp.2.clipPath)">
          <g id="plot_01.xyplot.points.panel.1.1.1">
            <use id="plot_01.xyplot.points.panel.1.1.1.1" href="#gridSVG.pch1" x="161.3" y="234.84" width="8.53" height="8.53" transform=" translate(-4.27,-4.27)" stroke="rgb(0,128,255)" stroke-width="1.17" opacity="1" fill="none" font-size="8.53" stroke-opacity="1" fill-opacity="0" font-weight="normal" font-style="normal"/>
            <use id="plot_01.xyplot.points.panel.1.1.1.2" href="#gridSVG.pch1" x="161.3" y="234.84" width="8.53" height="8.53" transform=" translate(-4.27,-4.27)" stroke="rgb(0,128,255)" stroke-width="1.17" opacity="1" fill="none" font-size="8.53" stroke-opacity="1" fill-opacity="0" font-weight="normal" font-style="normal"/>
            <use id="plot_01.xyplot.points.panel.1.1.1.3" href="#gridSVG.pch1" x="118.48" y="259.4" width="8.53" height="8.53" transform=" translate(-4.27,-4.27)" stroke="rgb(0,128,255)" stroke-width="1.17" opacity="1" fill="none" font-size="8.53" stroke-opacity="1" fill-opacity="0" font-weight="normal" font-style="normal"/>
            <use id="plot_01.xyplot.points.panel.1.1.1.4" href="#gridSVG.pch1" x="242" y="240.3" width="8.53" height="8.53" transform=" translate(-4.27,-4.27)" stroke="rgb(0,128,255)" stroke-width="1.17" opacity="1" fill="none" font-size="8.53" stroke-opacity="1" fill-opacity="0" font-weight="normal" font-style="normal"/>
            <use id="plot_01.xyplot.points.panel.1.1.1.5" href="#gridSVG.pch1" x="325.99" y="203.45" width="8.53" height="8.53" transform=" translate(-4.27,-4.27)" stroke="rgb(0,128,255)" stroke-width="1.17" opacity="1" fill="none" font-size="8.53" stroke-opacity="1" fill-opacity="0" font-weight="normal" font-style="normal"/>
            <use id="plot_01.xyplot.points.panel.1.1.1.6" href="#gridSVG.pch1" x="214.83" y="195.26" width="8.53" height="8.53" transform=" translate(-4.27,-4.27)" stroke="rgb(0,128,255)" stroke-width="1.17" opacity="1" fill="none" font-size="8.53" stroke-opacity="1" fill-opacity="0" font-weight="normal" font-style="normal"/>
            <use id="plot_01.xyplot.points.panel.1.1.1.7" href="#gridSVG.pch1" x="325.99" y="143.41" width="8.53" height="8.53" transform=" translate(-4.27,-4.27)" stroke="rgb(0,128,255)" stroke-width="1.17" opacity="1" fill="none" font-size="8.53" stroke-opacity="1" fill-opacity="0" font-weight="normal" font-style="normal"/>
            <use id="plot_01.xyplot.points.panel.1.1.1.8" href="#gridSVG.pch1" x="150.35" y="281.23" width="8.53" height="8.53" transform=" translate(-4.27,-4.27)" stroke="rgb(0,128,255)" stroke-width="1.17" opacity="1" fill="none" font-size="8.53" stroke-opacity="1" fill-opacity="0" font-weight="normal" font-style="normal"/>
            <use id="plot_01.xyplot.points.panel.1.1.1.9" href="#gridSVG.pch1" x="145.49" y="259.4" width="8.53" height="8.53" transform=" translate(-4.27,-4.27)" stroke="rgb(0,128,255)" stroke-width="1.17" opacity="1" fill="none" font-size="8.53" stroke-opacity="1" fill-opacity="0" font-weight="normal" font-style="normal"/>
            <use id="plot_01.xyplot.points.panel.1.1.1.10" href="#gridSVG.pch1" x="167.56" y="210.27" width="8.53" height="8.53" transform=" translate(-4.27,-4.27)" stroke="rgb(0,128,255)" stroke-width="1.17" opacity="1" fill="none" font-size="8.53" stroke-opacity="1" fill-opacity="0" font-weight="normal" font-style="normal"/>
            <use id="plot_01.xyplot.points.panel.1.1.1.11" href="#gridSVG.pch1" x="167.56" y="191.17" width="8.53" height="8.53" transform=" translate(-4.27,-4.27)" stroke="rgb(0,128,255)" stroke-width="1.17" opacity="1" fill="none" font-size="8.53" stroke-opacity="1" fill-opacity="0" font-weight="normal" font-style="normal"/>
            <use id="plot_01.xyplot.points.panel.1.1.1.12" href="#gridSVG.pch1" x="256.66" y="172.06" width="8.53" height="8.53" transform=" translate(-4.27,-4.27)" stroke="rgb(0,128,255)" stroke-width="1.17" opacity="1" fill="none" font-size="8.53" stroke-opacity="1" fill-opacity="0" font-weight="normal" font-style="normal"/>
            <use id="plot_01.xyplot.points.panel.1.1.1.13" href="#gridSVG.pch1" x="256.66" y="184.35" width="8.53" height="8.53" transform=" translate(-4.27,-4.27)" stroke="rgb(0,128,255)" stroke-width="1.17" opacity="1" fill="none" font-size="8.53" stroke-opacity="1" fill-opacity="0" font-weight="normal" font-style="normal"/>
            <use id="plot_01.xyplot.points.panel.1.1.1.14" href="#gridSVG.pch1" x="256.66" y="155.69" width="8.53" height="8.53" transform=" translate(-4.27,-4.27)" stroke="rgb(0,128,255)" stroke-width="1.17" opacity="1" fill="none" font-size="8.53" stroke-opacity="1" fill-opacity="0" font-weight="normal" font-style="normal"/>
            <use id="plot_01.xyplot.points.panel.1.1.1.15" href="#gridSVG.pch1" x="418.21" y="90.19" width="8.53" height="8.53" transform=" translate(-4.27,-4.27)" stroke="rgb(0,128,255)" stroke-width="1.17" opacity="1" fill="none" font-size="8.53" stroke-opacity="1" fill-opacity="0" font-weight="normal" font-style="normal"/>
            <use id="plot_01.xyplot.points.panel.1.1.1.16" href="#gridSVG.pch1" x="408.33" y="90.19" width="8.53" height="8.53" transform=" translate(-4.27,-4.27)" stroke="rgb(0,128,255)" stroke-width="1.17" opacity="1" fill="none" font-size="8.53" stroke-opacity="1" fill-opacity="0" font-weight="normal" font-style="normal"/>
            <use id="plot_01.xyplot.points.panel.1.1.1.17" href="#gridSVG.pch1" x="391.86" y="148.87" width="8.53" height="8.53" transform=" translate(-4.27,-4.27)" stroke="rgb(0,128,255)" stroke-width="1.17" opacity="1" fill="none" font-size="8.53" stroke-opacity="1" fill-opacity="0" font-weight="normal" font-style="normal"/>
            <use id="plot_01.xyplot.points.panel.1.1.1.18" href="#gridSVG.pch1" x="94.36" y="390.41" width="8.53" height="8.53" transform=" translate(-4.27,-4.27)" stroke="rgb(0,128,255)" stroke-width="1.17" opacity="1" fill="none" font-size="8.53" stroke-opacity="1" fill-opacity="0" font-weight="normal" font-style="normal"/>
            <use id="plot_01.xyplot.points.panel.1.1.1.19" href="#gridSVG.pch1" x="91.89" y="363.11" width="8.53" height="8.53" transform=" translate(-4.27,-4.27)" stroke="rgb(0,128,255)" stroke-width="1.17" opacity="1" fill="none" font-size="8.53" stroke-opacity="1" fill-opacity="0" font-weight="normal" font-style="normal"/>
            <use id="plot_01.xyplot.points.panel.1.1.1.20" href="#gridSVG.pch1" x="88.1" y="410.87" width="8.53" height="8.53" transform=" translate(-4.27,-4.27)" stroke="rgb(0,128,255)" stroke-width="1.17" opacity="1" fill="none" font-size="8.53" stroke-opacity="1" fill-opacity="0" font-weight="normal" font-style="normal"/>
            <use id="plot_01.xyplot.points.panel.1.1.1.21" href="#gridSVG.pch1" x="128.45" y="241.66" width="8.53" height="8.53" transform=" translate(-4.27,-4.27)" stroke="rgb(0,128,255)" stroke-width="1.17" opacity="1" fill="none" font-size="8.53" stroke-opacity="1" fill-opacity="0" font-weight="normal" font-style="normal"/>
            <use id="plot_01.xyplot.points.panel.1.1.1.22" href="#gridSVG.pch1" x="291.41" y="159.78" width="8.53" height="8.53" transform=" translate(-4.27,-4.27)" stroke="rgb(0,128,255)" stroke-width="1.17" opacity="1" fill="none" font-size="8.53" stroke-opacity="1" fill-opacity="0" font-weight="normal" font-style="normal"/>
            <use id="plot_01.xyplot.points.panel.1.1.1.23" href="#gridSVG.pch1" x="279.88" y="155.69" width="8.53" height="8.53" transform=" translate(-4.27,-4.27)" stroke="rgb(0,128,255)" stroke-width="1.17" opacity="1" fill="none" font-size="8.53" stroke-opacity="1" fill-opacity="0" font-weight="normal" font-style="normal"/>
            <use id="plot_01.xyplot.points.panel.1.1.1.24" href="#gridSVG.pch1" x="317.76" y="129.76" width="8.53" height="8.53" transform=" translate(-4.27,-4.27)" stroke="rgb(0,128,255)" stroke-width="1.17" opacity="1" fill="none" font-size="8.53" stroke-opacity="1" fill-opacity="0" font-weight="normal" font-style="normal"/>
            <use id="plot_01.xyplot.points.panel.1.1.1.25" href="#gridSVG.pch1" x="358.93" y="210.27" width="8.53" height="8.53" transform=" translate(-4.27,-4.27)" stroke="rgb(0,128,255)" stroke-width="1.17" opacity="1" fill="none" font-size="8.53" stroke-opacity="1" fill-opacity="0" font-weight="normal" font-style="normal"/>
            <use id="plot_01.xyplot.points.panel.1.1.1.26" href="#gridSVG.pch1" x="94.61" y="320.81" width="8.53" height="8.53" transform=" translate(-4.27,-4.27)" stroke="rgb(0,128,255)" stroke-width="1.17" opacity="1" fill="none" font-size="8.53" stroke-opacity="1" fill-opacity="0" font-weight="normal" font-style="normal"/>
            <use id="plot_01.xyplot.points.panel.1.1.1.27" href="#gridSVG.pch1" x="128.61" y="303.07" width="8.53" height="8.53" transform=" translate(-4.27,-4.27)" stroke="rgb(0,128,255)" stroke-width="1.17" opacity="1" fill="none" font-size="8.53" stroke-opacity="1" fill-opacity="0" font-weight="normal" font-style="normal"/>
            <use id="plot_01.xyplot.points.panel.1.1.1.28" href="#gridSVG.pch1" x="107.86" y="363.11" width="8.53" height="8.53" transform=" translate(-4.27,-4.27)" stroke="rgb(0,128,255)" stroke-width="1.17" opacity="1" fill="none" font-size="8.53" stroke-opacity="1" fill-opacity="0" font-weight="normal" font-style="normal"/>
            <use id="plot_01.xyplot.points.panel.1.1.1.29" href="#gridSVG.pch1" x="318.58" y="163.88" width="8.53" height="8.53" transform=" translate(-4.27,-4.27)" stroke="rgb(0,128,255)" stroke-width="1.17" opacity="1" fill="none" font-size="8.53" stroke-opacity="1" fill-opacity="0" font-weight="normal" font-style="normal"/>
            <use id="plot_01.xyplot.points.panel.1.1.1.30" href="#gridSVG.pch1" x="148.95" y="217.1" width="8.53" height="8.53" transform=" translate(-4.27,-4.27)" stroke="rgb(0,128,255)" stroke-width="1.17" opacity="1" fill="none" font-size="8.53" stroke-opacity="1" fill-opacity="0" font-weight="normal" font-style="normal"/>
            <use id="plot_01.xyplot.points.panel.1.1.1.31" href="#gridSVG.pch1" x="277.41" y="152.96" width="8.53" height="8.53" transform=" translate(-4.27,-4.27)" stroke="rgb(0,128,255)" stroke-width="1.17" opacity="1" fill="none" font-size="8.53" stroke-opacity="1" fill-opacity="0" font-weight="normal" font-style="normal"/>
            <use id="plot_01.xyplot.points.panel.1.1.1.32" href="#gridSVG.pch1" x="129.19" y="240.3" width="8.53" height="8.53" transform=" translate(-4.27,-4.27)" stroke="rgb(0,128,255)" stroke-width="1.17" opacity="1" fill="none" font-size="8.53" stroke-opacity="1" fill-opacity="0" font-weight="normal" font-style="normal"/>
          </g>
          <g id="GRID.PictureGrob.277.1">
            <g id="plot_01.toplevel.vp::plot_01.panel.1.1.vp::picture.shape.1">
              <defs>
                <clipPath id="plot_01.toplevel.vp::plot_01.panel.1.1.vp::picture.shape::picture.scale.1.clipPath">
                  <rect x="365.73" y="374.75" width="75.59" height="58.57" fill="none" stroke="none"/>
                </clipPath>
              </defs>
              <g id="plot_01.toplevel.vp::plot_01.panel.1.1.vp::picture.shape::picture.scale.1" clip-path="url(#plot_01.toplevel.vp::plot_01.panel.1.1.vp::picture.shape::picture.scale.1.clipPath)">
                <g id="import.9.GRID.gTree.293.1">
                  <g id="GRID.gTree.292.1">
                    <g id="GRID.picComplexPath.286.1" stroke="rgb(255,255,255)" stroke-opacity="0" fill="url(#import.9.linear0.1)" fill-opacity="1">
                      <g id="GRID.picPath.287.1">
                        <path id="GRID.picPath.287.1.1" d="M 403.48 384.53 L 403.48 384.53 L 402.31 384.55 L 401.16 384.59 L 400.01 384.66 L 398.87 384.75 L 397.73 384.88 L 396.59 385.03 L 395.46 385.21 L 394.34 385.42 L 393.22 385.66 L 392.11 385.93 L 391 386.22 L 389.9 386.55 L 388.81 386.9 L 387.74 387.28 L 386.67 387.69 L 385.62 388.12 L 384.59 388.58 L 383.58 389.07 L 382.59 389.58 L 381.62 390.12 L 380.68 390.68 L 379.77 391.26 L 378.88 391.86 L 378.03 392.49 L 377.21 393.12 L 376.43 393.78 L 375.68 394.45 L 374.97 395.13 L 374.3 395.83 L 373.67 396.54 L 373.08 397.25 L 372.53 397.98 L 372.02 398.71 L 371.56 399.45 L 371.14 400.19 L 370.76 400.94 L 370.43 401.69 L 370.13 402.45 L 369.88 403.21 L 369.68 403.97 L 369.51 404.73 L 369.39 405.5 L 369.3 406.27 L 369.26 407.04 L 369.25 407.45 L 369.25 407.45 L 369.27 408.23 L 369.34 409 L 369.44 409.77 L 369.58 410.54 L 369.77 411.3 L 370 412.06 L 370.27 412.82 L 370.58 413.57 L 370.94 414.32 L 371.34 415.07 L 371.78 415.81 L 372.26 416.54 L 372.79 417.27 L 373.36 417.99 L 373.96 418.7 L 374.61 419.41 L 375.3 420.1 L 376.03 420.78 L 376.8 421.44 L 377.6 422.09 L 378.43 422.72 L 379.3 423.33 L 380.2 423.92 L 381.13 424.49 L 382.08 425.04 L 383.06 425.57 L 384.06 426.07 L 385.08 426.54 L 386.12 426.99 L 387.18 427.41 L 388.25 427.81 L 389.33 428.18 L 390.43 428.52 L 391.53 428.83 L 392.64 429.11 L 393.75 429.36 L 394.88 429.58 L 396 429.78 L 397.14 429.95 L 398.27 430.09 L 399.41 430.2 L 400.56 430.28 L 401.71 430.34 L 402.87 430.37 L 403.48 430.37 L 403.48 430.37 L 404.64 430.36 L 405.79 430.32 L 406.94 430.25 L 408.09 430.15 L 409.22 430.02 L 410.36 429.87 L 411.49 429.69 L 412.61 429.48 L 413.73 429.24 L 414.85 428.98 L 415.95 428.68 L 417.05 428.36 L 418.14 428 L 419.22 427.62 L 420.28 427.22 L 421.33 426.78 L 422.36 426.32 L 423.37 425.83 L 424.36 425.32 L 425.33 424.78 L 426.27 424.22 L 427.18 423.64 L 428.07 423.04 L 428.92 422.42 L 429.74 421.78 L 430.52 421.12 L 431.27 420.45 L 431.98 419.77 L 432.65 419.07 L 433.28 418.37 L 433.87 417.65 L 434.42 416.92 L 434.93 416.19 L 435.39 415.45 L 435.81 414.71 L 436.19 413.96 L 436.52 413.21 L 436.82 412.46 L 437.07 411.7 L 437.28 410.94 L 437.44 410.17 L 437.57 409.41 L 437.65 408.63 L 437.69 407.86 L 437.7 407.45 L 437.7 407.45 L 437.68 406.67 L 437.61 405.9 L 437.51 405.13 L 437.37 404.36 L 437.18 403.6 L 436.95 402.84 L 436.68 402.09 L 436.37 401.33 L 436.01 400.58 L 435.61 399.84 L 435.17 399.1 L 434.69 398.36 L 434.16 397.63 L 433.6 396.91 L 432.99 396.2 L 432.34 395.5 L 431.65 394.81 L 430.92 394.13 L 430.15 393.46 L 429.35 392.82 L 428.52 392.19 L 427.65 391.57 L 426.75 390.98 L 425.82 390.41 L 424.87 389.86 L 423.89 389.34 L 422.89 388.84 L 421.87 388.36 L 420.83 387.91 L 419.77 387.49 L 418.7 387.09 L 417.62 386.73 L 416.53 386.39 L 415.42 386.08 L 414.31 385.8 L 413.2 385.54 L 412.07 385.32 L 410.95 385.12 L 409.82 384.95 L 408.68 384.81 L 407.54 384.7 L 406.39 384.62 L 405.24 384.56 L 404.08 384.54 L 403.48 384.53 Z M 408.71 421.41 L 408.71 421.41 L 407.69 421.4 L 406.68 421.36 L 405.67 421.3 L 404.67 421.21 L 403.67 421.09 L 402.68 420.95 L 401.69 420.79 L 400.71 420.6 L 399.73 420.38 L 398.76 420.13 L 397.8 419.86 L 396.85 419.57 L 395.92 419.24 L 395 418.9 L 394.1 418.53 L 393.22 418.13 L 392.36 417.72 L 391.52 417.28 L 390.72 416.82 L 389.94 416.35 L 389.2 415.85 L 388.49 415.34 L 387.82 414.82 L 387.18 414.28 L 386.59 413.73 L 386.03 413.17 L 385.52 412.61 L 385.05 412.03 L 384.62 411.45 L 384.23 410.87 L 383.89 410.28 L 383.6 409.68 L 383.34 409.08 L 383.13 408.48 L 382.96 407.88 L 382.83 407.28 L 382.75 406.67 L 382.71 406.06 L 382.7 405.74 L 382.7 405.74 L 382.72 405.13 L 382.79 404.52 L 382.89 403.91 L 383.04 403.31 L 383.23 402.7 L 383.46 402.11 L 383.74 401.51 L 384.05 400.92 L 384.42 400.33 L 384.82 399.75 L 385.27 399.17 L 385.76 398.6 L 386.3 398.03 L 386.87 397.48 L 387.49 396.94 L 388.14 396.41 L 388.83 395.89 L 389.56 395.39 L 390.32 394.9 L 391.11 394.43 L 391.93 393.99 L 392.77 393.56 L 393.64 393.15 L 394.54 392.77 L 395.45 392.41 L 396.37 392.08 L 397.32 391.77 L 398.27 391.49 L 399.23 391.23 L 400.21 391 L 401.19 390.79 L 402.17 390.61 L 403.16 390.46 L 404.16 390.33 L 405.16 390.23 L 406.16 390.15 L 407.17 390.1 L 408.19 390.08 L 408.71 390.07 L 408.71 390.07 L 409.72 390.08 L 410.72 390.11 L 411.7 390.15 L 412.68 390.21 L 413.65 390.3 L 414.62 390.4 L 415.57 390.52 L 416.52 390.66 L 417.46 390.83 L 418.39 391.02 L 419.31 391.23 L 420.21 391.46 L 421.1 391.72 L 421.98 392 L 422.83 392.31 L 423.67 392.64 L 424.48 392.99 L 425.27 393.37 L 426.03 393.77 L 426.76 394.2 L 427.46 394.65 L 428.13 395.12 L 428.76 395.6 L 429.36 396.11 L 429.92 396.64 L 430.45 397.19 L 430.93 397.76 L 431.38 398.34 L 431.78 398.94 L 432.15 399.55 L 432.48 400.18 L 432.76 400.82 L 433.01 401.48 L 433.22 402.16 L 433.39 402.84 L 433.52 403.55 L 433.61 404.27 L 433.66 405.01 L 433.68 405.74 L 433.68 405.74 L 433.66 406.5 L 433.61 407.24 L 433.51 407.96 L 433.38 408.66 L 433.21 409.35 L 433 410.02 L 432.75 410.68 L 432.47 411.32 L 432.14 411.95 L 431.77 412.56 L 431.37 413.16 L 430.92 413.74 L 430.43 414.31 L 429.91 414.85 L 429.35 415.38 L 428.75 415.89 L 428.11 416.38 L 427.44 416.85 L 426.74 417.29 L 426.01 417.72 L 425.25 418.12 L 424.46 418.5 L 423.65 418.85 L 422.81 419.18 L 421.95 419.49 L 421.08 419.77 L 420.19 420.03 L 419.28 420.26 L 418.36 420.47 L 417.43 420.66 L 416.49 420.82 L 415.55 420.97 L 414.59 421.09 L 413.63 421.19 L 412.66 421.27 L 411.68 421.33 L 410.69 421.38 L 409.69 421.4 L 408.71 421.41 Z" fill-rule="evenodd" stroke="rgb(255,255,255)" stroke-opacity="0"/>
                      </g>
                      <g id="GRID.picPolyline.288.1">
                        <polyline id="GRID.picPolyline.288.1.1" points="403.48,384.53 403.48,384.53 402.31,384.55 401.16,384.59 400.01,384.66 398.87,384.75 397.73,384.88 396.59,385.03 395.46,385.21 394.34,385.42 393.22,385.66 392.11,385.93 391,386.22 389.9,386.55 388.81,386.9 387.74,387.28 386.67,387.69 385.62,388.12 384.59,388.58 383.58,389.07 382.59,389.58 381.62,390.12 380.68,390.68 379.77,391.26 378.88,391.86 378.03,392.49 377.21,393.12 376.43,393.78 375.68,394.45 374.97,395.13 374.3,395.83 373.67,396.54 373.08,397.25 372.53,397.98 372.02,398.71 371.56,399.45 371.14,400.19 370.76,400.94 370.43,401.69 370.13,402.45 369.88,403.21 369.68,403.97 369.51,404.73 369.39,405.5 369.3,406.27 369.26,407.04 369.25,407.45 369.25,407.45 369.27,408.23 369.34,409 369.44,409.77 369.58,410.54 369.77,411.3 370,412.06 370.27,412.82 370.58,413.57 370.94,414.32 371.34,415.07 371.78,415.81 372.26,416.54 372.79,417.27 373.36,417.99 373.96,418.7 374.61,419.41 375.3,420.1 376.03,420.78 376.8,421.44 377.6,422.09 378.43,422.72 379.3,423.33 380.2,423.92 381.13,424.49 382.08,425.04 383.06,425.57 384.06,426.07 385.08,426.54 386.12,426.99 387.18,427.41 388.25,427.81 389.33,428.18 390.43,428.52 391.53,428.83 392.64,429.11 393.75,429.36 394.88,429.58 396,429.78 397.14,429.95 398.27,430.09 399.41,430.2 400.56,430.28 401.71,430.34 402.87,430.37 403.48,430.37 403.48,430.37 404.64,430.36 405.79,430.32 406.94,430.25 408.09,430.15 409.22,430.02 410.36,429.87 411.49,429.69 412.61,429.48 413.73,429.24 414.85,428.98 415.95,428.68 417.05,428.36 418.14,428 419.22,427.62 420.28,427.22 421.33,426.78 422.36,426.32 423.37,425.83 424.36,425.32 425.33,424.78 426.27,424.22 427.18,423.64 428.07,423.04 428.92,422.42 429.74,421.78 430.52,421.12 431.27,420.45 431.98,419.77 432.65,419.07 433.28,418.37 433.87,417.65 434.42,416.92 434.93,416.19 435.39,415.45 435.81,414.71 436.19,413.96 436.52,413.21 436.82,412.46 437.07,411.7 437.28,410.94 437.44,410.17 437.57,409.41 437.65,408.63 437.69,407.86 437.7,407.45 437.7,407.45 437.68,406.67 437.61,405.9 437.51,405.13 437.37,404.36 437.18,403.6 436.95,402.84 436.68,402.09 436.37,401.33 436.01,400.58 435.61,399.84 435.17,399.1 434.69,398.36 434.16,397.63 433.6,396.91 432.99,396.2 432.34,395.5 431.65,394.81 430.92,394.13 430.15,393.46 429.35,392.82 428.52,392.19 427.65,391.57 426.75,390.98 425.82,390.41 424.87,389.86 423.89,389.34 422.89,388.84 421.87,388.36 420.83,387.91 419.77,387.49 418.7,387.09 417.62,386.73 416.53,386.39 415.42,386.08 414.31,385.8 413.2,385.54 412.07,385.32 410.95,385.12 409.82,384.95 408.68,384.81 407.54,384.7 406.39,384.62 405.24,384.56 404.08,384.54 403.48,384.53 403.48,384.53" fill="none" fill-opacity="0"/>
                        <polyline id="GRID.picPolyline.288.1.2" points="408.71,421.41 408.71,421.41 407.69,421.4 406.68,421.36 405.67,421.3 404.67,421.21 403.67,421.09 402.68,420.95 401.69,420.79 400.71,420.6 399.73,420.38 398.76,420.13 397.8,419.86 396.85,419.57 395.92,419.24 395,418.9 394.1,418.53 393.22,418.13 392.36,417.72 391.52,417.28 390.72,416.82 389.94,416.35 389.2,415.85 388.49,415.34 387.82,414.82 387.18,414.28 386.59,413.73 386.03,413.17 385.52,412.61 385.05,412.03 384.62,411.45 384.23,410.87 383.89,410.28 383.6,409.68 383.34,409.08 383.13,408.48 382.96,407.88 382.83,407.28 382.75,406.67 382.71,406.06 382.7,405.74 382.7,405.74 382.72,405.13 382.79,404.52 382.89,403.91 383.04,403.31 383.23,402.7 383.46,402.11 383.74,401.51 384.05,400.92 384.42,400.33 384.82,399.75 385.27,399.17 385.76,398.6 386.3,398.03 386.87,397.48 387.49,396.94 388.14,396.41 388.83,395.89 389.56,395.39 390.32,394.9 391.11,394.43 391.93,393.99 392.77,393.56 393.64,393.15 394.54,392.77 395.45,392.41 396.37,392.08 397.32,391.77 398.27,391.49 399.23,391.23 400.21,391 401.19,390.79 402.17,390.61 403.16,390.46 404.16,390.33 405.16,390.23 406.16,390.15 407.17,390.1 408.19,390.08 408.71,390.07 408.71,390.07 409.72,390.08 410.72,390.11 411.7,390.15 412.68,390.21 413.65,390.3 414.62,390.4 415.57,390.52 416.52,390.66 417.46,390.83 418.39,391.02 419.31,391.23 420.21,391.46 421.1,391.72 421.98,392 422.83,392.31 423.67,392.64 424.48,392.99 425.27,393.37 426.03,393.77 426.76,394.2 427.46,394.65 428.13,395.12 428.76,395.6 429.36,396.11 429.92,396.64 430.45,397.19 430.93,397.76 431.38,398.34 431.78,398.94 432.15,399.55 432.48,400.18 432.76,400.82 433.01,401.48 433.22,402.16 433.39,402.84 433.52,403.55 433.61,404.27 433.66,405.01 433.68,405.74 433.68,405.74 433.66,406.5 433.61,407.24 433.51,407.96 433.38,408.66 433.21,409.35 433,410.02 432.75,410.68 432.47,411.32 432.14,411.95 431.77,412.56 431.37,413.16 430.92,413.74 430.43,414.31 429.91,414.85 429.35,415.38 428.75,415.89 428.11,416.38 427.44,416.85 426.74,417.29 426.01,417.72 425.25,418.12 424.46,418.5 423.65,418.85 422.81,419.18 421.95,419.49 421.08,419.77 420.19,420.03 419.28,420.26 418.36,420.47 417.43,420.66 416.49,420.82 415.55,420.97 414.59,421.09 413.63,421.19 412.66,421.27 411.68,421.33 410.69,421.38 409.69,421.4 408.71,421.41 408.71,421.41" fill="none" fill-opacity="0"/>
                      </g>
                    </g>
                    <g id="GRID.picComplexPath.289.1" stroke="rgb(255,255,255)" stroke-opacity="0" fill="url(#import.9.linear1.1)" fill-opacity="1">
                      <g id="GRID.picPath.290.1">
                        <path id="GRID.picPath.290.1.1" d="M 421.37 394.87 L 421.37 394.87 L 421.41 394.86 L 421.51 394.83 L 421.68 394.78 L 421.91 394.7 L 422.19 394.61 L 422.51 394.5 L 422.86 394.38 L 423.22 394.24 L 423.58 394.11 L 423.92 393.97 L 424.24 393.83 L 424.54 393.69 L 424.65 393.64 L 424.65 393.64 L 424.78 393.57 L 424.93 393.49 L 425.1 393.38 L 425.29 393.27 L 425.49 393.13 L 425.69 392.99 L 425.89 392.84 L 426.07 392.68 L 426.24 392.53 L 426.31 392.45 L 426.31 392.45 L 426.48 392.26 L 426.64 392.06 L 426.78 391.86 L 426.89 391.68 L 426.98 391.53 L 427.03 391.43 L 427.06 391.37 L 427.07 391.36 L 435.23 377.6 L 422.04 377.59 L 415.87 389.18 L 415.87 389.18 L 415.84 389.21 L 415.78 389.32 L 415.68 389.49 L 415.54 389.72 L 415.36 389.99 L 415.16 390.3 L 414.95 390.62 L 414.72 390.94 L 414.49 391.24 L 414.28 391.51 L 414.07 391.74 L 413.88 391.93 L 413.83 391.98 L 413.83 391.98 L 413.63 392.13 L 413.45 392.27 L 413.27 392.39 L 413.1 392.49 L 412.93 392.57 L 412.75 392.63 L 412.58 392.67 L 412.39 392.69 L 412.26 392.69 L 412.26 392.69 L 412.11 392.69 L 411.89 392.69 L 411.6 392.69 L 411.25 392.69 L 410.87 392.69 L 410.48 392.69 L 410.1 392.69 L 409.76 392.69 L 409.48 392.69 L 409.27 392.69 L 409.15 392.69 L 409.12 392.69 L 409.13 377.6 L 397.45 377.59 L 397.45 416.14 L 420.9 416.14 L 420.9 416.14 L 420.93 416.14 L 421.04 416.13 L 421.22 416.12 L 421.46 416.1 L 421.76 416.06 L 422.12 416.01 L 422.53 415.93 L 422.98 415.83 L 423.48 415.71 L 424.02 415.55 L 424.58 415.36 L 425.17 415.13 L 425.77 414.87 L 426.37 414.56 L 426.98 414.21 L 427.57 413.82 L 428.15 413.38 L 428.7 412.9 L 429.22 412.37 L 429.7 411.79 L 430.14 411.16 L 430.52 410.49 L 430.86 409.77 L 431.13 408.99 L 431.34 408.16 L 431.49 407.28 L 431.56 406.34 L 431.58 405.79 L 431.58 405.79 L 431.54 404.81 L 431.44 403.89 L 431.27 403.02 L 431.04 402.21 L 430.76 401.44 L 430.41 400.72 L 430.02 400.05 L 429.59 399.42 L 429.11 398.84 L 428.61 398.3 L 428.07 397.81 L 427.51 397.36 L 426.94 396.95 L 426.36 396.59 L 425.78 396.27 L 425.22 395.99 L 424.67 395.75 L 424.14 395.55 L 423.64 395.38 L 423.18 395.24 L 422.76 395.12 L 422.39 395.04 L 422.07 394.97 L 421.81 394.93 L 421.6 394.9 L 421.46 394.88 L 421.38 394.87 L 421.37 394.87 Z M 416.29 407.78 L 409.23 407.78 L 409.22 401.23 L 416.29 401.23 L 416.29 401.23 L 416.33 401.23 L 416.42 401.24 L 416.56 401.25 L 416.76 401.28 L 417 401.34 L 417.27 401.42 L 417.57 401.52 L 417.88 401.67 L 418.19 401.85 L 418.5 402.08 L 418.78 402.35 L 419.03 402.66 L 419.24 403.02 L 419.4 403.42 L 419.51 403.88 L 419.56 404.39 L 419.57 404.57 L 419.57 404.57 L 419.54 405.08 L 419.46 405.53 L 419.32 405.94 L 419.14 406.3 L 418.93 406.61 L 418.68 406.88 L 418.4 407.11 L 418.11 407.3 L 417.81 407.45 L 417.52 407.57 L 417.24 407.66 L 416.98 407.71 L 416.76 407.75 L 416.57 407.77 L 416.43 407.78 L 416.33 407.78 L 416.29 407.78 L 416.29 407.78 Z" fill-rule="evenodd" stroke="rgb(255,255,255)" stroke-opacity="0"/>
                      </g>
                      <g id="GRID.picPolyline.291.1">
                        <polyline id="GRID.picPolyline.291.1.1" points="421.37,394.87 421.37,394.87 421.41,394.86 421.51,394.83 421.68,394.78 421.91,394.7 422.19,394.61 422.51,394.5 422.86,394.38 423.22,394.24 423.58,394.11 423.92,393.97 424.24,393.83 424.54,393.69 424.65,393.64 424.65,393.64 424.78,393.57 424.93,393.49 425.1,393.38 425.29,393.27 425.49,393.13 425.69,392.99 425.89,392.84 426.07,392.68 426.24,392.53 426.31,392.45 426.31,392.45 426.48,392.26 426.64,392.06 426.78,391.86 426.89,391.68 426.98,391.53 427.03,391.43 427.06,391.37 427.07,391.36 435.23,377.6 422.04,377.59 415.87,389.18 415.87,389.18 415.84,389.21 415.78,389.32 415.68,389.49 415.54,389.72 415.36,389.99 415.16,390.3 414.95,390.62 414.72,390.94 414.49,391.24 414.28,391.51 414.07,391.74 413.88,391.93 413.83,391.98 413.83,391.98 413.63,392.13 413.45,392.27 413.27,392.39 413.1,392.49 412.93,392.57 412.75,392.63 412.58,392.67 412.39,392.69 412.26,392.69 412.26,392.69 412.11,392.69 411.89,392.69 411.6,392.69 411.25,392.69 410.87,392.69 410.48,392.69 410.1,392.69 409.76,392.69 409.48,392.69 409.27,392.69 409.15,392.69 409.12,392.69 409.13,377.6 397.45,377.59 397.45,416.14 420.9,416.14 420.9,416.14 420.93,416.14 421.04,416.13 421.22,416.12 421.46,416.1 421.76,416.06 422.12,416.01 422.53,415.93 422.98,415.83 423.48,415.71 424.02,415.55 424.58,415.36 425.17,415.13 425.77,414.87 426.37,414.56 426.98,414.21 427.57,413.82 428.15,413.38 428.7,412.9 429.22,412.37 429.7,411.79 430.14,411.16 430.52,410.49 430.86,409.77 431.13,408.99 431.34,408.16 431.49,407.28 431.56,406.34 431.58,405.79 431.58,405.79 431.54,404.81 431.44,403.89 431.27,403.02 431.04,402.21 430.76,401.44 430.41,400.72 430.02,400.05 429.59,399.42 429.11,398.84 428.61,398.3 428.07,397.81 427.51,397.36 426.94,396.95 426.36,396.59 425.78,396.27 425.22,395.99 424.67,395.75 424.14,395.55 423.64,395.38 423.18,395.24 422.76,395.12 422.39,395.04 422.07,394.97 421.81,394.93 421.6,394.9 421.46,394.88 421.38,394.87 421.37,394.87 421.37,394.87" fill="none" fill-opacity="0"/>
                        <polyline id="GRID.picPolyline.291.1.2" points="416.29,407.78 409.23,407.78 409.22,401.23 416.29,401.23 416.29,401.23 416.33,401.23 416.42,401.24 416.56,401.25 416.76,401.28 417,401.34 417.27,401.42 417.57,401.52 417.88,401.67 418.19,401.85 418.5,402.08 418.78,402.35 419.03,402.66 419.24,403.02 419.4,403.42 419.51,403.88 419.56,404.39 419.57,404.57 419.57,404.57 419.54,405.08 419.46,405.53 419.32,405.94 419.14,406.3 418.93,406.61 418.68,406.88 418.4,407.11 418.11,407.3 417.81,407.45 417.52,407.57 417.24,407.66 416.98,407.71 416.76,407.75 416.57,407.77 416.43,407.78 416.33,407.78 416.29,407.78 416.29,407.78 416.29,407.78" fill="none" fill-opacity="0"/>
                      </g>
                    </g>
                  </g>
                </g>
              </g>
            </g>
          </g>
        </g>
        <g id="plot_01.toplevel.vp::plot_01.panel.1.1.off.vp.2">
          <g id="plot_01.border.panel.1.1.1">
            <rect id="plot_01.border.panel.1.1.1.1" x="64.99" y="67.74" width="376.33" height="365.58" transform="" stroke="rgb(0,0,0)" stroke-dasharray="none" stroke-width="1" opacity="1" fill="none" stroke-opacity="1" fill-opacity="0"/>
          </g>
        </g>
        <g id="plot_01.toplevel.vp::plot_01..1"/>
      </g>
    </g>
  </g>
</svg>