<?xml version="1.0" encoding="UTF-8"?>
<svg xmlns="http://www.w3.org/2000/svg" xmlns:xlink="http://www.w3.org/1999/xlink" width="300pt" height="300pt" viewBox="0 0 300 300" version="1.1">
<defs>
<filter id="alpha" filterUnits="objectBoundingBox" x="0%" y="0%" width="100%" height="100%">
  <feColorMatrix type="matrix" in="SourceGraphic" values="0 0 0 0 1 0 0 0 0 1 0 0 0 0 1 0 0 0 1 0"/>
</filter>
<mask id="mask0">
  <g filter="url(#alpha)">
<rect x="0" y="0" width="300" height="300" style="fill:rgb(0%,0%,0%);fill-opacity:0.85098;stroke:none;"/>
  </g>
</mask>
<clipPath id="clip1">
  <rect width="300" height="300"/>
</clipPath>
<g id="surface10" clip-path="url(#clip1)">
<path style=" stroke:none;fill-rule:nonzero;fill:rgb(0%,0%,0%);fill-opacity:1;" d="M 8.5 150 L 291.5 150 L 291.5 250 C 291.5 273.5 273.5 291.5 250 291.5 L 50 291.5 C 26.5 291.5 8.5 273.5 8.5 250 Z M 8.5 150 "/>
</g>
</defs>
<g id="surface5">
<path style=" stroke:none;fill-rule:nonzero;fill:rgb(0%,0%,0%);fill-opacity:1;" d="M 8.5 150 L 291.5 150 L 291.5 250 C 291.5 273.5 273.5 291.5 250 291.5 L 50 291.5 C 26.5 291.5 8.5 273.5 8.5 250 Z M 8.5 150 "/>
<path style="fill-rule:nonzero;fill:rgb(100%,69.411765%,23.137255%);fill-opacity:1;stroke-width:38.0086;stroke-linecap:butt;stroke-linejoin:miter;stroke:rgb(0%,0%,0%);stroke-opacity:1;stroke-miterlimit:4;" d="M -84.148438 -15.851562 C -92.902344 -24.605469 -107.097656 -24.605469 -115.851562 -15.851562 C -124.605469 -7.097656 -124.605469 7.097656 -115.851562 15.851562 C -107.097656 24.605469 -92.902344 24.605469 -84.148438 15.851562 L 84.148438 15.851562 C 92.902344 24.605469 107.097656 24.605469 115.851562 15.851562 C 124.605469 7.097656 124.605469 -7.097656 115.851562 -15.851562 C 107.097656 -24.605469 92.902344 -24.605469 84.148438 -15.851562 Z M -84.148438 -15.851562 " transform="matrix(1,0,0,1,150,150)"/>
<path style="fill-rule:nonzero;fill:rgb(100%,69.411765%,23.137255%);fill-opacity:1;stroke-width:38.0086;stroke-linecap:butt;stroke-linejoin:miter;stroke:rgb(0%,0%,0%);stroke-opacity:1;stroke-miterlimit:4;" d="M -84.148469 -15.851898 C -92.901678 -24.605106 -107.096294 -24.607868 -115.852265 -15.851898 C -124.605473 -7.098689 -124.605473 7.098689 -115.852265 15.851898 C -107.096294 24.607868 -92.901678 24.605106 -84.148469 15.851898 L 84.148469 15.851898 C 92.901678 24.605106 107.096294 24.607868 115.852265 15.851898 C 124.605473 7.098689 124.605473 -7.098689 115.852265 -15.851898 C 107.096294 -24.607868 92.901678 -24.605106 84.148469 -15.851898 Z M -84.148469 -15.851898 " transform="matrix(0.707107,0.707107,-0.707107,0.707107,150,150)"/>
<path style="fill-rule:nonzero;fill:rgb(100%,69.411765%,23.137255%);fill-opacity:1;stroke-width:38.0086;stroke-linecap:butt;stroke-linejoin:miter;stroke:rgb(0%,0%,0%);stroke-opacity:1;stroke-miterlimit:4;" d="M -84.148437 -15.851562 C -92.902344 -24.605469 -107.097656 -24.605469 -115.851562 -15.851562 C -124.605469 -7.097656 -124.605469 7.097656 -115.851562 15.851562 C -107.097656 24.605469 -92.902344 24.605469 -84.148437 15.851562 L 84.148438 15.851563 C 92.902344 24.605469 107.097656 24.605469 115.851562 15.851563 C 124.605469 7.097656 124.605469 -7.097656 115.851562 -15.851562 C 107.097656 -24.605469 92.902344 -24.605469 84.148438 -15.851562 Z M -84.148437 -15.851562 " transform="matrix(0.000000000000000061,1,-1,0.000000000000000061,150,150)"/>
<path style="fill-rule:nonzero;fill:rgb(100%,69.411765%,23.137255%);fill-opacity:1;stroke-width:38.0086;stroke-linecap:butt;stroke-linejoin:miter;stroke:rgb(0%,0%,0%);stroke-opacity:1;stroke-miterlimit:4;" d="M -84.148469 -15.851898 C -92.901678 -24.605106 -107.096294 -24.607868 -115.852265 -15.851898 C -124.605473 -7.098689 -124.605473 7.098689 -115.852265 15.851898 C -107.096294 24.607868 -92.901678 24.605106 -84.148469 15.851898 L 84.148469 15.851898 C 92.901678 24.605106 107.096294 24.607868 115.852265 15.851898 C 124.605473 7.098689 124.605473 -7.098689 115.852265 -15.851898 C 107.096294 -24.607868 92.901678 -24.605106 84.148469 -15.851898 Z M -84.148469 -15.851898 " transform="matrix(-0.707107,0.707107,-0.707107,-0.707107,150,150)"/>
<path style=" stroke:none;fill-rule:nonzero;fill:rgb(100%,69.411765%,23.137255%);fill-opacity:1;" d="M 65.851562 134.148438 C 57.097656 125.394531 42.902344 125.394531 34.148438 134.148438 C 25.394531 142.902344 25.394531 157.097656 34.148438 165.851562 C 42.902344 174.605469 57.097656 174.605469 65.851562 165.851562 L 234.148438 165.851562 C 242.902344 174.605469 257.097656 174.605469 265.851562 165.851562 C 274.605469 157.097656 274.605469 142.902344 265.851562 134.148438 C 257.097656 125.394531 242.902344 125.394531 234.148438 134.148438 Z M 65.851562 134.148438 "/>
<path style=" stroke:none;fill-rule:nonzero;fill:rgb(100%,69.411765%,23.137255%);fill-opacity:1;" d="M 101.707031 79.289062 C 101.707031 66.910156 91.671875 56.871094 79.289062 56.871094 C 66.910156 56.871094 56.871094 66.910156 56.871094 79.289062 C 56.871094 91.671875 66.910156 101.707031 79.289062 101.707031 L 198.292969 220.710938 C 198.292969 233.089844 208.328125 243.128906 220.710938 243.128906 C 233.089844 243.128906 243.128906 233.089844 243.128906 220.710938 C 243.128906 208.328125 233.089844 198.292969 220.710938 198.292969 Z M 101.707031 79.289062 "/>
<path style=" stroke:none;fill-rule:nonzero;fill:rgb(100%,69.411765%,23.137255%);fill-opacity:1;" d="M 165.851562 65.851562 C 174.605469 57.097656 174.605469 42.902344 165.851562 34.148438 C 157.097656 25.394531 142.902344 25.394531 134.148438 34.148438 C 125.394531 42.902344 125.394531 57.097656 134.148438 65.851562 L 134.148438 234.148438 C 125.394531 242.902344 125.394531 257.097656 134.148438 265.851562 C 142.902344 274.605469 157.097656 274.605469 165.851562 265.851562 C 174.605469 257.097656 174.605469 242.902344 165.851562 234.148438 Z M 165.851562 65.851562 "/>
<path style=" stroke:none;fill-rule:nonzero;fill:rgb(100%,69.411765%,23.137255%);fill-opacity:1;" d="M 220.710938 101.707031 C 233.089844 101.707031 243.128906 91.671875 243.128906 79.289062 C 243.128906 66.910156 233.089844 56.871094 220.710938 56.871094 C 208.328125 56.871094 198.292969 66.910156 198.292969 79.289062 L 79.289062 198.292969 C 66.910156 198.292969 56.871094 208.328125 56.871094 220.710938 C 56.871094 233.089844 66.910156 243.128906 79.289062 243.128906 C 91.671875 243.128906 101.707031 233.089844 101.707031 220.710938 Z M 220.710938 101.707031 "/>
<use xlink:href="#surface10" mask="url(#mask0)"/>
<path style=" stroke:none;fill-rule:nonzero;fill:rgb(100%,100%,100%);fill-opacity:1;" d="M 50.964844 220.636719 C 44.324219 214.003906 40.21875 204.839844 40.21875 194.714844 C 40.21875 174.464844 56.644531 158.046875 76.886719 158.046875 C 97.136719 158.046875 113.5625 174.464844 113.5625 194.714844 L 92.085938 194.714844 C 92.085938 186.328125 85.277344 179.53125 76.886719 179.53125 C 68.496094 179.53125 61.699219 186.328125 61.699219 194.714844 C 61.699219 198.90625 63.402344 202.703125 66.140625 205.441406 L 66.148438 205.441406 C 68.898438 208.203125 71.191406 209 76.886719 209.902344 C 87.019531 210.957031 96.183594 214.011719 102.816406 220.648438 C 109.457031 227.285156 113.5625 236.449219 113.5625 246.570312 C 113.5625 266.824219 97.136719 283.25 76.886719 283.25 C 56.644531 283.25 40.21875 266.824219 40.21875 246.570312 L 61.699219 246.570312 C 61.699219 254.960938 68.496094 261.769531 76.886719 261.769531 C 85.277344 261.769531 92.085938 254.960938 92.085938 246.570312 C 92.085938 242.382812 90.382812 238.597656 87.640625 235.847656 L 87.632812 235.847656 C 84.882812 233.097656 80.9375 232.148438 76.886719 231.394531 L 76.886719 231.382812 C 67.066406 229.878906 57.601562 227.277344 50.964844 220.636719 Z M 50.964844 220.636719 "/>
<path style=" stroke:none;fill-rule:nonzero;fill:rgb(100%,100%,100%);fill-opacity:1;" d="M 186.902344 158.046875 L 160.964844 283.25 L 139.484375 283.25 L 113.5625 158.046875 L 135.042969 158.046875 L 150.242188 231.375 L 165.425781 158.046875 Z M 186.902344 158.046875 "/>
<path style=" stroke:none;fill-rule:nonzero;fill:rgb(100%,100%,100%);fill-opacity:1;" d="M 223.585938 209.902344 L 260.253906 209.902344 L 260.253906 246.570312 L 260.261719 246.570312 C 260.261719 266.824219 243.835938 283.253906 223.585938 283.253906 C 203.328125 283.253906 186.914062 266.824219 186.914062 246.570312 L 186.914062 194.71875 L 186.90625 194.71875 C 186.90625 174.464844 203.328125 158.050781 223.585938 158.050781 C 243.824219 158.050781 260.253906 174.464844 260.253906 194.71875 L 238.769531 194.71875 C 238.769531 186.339844 231.960938 179.53125 223.585938 179.53125 C 215.195312 179.53125 208.394531 186.339844 208.394531 194.71875 L 208.394531 246.570312 C 208.394531 254.960938 215.195312 261.761719 223.585938 261.761719 C 231.960938 261.761719 238.761719 254.960938 238.769531 246.582031 L 238.769531 231.394531 L 223.585938 231.394531 Z M 223.585938 209.902344 "/>
</g>
</svg>
